G04 #@! TF.GenerationSoftware,KiCad,Pcbnew,5.1.2-f72e74a~84~ubuntu19.04.1*
G04 #@! TF.CreationDate,2019-05-07T16:21:10-05:00*
G04 #@! TF.ProjectId,Adapter-TE-52,41646170-7465-4722-9d54-452d35322e6b,rev?*
G04 #@! TF.SameCoordinates,Original*
G04 #@! TF.FileFunction,Copper,L1,Top*
G04 #@! TF.FilePolarity,Positive*
%FSLAX46Y46*%
G04 Gerber Fmt 4.6, Leading zero omitted, Abs format (unit mm)*
G04 Created by KiCad (PCBNEW 5.1.2-f72e74a~84~ubuntu19.04.1) date 2019-05-07 16:21:10*
%MOMM*%
%LPD*%
G04 APERTURE LIST*
%ADD10R,1.700000X1.700000*%
%ADD11O,1.700000X1.700000*%
%ADD12C,2.100000*%
%ADD13C,2.500000*%
%ADD14C,3.200000*%
%ADD15C,3.000000*%
%ADD16C,2.000000*%
%ADD17C,1.000000*%
%ADD18C,0.254000*%
G04 APERTURE END LIST*
D10*
X103822500Y-115531900D03*
D11*
X103822500Y-118071900D03*
X106362500Y-115531900D03*
X106362500Y-118071900D03*
X108902500Y-115531900D03*
X108902500Y-118071900D03*
X111442500Y-115531900D03*
X111442500Y-118071900D03*
X113982500Y-115531900D03*
X113982500Y-118071900D03*
X116522500Y-115531900D03*
X116522500Y-118071900D03*
X119062500Y-115531900D03*
X119062500Y-118071900D03*
X121602500Y-115531900D03*
X121602500Y-118071900D03*
X124142500Y-115531900D03*
X124142500Y-118071900D03*
X126682500Y-115531900D03*
X126682500Y-118071900D03*
X129222500Y-115531900D03*
X129222500Y-118071900D03*
X131762500Y-115531900D03*
X131762500Y-118071900D03*
X134302500Y-115531900D03*
X134302500Y-118071900D03*
X136842500Y-115531900D03*
X136842500Y-118071900D03*
X139382500Y-115531900D03*
X139382500Y-118071900D03*
X141922500Y-115531900D03*
X141922500Y-118071900D03*
X144462500Y-115531900D03*
X144462500Y-118071900D03*
X147002500Y-115531900D03*
X147002500Y-118071900D03*
X149542500Y-115531900D03*
X149542500Y-118071900D03*
X152082500Y-115531900D03*
X152082500Y-118071900D03*
X154622500Y-115531900D03*
X154622500Y-118071900D03*
X157162500Y-115531900D03*
X157162500Y-118071900D03*
X159702500Y-115531900D03*
X159702500Y-118071900D03*
X162242500Y-115531900D03*
X162242500Y-118071900D03*
X164782500Y-115531900D03*
X164782500Y-118071900D03*
X167322500Y-115531900D03*
X167322500Y-118071900D03*
D12*
X123469400Y-99034600D03*
X126009400Y-99060000D03*
X113309400Y-98983800D03*
X131089400Y-99060000D03*
X133629400Y-99060000D03*
X136169400Y-101600000D03*
X115849400Y-101523800D03*
X133629400Y-101600000D03*
X115849400Y-98983800D03*
X128549400Y-99060000D03*
X118389400Y-101574600D03*
X118389400Y-99034600D03*
X113309400Y-101523800D03*
X123469400Y-101574600D03*
X120929400Y-99034600D03*
X131089400Y-101600000D03*
X128549400Y-101600000D03*
X126009400Y-101600000D03*
X120929400Y-101574600D03*
X136169400Y-99060000D03*
D13*
X151803100Y-101955600D03*
X146773900Y-101955600D03*
X156781500Y-101955600D03*
X141757400Y-101942900D03*
X146748500Y-94005400D03*
X141732000Y-93992700D03*
X151777700Y-94005400D03*
X156756100Y-94005400D03*
X156756100Y-86055200D03*
X151777700Y-86055200D03*
X146748500Y-86055200D03*
X141732000Y-86042500D03*
D12*
X136169400Y-89001600D03*
X136169400Y-86461600D03*
X133629400Y-86461600D03*
X133629400Y-89001600D03*
X131089400Y-89001600D03*
X131089400Y-86461600D03*
X128549400Y-86461600D03*
X128549400Y-89001600D03*
X126009400Y-86461600D03*
X126009400Y-89001600D03*
X123469400Y-88976200D03*
X123469400Y-86436200D03*
X118389400Y-86436200D03*
X120929400Y-88976200D03*
X118389400Y-88976200D03*
X120929400Y-86436200D03*
X115849400Y-86385400D03*
X115849400Y-88925400D03*
X113309400Y-88925400D03*
X113309400Y-86385400D03*
D14*
X162763200Y-82575400D03*
X108966000Y-82575400D03*
D15*
X170192700Y-77330300D03*
X100152200Y-77304900D03*
D13*
X120307100Y-106438700D03*
D16*
X111442500Y-118071900D02*
X111442500Y-115531900D01*
D17*
X115849400Y-111125000D02*
X111442500Y-115531900D01*
X115849400Y-101523800D02*
X115849400Y-111125000D01*
D16*
X108902500Y-115531900D02*
X108902500Y-118071900D01*
D17*
X113309400Y-111125000D02*
X108902500Y-115531900D01*
X113309400Y-101523800D02*
X113309400Y-111125000D01*
D16*
X129222500Y-118071900D02*
X129222500Y-115531900D01*
X134302500Y-114329819D02*
X135150420Y-113481899D01*
X135150420Y-113481899D02*
X142969201Y-113481899D01*
X142969201Y-113481899D02*
X146773900Y-109677200D01*
X146773900Y-103723366D02*
X146773900Y-101955600D01*
X146773900Y-109677200D02*
X146773900Y-103723366D01*
X134302500Y-115531900D02*
X134302500Y-114329819D01*
X134302500Y-115531900D02*
X134302500Y-118071900D01*
X121602500Y-118071900D02*
X121602500Y-115531900D01*
X141757400Y-101942900D02*
X141757400Y-107124500D01*
X116522500Y-114329819D02*
X116522500Y-115531900D01*
X121770442Y-109081877D02*
X116522500Y-114329819D01*
X141757400Y-107124500D02*
X139800023Y-109081877D01*
X139800023Y-109081877D02*
X121770442Y-109081877D01*
X116522500Y-115531900D02*
X116522500Y-118071900D01*
X144207401Y-96546499D02*
X145498501Y-95255399D01*
X133726512Y-111281888D02*
X142057712Y-111281888D01*
X145498501Y-95255399D02*
X146748500Y-94005400D01*
X142057712Y-111281888D02*
X144207401Y-109132199D01*
X131762500Y-115531900D02*
X131762500Y-113245900D01*
X144207401Y-109132199D02*
X144207401Y-96546499D01*
X131762500Y-113245900D02*
X133726512Y-111281888D01*
X131762500Y-115531900D02*
X131762500Y-118071900D01*
X141732000Y-93992700D02*
X139128500Y-96596200D01*
X139128500Y-96596200D02*
X139128500Y-106057700D01*
X138747500Y-106438700D02*
X139128500Y-106057700D01*
X120307100Y-106438700D02*
X138747500Y-106438700D01*
X119062500Y-115531900D02*
X119062500Y-118071900D01*
X126682500Y-118071900D02*
X126682500Y-115531900D01*
X124142500Y-118071900D02*
X124142500Y-115531900D01*
X103822500Y-115531900D02*
X103822500Y-118071900D01*
D17*
X115849400Y-84861400D02*
X115849400Y-86385400D01*
X103822500Y-115531900D02*
X103822500Y-99250500D01*
X110655100Y-85699600D02*
X112153700Y-84201000D01*
X112153700Y-84201000D02*
X115189000Y-84201000D01*
X115189000Y-84201000D02*
X115849400Y-84861400D01*
X103822500Y-99250500D02*
X110655100Y-92417900D01*
X110655100Y-92417900D02*
X110655100Y-85699600D01*
D16*
X106362500Y-115531900D02*
X106362500Y-118071900D01*
D17*
X115849400Y-91313000D02*
X115849400Y-88925400D01*
X106362500Y-115531900D02*
X106362500Y-100799900D01*
X106362500Y-100799900D02*
X115849400Y-91313000D01*
D18*
G36*
X166335743Y-87132848D02*
G01*
X171551679Y-110085498D01*
X171599516Y-118720000D01*
X168656621Y-118720000D01*
X168666657Y-118703152D01*
X168763981Y-118428791D01*
X168643314Y-118198900D01*
X167449500Y-118198900D01*
X167449500Y-118218900D01*
X167195500Y-118218900D01*
X167195500Y-118198900D01*
X164909500Y-118198900D01*
X164909500Y-118218900D01*
X164655500Y-118218900D01*
X164655500Y-118198900D01*
X162369500Y-118198900D01*
X162369500Y-118218900D01*
X162115500Y-118218900D01*
X162115500Y-118198900D01*
X159829500Y-118198900D01*
X159829500Y-118218900D01*
X159575500Y-118218900D01*
X159575500Y-118198900D01*
X157289500Y-118198900D01*
X157289500Y-118218900D01*
X157035500Y-118218900D01*
X157035500Y-118198900D01*
X157015500Y-118198900D01*
X157015500Y-117944900D01*
X157035500Y-117944900D01*
X157035500Y-115658900D01*
X157289500Y-115658900D01*
X157289500Y-117944900D01*
X159575500Y-117944900D01*
X159575500Y-115658900D01*
X159829500Y-115658900D01*
X159829500Y-117944900D01*
X162115500Y-117944900D01*
X162115500Y-115658900D01*
X162369500Y-115658900D01*
X162369500Y-117944900D01*
X164655500Y-117944900D01*
X164655500Y-115658900D01*
X164909500Y-115658900D01*
X164909500Y-117944900D01*
X167195500Y-117944900D01*
X167195500Y-115658900D01*
X167449500Y-115658900D01*
X167449500Y-117944900D01*
X168643314Y-117944900D01*
X168763981Y-117715009D01*
X168666657Y-117440648D01*
X168517678Y-117190545D01*
X168322769Y-116974312D01*
X168091620Y-116801900D01*
X168322769Y-116629488D01*
X168517678Y-116413255D01*
X168666657Y-116163152D01*
X168763981Y-115888791D01*
X168643314Y-115658900D01*
X167449500Y-115658900D01*
X167195500Y-115658900D01*
X164909500Y-115658900D01*
X164655500Y-115658900D01*
X162369500Y-115658900D01*
X162115500Y-115658900D01*
X159829500Y-115658900D01*
X159575500Y-115658900D01*
X157289500Y-115658900D01*
X157035500Y-115658900D01*
X157015500Y-115658900D01*
X157015500Y-115404900D01*
X157035500Y-115404900D01*
X157035500Y-114211745D01*
X157289500Y-114211745D01*
X157289500Y-115404900D01*
X159575500Y-115404900D01*
X159575500Y-114211745D01*
X159829500Y-114211745D01*
X159829500Y-115404900D01*
X162115500Y-115404900D01*
X162115500Y-114211745D01*
X162369500Y-114211745D01*
X162369500Y-115404900D01*
X164655500Y-115404900D01*
X164655500Y-114211745D01*
X164909500Y-114211745D01*
X164909500Y-115404900D01*
X167195500Y-115404900D01*
X167195500Y-114211745D01*
X167449500Y-114211745D01*
X167449500Y-115404900D01*
X168643314Y-115404900D01*
X168763981Y-115175009D01*
X168666657Y-114900648D01*
X168517678Y-114650545D01*
X168322769Y-114434312D01*
X168089420Y-114260259D01*
X167826599Y-114135075D01*
X167679390Y-114090424D01*
X167449500Y-114211745D01*
X167195500Y-114211745D01*
X166965610Y-114090424D01*
X166818401Y-114135075D01*
X166555580Y-114260259D01*
X166322231Y-114434312D01*
X166127322Y-114650545D01*
X166052500Y-114776155D01*
X165977678Y-114650545D01*
X165782769Y-114434312D01*
X165549420Y-114260259D01*
X165286599Y-114135075D01*
X165139390Y-114090424D01*
X164909500Y-114211745D01*
X164655500Y-114211745D01*
X164425610Y-114090424D01*
X164278401Y-114135075D01*
X164015580Y-114260259D01*
X163782231Y-114434312D01*
X163587322Y-114650545D01*
X163512500Y-114776155D01*
X163437678Y-114650545D01*
X163242769Y-114434312D01*
X163009420Y-114260259D01*
X162746599Y-114135075D01*
X162599390Y-114090424D01*
X162369500Y-114211745D01*
X162115500Y-114211745D01*
X161885610Y-114090424D01*
X161738401Y-114135075D01*
X161475580Y-114260259D01*
X161242231Y-114434312D01*
X161047322Y-114650545D01*
X160972500Y-114776155D01*
X160897678Y-114650545D01*
X160702769Y-114434312D01*
X160469420Y-114260259D01*
X160206599Y-114135075D01*
X160059390Y-114090424D01*
X159829500Y-114211745D01*
X159575500Y-114211745D01*
X159345610Y-114090424D01*
X159198401Y-114135075D01*
X158935580Y-114260259D01*
X158702231Y-114434312D01*
X158507322Y-114650545D01*
X158432500Y-114776155D01*
X158357678Y-114650545D01*
X158162769Y-114434312D01*
X157929420Y-114260259D01*
X157666599Y-114135075D01*
X157519390Y-114090424D01*
X157289500Y-114211745D01*
X157035500Y-114211745D01*
X156805610Y-114090424D01*
X156658401Y-114135075D01*
X156395580Y-114260259D01*
X156163924Y-114433049D01*
X156165508Y-112812521D01*
X160984678Y-106477492D01*
X160997736Y-106456295D01*
X161006409Y-106432958D01*
X161010560Y-106397415D01*
X160654960Y-92224215D01*
X160651899Y-92199507D01*
X160644077Y-92175872D01*
X160631794Y-92154216D01*
X160615522Y-92135373D01*
X160599774Y-92122626D01*
X154200852Y-87739112D01*
X154186610Y-87368805D01*
X155622100Y-87368805D01*
X155748014Y-87658777D01*
X156080226Y-87824633D01*
X156438412Y-87922490D01*
X156808806Y-87948589D01*
X157177175Y-87901925D01*
X157529362Y-87784294D01*
X157764186Y-87658777D01*
X157890100Y-87368805D01*
X156756100Y-86234805D01*
X155622100Y-87368805D01*
X154186610Y-87368805D01*
X154138114Y-86107906D01*
X154862711Y-86107906D01*
X154909375Y-86476275D01*
X155027006Y-86828462D01*
X155152523Y-87063286D01*
X155442495Y-87189200D01*
X156576495Y-86055200D01*
X156935705Y-86055200D01*
X158069705Y-87189200D01*
X158359677Y-87063286D01*
X158525533Y-86731074D01*
X158623390Y-86372888D01*
X158649489Y-86002494D01*
X158602825Y-85634125D01*
X158485194Y-85281938D01*
X158359677Y-85047114D01*
X158069705Y-84921200D01*
X156935705Y-86055200D01*
X156576495Y-86055200D01*
X155442495Y-84921200D01*
X155152523Y-85047114D01*
X154986667Y-85379326D01*
X154888810Y-85737512D01*
X154862711Y-86107906D01*
X154138114Y-86107906D01*
X154085563Y-84741595D01*
X155622100Y-84741595D01*
X156756100Y-85875595D01*
X157890100Y-84741595D01*
X157764186Y-84451623D01*
X157431974Y-84285767D01*
X157073788Y-84187910D01*
X156703394Y-84161811D01*
X156335025Y-84208475D01*
X155982838Y-84326106D01*
X155748014Y-84451623D01*
X155622100Y-84741595D01*
X154085563Y-84741595D01*
X154027905Y-83242505D01*
X155681748Y-81862320D01*
X166335743Y-87132848D01*
X166335743Y-87132848D01*
G37*
X166335743Y-87132848D02*
X171551679Y-110085498D01*
X171599516Y-118720000D01*
X168656621Y-118720000D01*
X168666657Y-118703152D01*
X168763981Y-118428791D01*
X168643314Y-118198900D01*
X167449500Y-118198900D01*
X167449500Y-118218900D01*
X167195500Y-118218900D01*
X167195500Y-118198900D01*
X164909500Y-118198900D01*
X164909500Y-118218900D01*
X164655500Y-118218900D01*
X164655500Y-118198900D01*
X162369500Y-118198900D01*
X162369500Y-118218900D01*
X162115500Y-118218900D01*
X162115500Y-118198900D01*
X159829500Y-118198900D01*
X159829500Y-118218900D01*
X159575500Y-118218900D01*
X159575500Y-118198900D01*
X157289500Y-118198900D01*
X157289500Y-118218900D01*
X157035500Y-118218900D01*
X157035500Y-118198900D01*
X157015500Y-118198900D01*
X157015500Y-117944900D01*
X157035500Y-117944900D01*
X157035500Y-115658900D01*
X157289500Y-115658900D01*
X157289500Y-117944900D01*
X159575500Y-117944900D01*
X159575500Y-115658900D01*
X159829500Y-115658900D01*
X159829500Y-117944900D01*
X162115500Y-117944900D01*
X162115500Y-115658900D01*
X162369500Y-115658900D01*
X162369500Y-117944900D01*
X164655500Y-117944900D01*
X164655500Y-115658900D01*
X164909500Y-115658900D01*
X164909500Y-117944900D01*
X167195500Y-117944900D01*
X167195500Y-115658900D01*
X167449500Y-115658900D01*
X167449500Y-117944900D01*
X168643314Y-117944900D01*
X168763981Y-117715009D01*
X168666657Y-117440648D01*
X168517678Y-117190545D01*
X168322769Y-116974312D01*
X168091620Y-116801900D01*
X168322769Y-116629488D01*
X168517678Y-116413255D01*
X168666657Y-116163152D01*
X168763981Y-115888791D01*
X168643314Y-115658900D01*
X167449500Y-115658900D01*
X167195500Y-115658900D01*
X164909500Y-115658900D01*
X164655500Y-115658900D01*
X162369500Y-115658900D01*
X162115500Y-115658900D01*
X159829500Y-115658900D01*
X159575500Y-115658900D01*
X157289500Y-115658900D01*
X157035500Y-115658900D01*
X157015500Y-115658900D01*
X157015500Y-115404900D01*
X157035500Y-115404900D01*
X157035500Y-114211745D01*
X157289500Y-114211745D01*
X157289500Y-115404900D01*
X159575500Y-115404900D01*
X159575500Y-114211745D01*
X159829500Y-114211745D01*
X159829500Y-115404900D01*
X162115500Y-115404900D01*
X162115500Y-114211745D01*
X162369500Y-114211745D01*
X162369500Y-115404900D01*
X164655500Y-115404900D01*
X164655500Y-114211745D01*
X164909500Y-114211745D01*
X164909500Y-115404900D01*
X167195500Y-115404900D01*
X167195500Y-114211745D01*
X167449500Y-114211745D01*
X167449500Y-115404900D01*
X168643314Y-115404900D01*
X168763981Y-115175009D01*
X168666657Y-114900648D01*
X168517678Y-114650545D01*
X168322769Y-114434312D01*
X168089420Y-114260259D01*
X167826599Y-114135075D01*
X167679390Y-114090424D01*
X167449500Y-114211745D01*
X167195500Y-114211745D01*
X166965610Y-114090424D01*
X166818401Y-114135075D01*
X166555580Y-114260259D01*
X166322231Y-114434312D01*
X166127322Y-114650545D01*
X166052500Y-114776155D01*
X165977678Y-114650545D01*
X165782769Y-114434312D01*
X165549420Y-114260259D01*
X165286599Y-114135075D01*
X165139390Y-114090424D01*
X164909500Y-114211745D01*
X164655500Y-114211745D01*
X164425610Y-114090424D01*
X164278401Y-114135075D01*
X164015580Y-114260259D01*
X163782231Y-114434312D01*
X163587322Y-114650545D01*
X163512500Y-114776155D01*
X163437678Y-114650545D01*
X163242769Y-114434312D01*
X163009420Y-114260259D01*
X162746599Y-114135075D01*
X162599390Y-114090424D01*
X162369500Y-114211745D01*
X162115500Y-114211745D01*
X161885610Y-114090424D01*
X161738401Y-114135075D01*
X161475580Y-114260259D01*
X161242231Y-114434312D01*
X161047322Y-114650545D01*
X160972500Y-114776155D01*
X160897678Y-114650545D01*
X160702769Y-114434312D01*
X160469420Y-114260259D01*
X160206599Y-114135075D01*
X160059390Y-114090424D01*
X159829500Y-114211745D01*
X159575500Y-114211745D01*
X159345610Y-114090424D01*
X159198401Y-114135075D01*
X158935580Y-114260259D01*
X158702231Y-114434312D01*
X158507322Y-114650545D01*
X158432500Y-114776155D01*
X158357678Y-114650545D01*
X158162769Y-114434312D01*
X157929420Y-114260259D01*
X157666599Y-114135075D01*
X157519390Y-114090424D01*
X157289500Y-114211745D01*
X157035500Y-114211745D01*
X156805610Y-114090424D01*
X156658401Y-114135075D01*
X156395580Y-114260259D01*
X156163924Y-114433049D01*
X156165508Y-112812521D01*
X160984678Y-106477492D01*
X160997736Y-106456295D01*
X161006409Y-106432958D01*
X161010560Y-106397415D01*
X160654960Y-92224215D01*
X160651899Y-92199507D01*
X160644077Y-92175872D01*
X160631794Y-92154216D01*
X160615522Y-92135373D01*
X160599774Y-92122626D01*
X154200852Y-87739112D01*
X154186610Y-87368805D01*
X155622100Y-87368805D01*
X155748014Y-87658777D01*
X156080226Y-87824633D01*
X156438412Y-87922490D01*
X156808806Y-87948589D01*
X157177175Y-87901925D01*
X157529362Y-87784294D01*
X157764186Y-87658777D01*
X157890100Y-87368805D01*
X156756100Y-86234805D01*
X155622100Y-87368805D01*
X154186610Y-87368805D01*
X154138114Y-86107906D01*
X154862711Y-86107906D01*
X154909375Y-86476275D01*
X155027006Y-86828462D01*
X155152523Y-87063286D01*
X155442495Y-87189200D01*
X156576495Y-86055200D01*
X156935705Y-86055200D01*
X158069705Y-87189200D01*
X158359677Y-87063286D01*
X158525533Y-86731074D01*
X158623390Y-86372888D01*
X158649489Y-86002494D01*
X158602825Y-85634125D01*
X158485194Y-85281938D01*
X158359677Y-85047114D01*
X158069705Y-84921200D01*
X156935705Y-86055200D01*
X156576495Y-86055200D01*
X155442495Y-84921200D01*
X155152523Y-85047114D01*
X154986667Y-85379326D01*
X154888810Y-85737512D01*
X154862711Y-86107906D01*
X154138114Y-86107906D01*
X154085563Y-84741595D01*
X155622100Y-84741595D01*
X156756100Y-85875595D01*
X157890100Y-84741595D01*
X157764186Y-84451623D01*
X157431974Y-84285767D01*
X157073788Y-84187910D01*
X156703394Y-84161811D01*
X156335025Y-84208475D01*
X155982838Y-84326106D01*
X155748014Y-84451623D01*
X155622100Y-84741595D01*
X154085563Y-84741595D01*
X154027905Y-83242505D01*
X155681748Y-81862320D01*
X166335743Y-87132848D01*
M02*
