G04 #@! TF.GenerationSoftware,KiCad,Pcbnew,5.1.2-f72e74a~84~ubuntu19.04.1*
G04 #@! TF.CreationDate,2019-05-07T16:21:10-05:00*
G04 #@! TF.ProjectId,Adapter-TE-52,41646170-7465-4722-9d54-452d35322e6b,rev?*
G04 #@! TF.SameCoordinates,Original*
G04 #@! TF.FileFunction,Copper,L2,Bot*
G04 #@! TF.FilePolarity,Positive*
%FSLAX46Y46*%
G04 Gerber Fmt 4.6, Leading zero omitted, Abs format (unit mm)*
G04 Created by KiCad (PCBNEW 5.1.2-f72e74a~84~ubuntu19.04.1) date 2019-05-07 16:21:10*
%MOMM*%
%LPD*%
G04 APERTURE LIST*
%ADD10R,1.700000X1.700000*%
%ADD11O,1.700000X1.700000*%
%ADD12C,2.100000*%
%ADD13C,2.500000*%
%ADD14C,3.200000*%
%ADD15C,3.000000*%
%ADD16C,2.000000*%
%ADD17C,0.254000*%
G04 APERTURE END LIST*
D10*
X103822500Y-115531900D03*
D11*
X103822500Y-118071900D03*
X106362500Y-115531900D03*
X106362500Y-118071900D03*
X108902500Y-115531900D03*
X108902500Y-118071900D03*
X111442500Y-115531900D03*
X111442500Y-118071900D03*
X113982500Y-115531900D03*
X113982500Y-118071900D03*
X116522500Y-115531900D03*
X116522500Y-118071900D03*
X119062500Y-115531900D03*
X119062500Y-118071900D03*
X121602500Y-115531900D03*
X121602500Y-118071900D03*
X124142500Y-115531900D03*
X124142500Y-118071900D03*
X126682500Y-115531900D03*
X126682500Y-118071900D03*
X129222500Y-115531900D03*
X129222500Y-118071900D03*
X131762500Y-115531900D03*
X131762500Y-118071900D03*
X134302500Y-115531900D03*
X134302500Y-118071900D03*
X136842500Y-115531900D03*
X136842500Y-118071900D03*
X139382500Y-115531900D03*
X139382500Y-118071900D03*
X141922500Y-115531900D03*
X141922500Y-118071900D03*
X144462500Y-115531900D03*
X144462500Y-118071900D03*
X147002500Y-115531900D03*
X147002500Y-118071900D03*
X149542500Y-115531900D03*
X149542500Y-118071900D03*
X152082500Y-115531900D03*
X152082500Y-118071900D03*
X154622500Y-115531900D03*
X154622500Y-118071900D03*
X157162500Y-115531900D03*
X157162500Y-118071900D03*
X159702500Y-115531900D03*
X159702500Y-118071900D03*
X162242500Y-115531900D03*
X162242500Y-118071900D03*
X164782500Y-115531900D03*
X164782500Y-118071900D03*
X167322500Y-115531900D03*
X167322500Y-118071900D03*
D12*
X123469400Y-99034600D03*
X126009400Y-99060000D03*
X113309400Y-98983800D03*
X131089400Y-99060000D03*
X133629400Y-99060000D03*
X136169400Y-101600000D03*
X115849400Y-101523800D03*
X133629400Y-101600000D03*
X115849400Y-98983800D03*
X128549400Y-99060000D03*
X118389400Y-101574600D03*
X118389400Y-99034600D03*
X113309400Y-101523800D03*
X123469400Y-101574600D03*
X120929400Y-99034600D03*
X131089400Y-101600000D03*
X128549400Y-101600000D03*
X126009400Y-101600000D03*
X120929400Y-101574600D03*
X136169400Y-99060000D03*
D13*
X151803100Y-101955600D03*
X146773900Y-101955600D03*
X156781500Y-101955600D03*
X141757400Y-101942900D03*
X146748500Y-94005400D03*
X141732000Y-93992700D03*
X151777700Y-94005400D03*
X156756100Y-94005400D03*
X156756100Y-86055200D03*
X151777700Y-86055200D03*
X146748500Y-86055200D03*
X141732000Y-86042500D03*
D12*
X136169400Y-89001600D03*
X136169400Y-86461600D03*
X133629400Y-86461600D03*
X133629400Y-89001600D03*
X131089400Y-89001600D03*
X131089400Y-86461600D03*
X128549400Y-86461600D03*
X128549400Y-89001600D03*
X126009400Y-86461600D03*
X126009400Y-89001600D03*
X123469400Y-88976200D03*
X123469400Y-86436200D03*
X118389400Y-86436200D03*
X120929400Y-88976200D03*
X118389400Y-88976200D03*
X120929400Y-86436200D03*
X115849400Y-86385400D03*
X115849400Y-88925400D03*
X113309400Y-88925400D03*
X113309400Y-86385400D03*
D14*
X162763200Y-82575400D03*
X108966000Y-82575400D03*
D15*
X170192700Y-77330300D03*
X100152200Y-77304900D03*
D13*
X120307100Y-106438700D03*
D16*
X129222500Y-115531900D02*
X129222501Y-115037895D01*
X131497095Y-112763301D02*
X148767800Y-112763300D01*
X151803100Y-109728000D02*
X151803100Y-103723366D01*
X129222501Y-115037895D02*
X131497095Y-112763301D01*
X151803100Y-103723366D02*
X151803100Y-101955600D01*
X148767800Y-112763300D02*
X151803100Y-109728000D01*
X122288301Y-112638244D02*
X128897155Y-106029390D01*
X122288301Y-113644018D02*
X122288301Y-112638244D01*
X121602500Y-114329819D02*
X122288301Y-113644018D01*
X121602500Y-115531900D02*
X121602500Y-114329819D01*
X128897155Y-106029390D02*
X137328010Y-106029390D01*
X137328010Y-106029390D02*
X139065000Y-104292400D01*
X139065000Y-104292400D02*
X139065000Y-93033698D01*
X142743310Y-89355388D02*
X158430688Y-89355388D01*
X139065000Y-93033698D02*
X142743310Y-89355388D01*
X158430688Y-89355388D02*
X159854900Y-90779600D01*
X159854900Y-98882200D02*
X156781500Y-101955600D01*
X159854900Y-90779600D02*
X159854900Y-98882200D01*
X119062500Y-115531900D02*
X119062500Y-107683300D01*
X119062500Y-107683300D02*
X120307100Y-106438700D01*
X130585822Y-110563290D02*
X147157810Y-110563290D01*
X147157810Y-110563290D02*
X149353099Y-108368001D01*
X151777700Y-95773166D02*
X151777700Y-94005400D01*
X126682500Y-115531900D02*
X126688322Y-115526078D01*
X126688322Y-114460790D02*
X130585822Y-110563290D01*
X151777700Y-97484984D02*
X151777700Y-95773166D01*
X149353099Y-99909585D02*
X151777700Y-97484984D01*
X126688322Y-115526078D02*
X126688322Y-114460790D01*
X149353099Y-108368001D02*
X149353099Y-99909585D01*
X144207401Y-100896097D02*
X149327699Y-95775799D01*
X149327699Y-95775799D02*
X149327699Y-92835686D01*
X155506101Y-92755401D02*
X156756100Y-94005400D01*
X150607986Y-91555399D02*
X154306099Y-91555399D01*
X129808428Y-108229400D02*
X142659100Y-108229400D01*
X124488311Y-113549517D02*
X129808428Y-108229400D01*
X149327699Y-92835686D02*
X150607986Y-91555399D01*
X154306099Y-91555399D02*
X155506101Y-92755401D01*
X144207401Y-106681099D02*
X144207401Y-100896097D01*
X142659100Y-108229400D02*
X144207401Y-106681099D01*
X124488311Y-115186089D02*
X124488311Y-113549517D01*
X124142500Y-115531900D02*
X124488311Y-115186089D01*
D17*
G36*
X172060000Y-76282014D02*
G01*
X171851063Y-75969317D01*
X171553683Y-75671937D01*
X171204002Y-75438288D01*
X170815456Y-75277347D01*
X170402979Y-75195300D01*
X169982421Y-75195300D01*
X169569944Y-75277347D01*
X169181398Y-75438288D01*
X168831717Y-75671937D01*
X168534337Y-75969317D01*
X168300688Y-76318998D01*
X168139747Y-76707544D01*
X168057700Y-77120021D01*
X168057700Y-77540579D01*
X168139747Y-77953056D01*
X168300688Y-78341602D01*
X168534337Y-78691283D01*
X168831717Y-78988663D01*
X169181398Y-79222312D01*
X169569944Y-79383253D01*
X169982421Y-79465300D01*
X170402979Y-79465300D01*
X170815456Y-79383253D01*
X171204002Y-79222312D01*
X171553683Y-78988663D01*
X171851063Y-78691283D01*
X172060000Y-78378586D01*
X172060001Y-118720000D01*
X168659906Y-118720000D01*
X168701099Y-118642934D01*
X168786013Y-118363011D01*
X168814685Y-118071900D01*
X168786013Y-117780789D01*
X168701099Y-117500866D01*
X168563206Y-117242886D01*
X168377634Y-117016766D01*
X168151514Y-116831194D01*
X168096709Y-116801900D01*
X168151514Y-116772606D01*
X168377634Y-116587034D01*
X168563206Y-116360914D01*
X168701099Y-116102934D01*
X168786013Y-115823011D01*
X168814685Y-115531900D01*
X168786013Y-115240789D01*
X168701099Y-114960866D01*
X168563206Y-114702886D01*
X168377634Y-114476766D01*
X168151514Y-114291194D01*
X167893534Y-114153301D01*
X167613611Y-114068387D01*
X167395450Y-114046900D01*
X167249550Y-114046900D01*
X167031389Y-114068387D01*
X166751466Y-114153301D01*
X166493486Y-114291194D01*
X166267366Y-114476766D01*
X166081794Y-114702886D01*
X166052500Y-114757691D01*
X166023206Y-114702886D01*
X165837634Y-114476766D01*
X165611514Y-114291194D01*
X165353534Y-114153301D01*
X165073611Y-114068387D01*
X164855450Y-114046900D01*
X164709550Y-114046900D01*
X164491389Y-114068387D01*
X164211466Y-114153301D01*
X163953486Y-114291194D01*
X163727366Y-114476766D01*
X163541794Y-114702886D01*
X163512500Y-114757691D01*
X163483206Y-114702886D01*
X163297634Y-114476766D01*
X163071514Y-114291194D01*
X162813534Y-114153301D01*
X162533611Y-114068387D01*
X162315450Y-114046900D01*
X162169550Y-114046900D01*
X161951389Y-114068387D01*
X161671466Y-114153301D01*
X161413486Y-114291194D01*
X161187366Y-114476766D01*
X161001794Y-114702886D01*
X160972500Y-114757691D01*
X160943206Y-114702886D01*
X160757634Y-114476766D01*
X160531514Y-114291194D01*
X160273534Y-114153301D01*
X159993611Y-114068387D01*
X159775450Y-114046900D01*
X159629550Y-114046900D01*
X159411389Y-114068387D01*
X159131466Y-114153301D01*
X158873486Y-114291194D01*
X158647366Y-114476766D01*
X158461794Y-114702886D01*
X158432500Y-114757691D01*
X158403206Y-114702886D01*
X158217634Y-114476766D01*
X157991514Y-114291194D01*
X157733534Y-114153301D01*
X157453611Y-114068387D01*
X157235450Y-114046900D01*
X157089550Y-114046900D01*
X156871389Y-114068387D01*
X156591466Y-114153301D01*
X156333486Y-114291194D01*
X156107366Y-114476766D01*
X155921794Y-114702886D01*
X155887299Y-114767423D01*
X155817678Y-114650545D01*
X155622769Y-114434312D01*
X155389420Y-114260259D01*
X155126599Y-114135075D01*
X154979390Y-114090424D01*
X154749500Y-114211745D01*
X154749500Y-115404900D01*
X154769500Y-115404900D01*
X154769500Y-115658900D01*
X154749500Y-115658900D01*
X154749500Y-117944900D01*
X154769500Y-117944900D01*
X154769500Y-118198900D01*
X154749500Y-118198900D01*
X154749500Y-118218900D01*
X154495500Y-118218900D01*
X154495500Y-118198900D01*
X152209500Y-118198900D01*
X152209500Y-118218900D01*
X151955500Y-118218900D01*
X151955500Y-118198900D01*
X149669500Y-118198900D01*
X149669500Y-118218900D01*
X149415500Y-118218900D01*
X149415500Y-118198900D01*
X147129500Y-118198900D01*
X147129500Y-118218900D01*
X146875500Y-118218900D01*
X146875500Y-118198900D01*
X144589500Y-118198900D01*
X144589500Y-118218900D01*
X144335500Y-118218900D01*
X144335500Y-118198900D01*
X144315500Y-118198900D01*
X144315500Y-117944900D01*
X144335500Y-117944900D01*
X144335500Y-115658900D01*
X144589500Y-115658900D01*
X144589500Y-117944900D01*
X146875500Y-117944900D01*
X146875500Y-115658900D01*
X147129500Y-115658900D01*
X147129500Y-117944900D01*
X149415500Y-117944900D01*
X149415500Y-115658900D01*
X149669500Y-115658900D01*
X149669500Y-117944900D01*
X151955500Y-117944900D01*
X151955500Y-115658900D01*
X152209500Y-115658900D01*
X152209500Y-117944900D01*
X154495500Y-117944900D01*
X154495500Y-115658900D01*
X152209500Y-115658900D01*
X151955500Y-115658900D01*
X149669500Y-115658900D01*
X149415500Y-115658900D01*
X147129500Y-115658900D01*
X146875500Y-115658900D01*
X144589500Y-115658900D01*
X144335500Y-115658900D01*
X144315500Y-115658900D01*
X144315500Y-115404900D01*
X144335500Y-115404900D01*
X144335500Y-115384900D01*
X144589500Y-115384900D01*
X144589500Y-115404900D01*
X146875500Y-115404900D01*
X146875500Y-115384900D01*
X147129500Y-115384900D01*
X147129500Y-115404900D01*
X149415500Y-115404900D01*
X149415500Y-115384900D01*
X149669500Y-115384900D01*
X149669500Y-115404900D01*
X151955500Y-115404900D01*
X151955500Y-114211745D01*
X152209500Y-114211745D01*
X152209500Y-115404900D01*
X154495500Y-115404900D01*
X154495500Y-114211745D01*
X154265610Y-114090424D01*
X154118401Y-114135075D01*
X153855580Y-114260259D01*
X153622231Y-114434312D01*
X153427322Y-114650545D01*
X153352500Y-114776155D01*
X153277678Y-114650545D01*
X153082769Y-114434312D01*
X152849420Y-114260259D01*
X152586599Y-114135075D01*
X152439390Y-114090424D01*
X152209500Y-114211745D01*
X151955500Y-114211745D01*
X151725610Y-114090424D01*
X151578401Y-114135075D01*
X151315580Y-114260259D01*
X151082231Y-114434312D01*
X150887322Y-114650545D01*
X150812500Y-114776155D01*
X150737678Y-114650545D01*
X150542769Y-114434312D01*
X150309420Y-114260259D01*
X150046599Y-114135075D01*
X149899390Y-114090424D01*
X149669502Y-114211744D01*
X149669502Y-114135236D01*
X149680552Y-114129330D01*
X149727959Y-114090424D01*
X149929514Y-113925013D01*
X149980720Y-113862618D01*
X152902420Y-110940919D01*
X152964814Y-110889714D01*
X153169131Y-110640752D01*
X153320952Y-110356715D01*
X153414443Y-110048516D01*
X153438100Y-109808322D01*
X153438100Y-109808320D01*
X153446011Y-109728001D01*
X153438100Y-109647681D01*
X153438100Y-102901561D01*
X153473566Y-102848482D01*
X153615661Y-102505434D01*
X153688100Y-102141256D01*
X153688100Y-101769944D01*
X153615661Y-101405766D01*
X153473566Y-101062718D01*
X153267275Y-100753982D01*
X153004718Y-100491425D01*
X152695982Y-100285134D01*
X152352934Y-100143039D01*
X151988756Y-100070600D01*
X151617444Y-100070600D01*
X151476235Y-100098688D01*
X152877025Y-98697899D01*
X152939414Y-98646698D01*
X153143731Y-98397736D01*
X153295552Y-98113699D01*
X153389043Y-97805500D01*
X153412700Y-97565306D01*
X153412700Y-97565305D01*
X153420611Y-97484984D01*
X153412700Y-97404662D01*
X153412700Y-94951361D01*
X153448166Y-94898282D01*
X153590261Y-94555234D01*
X153662700Y-94191056D01*
X153662700Y-93819744D01*
X153590261Y-93455566D01*
X153480425Y-93190399D01*
X153628861Y-93190399D01*
X154406777Y-93968316D01*
X154406782Y-93968320D01*
X154931085Y-94492624D01*
X154943539Y-94555234D01*
X155085634Y-94898282D01*
X155291925Y-95207018D01*
X155554482Y-95469575D01*
X155863218Y-95675866D01*
X156206266Y-95817961D01*
X156570444Y-95890400D01*
X156941756Y-95890400D01*
X157305934Y-95817961D01*
X157648982Y-95675866D01*
X157957718Y-95469575D01*
X158219901Y-95207392D01*
X158219901Y-98204960D01*
X156294277Y-100130585D01*
X156231666Y-100143039D01*
X155888618Y-100285134D01*
X155579882Y-100491425D01*
X155317325Y-100753982D01*
X155111034Y-101062718D01*
X154968939Y-101405766D01*
X154896500Y-101769944D01*
X154896500Y-102141256D01*
X154968939Y-102505434D01*
X155111034Y-102848482D01*
X155317325Y-103157218D01*
X155579882Y-103419775D01*
X155888618Y-103626066D01*
X156231666Y-103768161D01*
X156595844Y-103840600D01*
X156967156Y-103840600D01*
X157331334Y-103768161D01*
X157674382Y-103626066D01*
X157983118Y-103419775D01*
X158245675Y-103157218D01*
X158451966Y-102848482D01*
X158594061Y-102505434D01*
X158606515Y-102442823D01*
X160954219Y-100095120D01*
X161016614Y-100043914D01*
X161220931Y-99794952D01*
X161372752Y-99510915D01*
X161466243Y-99202716D01*
X161489900Y-98962522D01*
X161489900Y-98962520D01*
X161497811Y-98882200D01*
X161489900Y-98801881D01*
X161489900Y-90859919D01*
X161497811Y-90779600D01*
X161488651Y-90686600D01*
X161466243Y-90459084D01*
X161372752Y-90150885D01*
X161220931Y-89866848D01*
X161016614Y-89617886D01*
X160954219Y-89566681D01*
X159643612Y-88256074D01*
X159592402Y-88193674D01*
X159343440Y-87989357D01*
X159059403Y-87837536D01*
X158751204Y-87744045D01*
X158511010Y-87720388D01*
X158511007Y-87720388D01*
X158430688Y-87712477D01*
X158350369Y-87720388D01*
X157656881Y-87720388D01*
X157957718Y-87519375D01*
X158220275Y-87256818D01*
X158426566Y-86948082D01*
X158568661Y-86605034D01*
X158641100Y-86240856D01*
X158641100Y-85869544D01*
X158568661Y-85505366D01*
X158426566Y-85162318D01*
X158220275Y-84853582D01*
X157957718Y-84591025D01*
X157648982Y-84384734D01*
X157305934Y-84242639D01*
X156941756Y-84170200D01*
X156570444Y-84170200D01*
X156206266Y-84242639D01*
X155863218Y-84384734D01*
X155554482Y-84591025D01*
X155291925Y-84853582D01*
X155085634Y-85162318D01*
X154943539Y-85505366D01*
X154871100Y-85869544D01*
X154871100Y-86240856D01*
X154943539Y-86605034D01*
X155085634Y-86948082D01*
X155291925Y-87256818D01*
X155554482Y-87519375D01*
X155855319Y-87720388D01*
X152670521Y-87720388D01*
X152785786Y-87658777D01*
X152911700Y-87368805D01*
X151777700Y-86234805D01*
X150643700Y-87368805D01*
X150769614Y-87658777D01*
X150893022Y-87720388D01*
X147649281Y-87720388D01*
X147950118Y-87519375D01*
X148212675Y-87256818D01*
X148418966Y-86948082D01*
X148561061Y-86605034D01*
X148633500Y-86240856D01*
X148633500Y-86107906D01*
X149884311Y-86107906D01*
X149930975Y-86476275D01*
X150048606Y-86828462D01*
X150174123Y-87063286D01*
X150464095Y-87189200D01*
X151598095Y-86055200D01*
X151957305Y-86055200D01*
X153091305Y-87189200D01*
X153381277Y-87063286D01*
X153547133Y-86731074D01*
X153644990Y-86372888D01*
X153671089Y-86002494D01*
X153624425Y-85634125D01*
X153506794Y-85281938D01*
X153381277Y-85047114D01*
X153091305Y-84921200D01*
X151957305Y-86055200D01*
X151598095Y-86055200D01*
X150464095Y-84921200D01*
X150174123Y-85047114D01*
X150008267Y-85379326D01*
X149910410Y-85737512D01*
X149884311Y-86107906D01*
X148633500Y-86107906D01*
X148633500Y-85869544D01*
X148561061Y-85505366D01*
X148418966Y-85162318D01*
X148212675Y-84853582D01*
X148100688Y-84741595D01*
X150643700Y-84741595D01*
X151777700Y-85875595D01*
X152911700Y-84741595D01*
X152785786Y-84451623D01*
X152453574Y-84285767D01*
X152095388Y-84187910D01*
X151724994Y-84161811D01*
X151356625Y-84208475D01*
X151004438Y-84326106D01*
X150769614Y-84451623D01*
X150643700Y-84741595D01*
X148100688Y-84741595D01*
X147950118Y-84591025D01*
X147641382Y-84384734D01*
X147298334Y-84242639D01*
X146934156Y-84170200D01*
X146562844Y-84170200D01*
X146198666Y-84242639D01*
X145855618Y-84384734D01*
X145546882Y-84591025D01*
X145284325Y-84853582D01*
X145078034Y-85162318D01*
X144935939Y-85505366D01*
X144863500Y-85869544D01*
X144863500Y-86240856D01*
X144935939Y-86605034D01*
X145078034Y-86948082D01*
X145284325Y-87256818D01*
X145546882Y-87519375D01*
X145847719Y-87720388D01*
X142823629Y-87720388D01*
X142743310Y-87712477D01*
X142662990Y-87720388D01*
X142662988Y-87720388D01*
X142589487Y-87727627D01*
X142624882Y-87712966D01*
X142933618Y-87506675D01*
X143196175Y-87244118D01*
X143402466Y-86935382D01*
X143544561Y-86592334D01*
X143617000Y-86228156D01*
X143617000Y-85856844D01*
X143544561Y-85492666D01*
X143402466Y-85149618D01*
X143196175Y-84840882D01*
X142933618Y-84578325D01*
X142624882Y-84372034D01*
X142281834Y-84229939D01*
X141917656Y-84157500D01*
X141546344Y-84157500D01*
X141182166Y-84229939D01*
X140839118Y-84372034D01*
X140530382Y-84578325D01*
X140267825Y-84840882D01*
X140061534Y-85149618D01*
X139919439Y-85492666D01*
X139847000Y-85856844D01*
X139847000Y-86228156D01*
X139919439Y-86592334D01*
X140061534Y-86935382D01*
X140267825Y-87244118D01*
X140530382Y-87506675D01*
X140839118Y-87712966D01*
X141182166Y-87855061D01*
X141546344Y-87927500D01*
X141917656Y-87927500D01*
X141963252Y-87918430D01*
X141830558Y-87989357D01*
X141581596Y-88193674D01*
X141530390Y-88256069D01*
X137965682Y-91820778D01*
X137903287Y-91871984D01*
X137709841Y-92107700D01*
X137698970Y-92120946D01*
X137547148Y-92404984D01*
X137453658Y-92713182D01*
X137422089Y-93033698D01*
X137430001Y-93114027D01*
X137430001Y-97937651D01*
X137243525Y-97751175D01*
X136967547Y-97566772D01*
X136660896Y-97439754D01*
X136335358Y-97375000D01*
X136003442Y-97375000D01*
X135677904Y-97439754D01*
X135371253Y-97566772D01*
X135095275Y-97751175D01*
X134899400Y-97947050D01*
X134703525Y-97751175D01*
X134427547Y-97566772D01*
X134120896Y-97439754D01*
X133795358Y-97375000D01*
X133463442Y-97375000D01*
X133137904Y-97439754D01*
X132831253Y-97566772D01*
X132555275Y-97751175D01*
X132359400Y-97947050D01*
X132163525Y-97751175D01*
X131887547Y-97566772D01*
X131580896Y-97439754D01*
X131255358Y-97375000D01*
X130923442Y-97375000D01*
X130597904Y-97439754D01*
X130291253Y-97566772D01*
X130015275Y-97751175D01*
X129819400Y-97947050D01*
X129623525Y-97751175D01*
X129347547Y-97566772D01*
X129040896Y-97439754D01*
X128715358Y-97375000D01*
X128383442Y-97375000D01*
X128057904Y-97439754D01*
X127751253Y-97566772D01*
X127475275Y-97751175D01*
X127279400Y-97947050D01*
X127083525Y-97751175D01*
X126807547Y-97566772D01*
X126500896Y-97439754D01*
X126175358Y-97375000D01*
X125843442Y-97375000D01*
X125517904Y-97439754D01*
X125211253Y-97566772D01*
X124935275Y-97751175D01*
X124752100Y-97934350D01*
X124543525Y-97725775D01*
X124267547Y-97541372D01*
X123960896Y-97414354D01*
X123635358Y-97349600D01*
X123303442Y-97349600D01*
X122977904Y-97414354D01*
X122671253Y-97541372D01*
X122395275Y-97725775D01*
X122199400Y-97921650D01*
X122003525Y-97725775D01*
X121727547Y-97541372D01*
X121420896Y-97414354D01*
X121095358Y-97349600D01*
X120763442Y-97349600D01*
X120437904Y-97414354D01*
X120131253Y-97541372D01*
X119855275Y-97725775D01*
X119659400Y-97921650D01*
X119463525Y-97725775D01*
X119187547Y-97541372D01*
X118880896Y-97414354D01*
X118555358Y-97349600D01*
X118223442Y-97349600D01*
X117897904Y-97414354D01*
X117591253Y-97541372D01*
X117315275Y-97725775D01*
X117144800Y-97896250D01*
X116923525Y-97674975D01*
X116647547Y-97490572D01*
X116340896Y-97363554D01*
X116015358Y-97298800D01*
X115683442Y-97298800D01*
X115357904Y-97363554D01*
X115051253Y-97490572D01*
X114775275Y-97674975D01*
X114579400Y-97870850D01*
X114383525Y-97674975D01*
X114107547Y-97490572D01*
X113800896Y-97363554D01*
X113475358Y-97298800D01*
X113143442Y-97298800D01*
X112817904Y-97363554D01*
X112511253Y-97490572D01*
X112235275Y-97674975D01*
X112000575Y-97909675D01*
X111816172Y-98185653D01*
X111689154Y-98492304D01*
X111624400Y-98817842D01*
X111624400Y-99149758D01*
X111689154Y-99475296D01*
X111816172Y-99781947D01*
X112000575Y-100057925D01*
X112196450Y-100253800D01*
X112000575Y-100449675D01*
X111816172Y-100725653D01*
X111689154Y-101032304D01*
X111624400Y-101357842D01*
X111624400Y-101689758D01*
X111689154Y-102015296D01*
X111816172Y-102321947D01*
X112000575Y-102597925D01*
X112235275Y-102832625D01*
X112511253Y-103017028D01*
X112817904Y-103144046D01*
X113143442Y-103208800D01*
X113475358Y-103208800D01*
X113800896Y-103144046D01*
X114107547Y-103017028D01*
X114383525Y-102832625D01*
X114579400Y-102636750D01*
X114775275Y-102832625D01*
X115051253Y-103017028D01*
X115357904Y-103144046D01*
X115683442Y-103208800D01*
X116015358Y-103208800D01*
X116340896Y-103144046D01*
X116647547Y-103017028D01*
X116923525Y-102832625D01*
X117010484Y-102745666D01*
X117397939Y-102745666D01*
X117499739Y-103015179D01*
X117797877Y-103161063D01*
X118118746Y-103245980D01*
X118450017Y-103266666D01*
X118778957Y-103222328D01*
X119092927Y-103114669D01*
X119279061Y-103015179D01*
X119380861Y-102745666D01*
X118389400Y-101754205D01*
X117397939Y-102745666D01*
X117010484Y-102745666D01*
X117158225Y-102597925D01*
X117187339Y-102554353D01*
X117218334Y-102566061D01*
X118209795Y-101574600D01*
X117305939Y-100670744D01*
X117158225Y-100449675D01*
X116962350Y-100253800D01*
X117094000Y-100122150D01*
X117315275Y-100343425D01*
X117399409Y-100399642D01*
X117397939Y-100403534D01*
X118389400Y-101394995D01*
X119380861Y-100403534D01*
X119379391Y-100399642D01*
X119463525Y-100343425D01*
X119659400Y-100147550D01*
X119816450Y-100304600D01*
X119620575Y-100500475D01*
X119564358Y-100584609D01*
X119560466Y-100583139D01*
X118569005Y-101574600D01*
X119560466Y-102566061D01*
X119564358Y-102564591D01*
X119620575Y-102648725D01*
X119855275Y-102883425D01*
X120131253Y-103067828D01*
X120437904Y-103194846D01*
X120763442Y-103259600D01*
X121095358Y-103259600D01*
X121420896Y-103194846D01*
X121727547Y-103067828D01*
X122003525Y-102883425D01*
X122199400Y-102687550D01*
X122395275Y-102883425D01*
X122671253Y-103067828D01*
X122977904Y-103194846D01*
X123303442Y-103259600D01*
X123635358Y-103259600D01*
X123960896Y-103194846D01*
X124267547Y-103067828D01*
X124543525Y-102883425D01*
X124726700Y-102700250D01*
X124935275Y-102908825D01*
X125211253Y-103093228D01*
X125517904Y-103220246D01*
X125843442Y-103285000D01*
X126175358Y-103285000D01*
X126500896Y-103220246D01*
X126807547Y-103093228D01*
X127083525Y-102908825D01*
X127279400Y-102712950D01*
X127475275Y-102908825D01*
X127751253Y-103093228D01*
X128057904Y-103220246D01*
X128383442Y-103285000D01*
X128715358Y-103285000D01*
X129040896Y-103220246D01*
X129347547Y-103093228D01*
X129623525Y-102908825D01*
X129819400Y-102712950D01*
X130015275Y-102908825D01*
X130291253Y-103093228D01*
X130597904Y-103220246D01*
X130923442Y-103285000D01*
X131255358Y-103285000D01*
X131580896Y-103220246D01*
X131887547Y-103093228D01*
X132163525Y-102908825D01*
X132359400Y-102712950D01*
X132555275Y-102908825D01*
X132831253Y-103093228D01*
X133137904Y-103220246D01*
X133463442Y-103285000D01*
X133795358Y-103285000D01*
X134120896Y-103220246D01*
X134427547Y-103093228D01*
X134703525Y-102908825D01*
X134899400Y-102712950D01*
X135095275Y-102908825D01*
X135371253Y-103093228D01*
X135677904Y-103220246D01*
X136003442Y-103285000D01*
X136335358Y-103285000D01*
X136660896Y-103220246D01*
X136967547Y-103093228D01*
X137243525Y-102908825D01*
X137430000Y-102722350D01*
X137430000Y-103615161D01*
X136650772Y-104394390D01*
X128977474Y-104394390D01*
X128897155Y-104386479D01*
X128816835Y-104394390D01*
X128816833Y-104394390D01*
X128576639Y-104418047D01*
X128268440Y-104511538D01*
X127984403Y-104663359D01*
X127735441Y-104867676D01*
X127684235Y-104930071D01*
X121188983Y-111425324D01*
X121126588Y-111476530D01*
X120922271Y-111725492D01*
X120770449Y-112009529D01*
X120697500Y-112250010D01*
X120697500Y-108360538D01*
X120794324Y-108263715D01*
X120856934Y-108251261D01*
X121199982Y-108109166D01*
X121508718Y-107902875D01*
X121771275Y-107640318D01*
X121977566Y-107331582D01*
X122119661Y-106988534D01*
X122192100Y-106624356D01*
X122192100Y-106253044D01*
X122119661Y-105888866D01*
X121977566Y-105545818D01*
X121771275Y-105237082D01*
X121508718Y-104974525D01*
X121199982Y-104768234D01*
X120856934Y-104626139D01*
X120492756Y-104553700D01*
X120121444Y-104553700D01*
X119757266Y-104626139D01*
X119414218Y-104768234D01*
X119105482Y-104974525D01*
X118842925Y-105237082D01*
X118636634Y-105545818D01*
X118494539Y-105888866D01*
X118482085Y-105951476D01*
X117963182Y-106470380D01*
X117900787Y-106521586D01*
X117769878Y-106681100D01*
X117696470Y-106770548D01*
X117544648Y-107054586D01*
X117451158Y-107362784D01*
X117419589Y-107683300D01*
X117427501Y-107763629D01*
X117427500Y-114353554D01*
X117351514Y-114291194D01*
X117093534Y-114153301D01*
X116813611Y-114068387D01*
X116595450Y-114046900D01*
X116449550Y-114046900D01*
X116231389Y-114068387D01*
X115951466Y-114153301D01*
X115693486Y-114291194D01*
X115467366Y-114476766D01*
X115281794Y-114702886D01*
X115247299Y-114767423D01*
X115177678Y-114650545D01*
X114982769Y-114434312D01*
X114749420Y-114260259D01*
X114486599Y-114135075D01*
X114339390Y-114090424D01*
X114109500Y-114211745D01*
X114109500Y-115404900D01*
X114129500Y-115404900D01*
X114129500Y-115658900D01*
X114109500Y-115658900D01*
X114109500Y-117944900D01*
X114129500Y-117944900D01*
X114129500Y-118198900D01*
X114109500Y-118198900D01*
X114109500Y-118218900D01*
X113855500Y-118218900D01*
X113855500Y-118198900D01*
X113835500Y-118198900D01*
X113835500Y-117944900D01*
X113855500Y-117944900D01*
X113855500Y-115658900D01*
X113835500Y-115658900D01*
X113835500Y-115404900D01*
X113855500Y-115404900D01*
X113855500Y-114211745D01*
X113625610Y-114090424D01*
X113478401Y-114135075D01*
X113215580Y-114260259D01*
X112982231Y-114434312D01*
X112787322Y-114650545D01*
X112717701Y-114767423D01*
X112683206Y-114702886D01*
X112497634Y-114476766D01*
X112271514Y-114291194D01*
X112013534Y-114153301D01*
X111733611Y-114068387D01*
X111515450Y-114046900D01*
X111369550Y-114046900D01*
X111151389Y-114068387D01*
X110871466Y-114153301D01*
X110613486Y-114291194D01*
X110387366Y-114476766D01*
X110201794Y-114702886D01*
X110172500Y-114757691D01*
X110143206Y-114702886D01*
X109957634Y-114476766D01*
X109731514Y-114291194D01*
X109473534Y-114153301D01*
X109193611Y-114068387D01*
X108975450Y-114046900D01*
X108829550Y-114046900D01*
X108611389Y-114068387D01*
X108331466Y-114153301D01*
X108073486Y-114291194D01*
X107847366Y-114476766D01*
X107661794Y-114702886D01*
X107632500Y-114757691D01*
X107603206Y-114702886D01*
X107417634Y-114476766D01*
X107191514Y-114291194D01*
X106933534Y-114153301D01*
X106653611Y-114068387D01*
X106435450Y-114046900D01*
X106289550Y-114046900D01*
X106071389Y-114068387D01*
X105791466Y-114153301D01*
X105533486Y-114291194D01*
X105307366Y-114476766D01*
X105282893Y-114506587D01*
X105262002Y-114437720D01*
X105203037Y-114327406D01*
X105123685Y-114230715D01*
X105026994Y-114151363D01*
X104916680Y-114092398D01*
X104796982Y-114056088D01*
X104672500Y-114043828D01*
X102972500Y-114043828D01*
X102848018Y-114056088D01*
X102728320Y-114092398D01*
X102618006Y-114151363D01*
X102521315Y-114230715D01*
X102441963Y-114327406D01*
X102382998Y-114437720D01*
X102346688Y-114557418D01*
X102334428Y-114681900D01*
X102334428Y-116381900D01*
X102346688Y-116506382D01*
X102382998Y-116626080D01*
X102441963Y-116736394D01*
X102521315Y-116833085D01*
X102618006Y-116912437D01*
X102728320Y-116971402D01*
X102797187Y-116992293D01*
X102767366Y-117016766D01*
X102581794Y-117242886D01*
X102443901Y-117500866D01*
X102358987Y-117780789D01*
X102330315Y-118071900D01*
X102358987Y-118363011D01*
X102443901Y-118642934D01*
X102485094Y-118720000D01*
X98373800Y-118720000D01*
X98373800Y-86219442D01*
X111624400Y-86219442D01*
X111624400Y-86551358D01*
X111689154Y-86876896D01*
X111816172Y-87183547D01*
X112000575Y-87459525D01*
X112196450Y-87655400D01*
X112000575Y-87851275D01*
X111816172Y-88127253D01*
X111689154Y-88433904D01*
X111624400Y-88759442D01*
X111624400Y-89091358D01*
X111689154Y-89416896D01*
X111816172Y-89723547D01*
X112000575Y-89999525D01*
X112235275Y-90234225D01*
X112511253Y-90418628D01*
X112817904Y-90545646D01*
X113143442Y-90610400D01*
X113475358Y-90610400D01*
X113800896Y-90545646D01*
X114107547Y-90418628D01*
X114383525Y-90234225D01*
X114579400Y-90038350D01*
X114775275Y-90234225D01*
X115051253Y-90418628D01*
X115357904Y-90545646D01*
X115683442Y-90610400D01*
X116015358Y-90610400D01*
X116340896Y-90545646D01*
X116647547Y-90418628D01*
X116923525Y-90234225D01*
X117094000Y-90063750D01*
X117315275Y-90285025D01*
X117591253Y-90469428D01*
X117897904Y-90596446D01*
X118223442Y-90661200D01*
X118555358Y-90661200D01*
X118880896Y-90596446D01*
X119187547Y-90469428D01*
X119463525Y-90285025D01*
X119659400Y-90089150D01*
X119855275Y-90285025D01*
X120131253Y-90469428D01*
X120437904Y-90596446D01*
X120763442Y-90661200D01*
X121095358Y-90661200D01*
X121420896Y-90596446D01*
X121727547Y-90469428D01*
X122003525Y-90285025D01*
X122199400Y-90089150D01*
X122395275Y-90285025D01*
X122671253Y-90469428D01*
X122977904Y-90596446D01*
X123303442Y-90661200D01*
X123635358Y-90661200D01*
X123960896Y-90596446D01*
X124267547Y-90469428D01*
X124543525Y-90285025D01*
X124726700Y-90101850D01*
X124935275Y-90310425D01*
X125211253Y-90494828D01*
X125517904Y-90621846D01*
X125843442Y-90686600D01*
X126175358Y-90686600D01*
X126500896Y-90621846D01*
X126807547Y-90494828D01*
X127083525Y-90310425D01*
X127279400Y-90114550D01*
X127475275Y-90310425D01*
X127751253Y-90494828D01*
X128057904Y-90621846D01*
X128383442Y-90686600D01*
X128715358Y-90686600D01*
X129040896Y-90621846D01*
X129347547Y-90494828D01*
X129623525Y-90310425D01*
X129819400Y-90114550D01*
X130015275Y-90310425D01*
X130291253Y-90494828D01*
X130597904Y-90621846D01*
X130923442Y-90686600D01*
X131255358Y-90686600D01*
X131580896Y-90621846D01*
X131887547Y-90494828D01*
X132163525Y-90310425D01*
X132359400Y-90114550D01*
X132555275Y-90310425D01*
X132831253Y-90494828D01*
X133137904Y-90621846D01*
X133463442Y-90686600D01*
X133795358Y-90686600D01*
X134120896Y-90621846D01*
X134427547Y-90494828D01*
X134703525Y-90310425D01*
X134899400Y-90114550D01*
X135095275Y-90310425D01*
X135371253Y-90494828D01*
X135677904Y-90621846D01*
X136003442Y-90686600D01*
X136335358Y-90686600D01*
X136660896Y-90621846D01*
X136967547Y-90494828D01*
X137243525Y-90310425D01*
X137478225Y-90075725D01*
X137662628Y-89799747D01*
X137789646Y-89493096D01*
X137854400Y-89167558D01*
X137854400Y-88835642D01*
X137789646Y-88510104D01*
X137662628Y-88203453D01*
X137478225Y-87927475D01*
X137282350Y-87731600D01*
X137478225Y-87535725D01*
X137662628Y-87259747D01*
X137789646Y-86953096D01*
X137854400Y-86627558D01*
X137854400Y-86295642D01*
X137789646Y-85970104D01*
X137662628Y-85663453D01*
X137478225Y-85387475D01*
X137243525Y-85152775D01*
X136967547Y-84968372D01*
X136660896Y-84841354D01*
X136335358Y-84776600D01*
X136003442Y-84776600D01*
X135677904Y-84841354D01*
X135371253Y-84968372D01*
X135095275Y-85152775D01*
X134899400Y-85348650D01*
X134703525Y-85152775D01*
X134427547Y-84968372D01*
X134120896Y-84841354D01*
X133795358Y-84776600D01*
X133463442Y-84776600D01*
X133137904Y-84841354D01*
X132831253Y-84968372D01*
X132555275Y-85152775D01*
X132359400Y-85348650D01*
X132163525Y-85152775D01*
X131887547Y-84968372D01*
X131580896Y-84841354D01*
X131255358Y-84776600D01*
X130923442Y-84776600D01*
X130597904Y-84841354D01*
X130291253Y-84968372D01*
X130015275Y-85152775D01*
X129819400Y-85348650D01*
X129623525Y-85152775D01*
X129347547Y-84968372D01*
X129040896Y-84841354D01*
X128715358Y-84776600D01*
X128383442Y-84776600D01*
X128057904Y-84841354D01*
X127751253Y-84968372D01*
X127475275Y-85152775D01*
X127279400Y-85348650D01*
X127083525Y-85152775D01*
X126807547Y-84968372D01*
X126500896Y-84841354D01*
X126175358Y-84776600D01*
X125843442Y-84776600D01*
X125517904Y-84841354D01*
X125211253Y-84968372D01*
X124935275Y-85152775D01*
X124752100Y-85335950D01*
X124543525Y-85127375D01*
X124267547Y-84942972D01*
X123960896Y-84815954D01*
X123635358Y-84751200D01*
X123303442Y-84751200D01*
X122977904Y-84815954D01*
X122671253Y-84942972D01*
X122395275Y-85127375D01*
X122199400Y-85323250D01*
X122003525Y-85127375D01*
X121727547Y-84942972D01*
X121420896Y-84815954D01*
X121095358Y-84751200D01*
X120763442Y-84751200D01*
X120437904Y-84815954D01*
X120131253Y-84942972D01*
X119855275Y-85127375D01*
X119659400Y-85323250D01*
X119463525Y-85127375D01*
X119187547Y-84942972D01*
X118880896Y-84815954D01*
X118555358Y-84751200D01*
X118223442Y-84751200D01*
X117897904Y-84815954D01*
X117591253Y-84942972D01*
X117315275Y-85127375D01*
X117144800Y-85297850D01*
X116923525Y-85076575D01*
X116647547Y-84892172D01*
X116340896Y-84765154D01*
X116015358Y-84700400D01*
X115683442Y-84700400D01*
X115357904Y-84765154D01*
X115051253Y-84892172D01*
X114775275Y-85076575D01*
X114579400Y-85272450D01*
X114383525Y-85076575D01*
X114107547Y-84892172D01*
X113800896Y-84765154D01*
X113475358Y-84700400D01*
X113143442Y-84700400D01*
X112817904Y-84765154D01*
X112511253Y-84892172D01*
X112235275Y-85076575D01*
X112000575Y-85311275D01*
X111816172Y-85587253D01*
X111689154Y-85893904D01*
X111624400Y-86219442D01*
X98373800Y-86219442D01*
X98373800Y-82355272D01*
X106731000Y-82355272D01*
X106731000Y-82795528D01*
X106816890Y-83227325D01*
X106985369Y-83634069D01*
X107229962Y-84000129D01*
X107541271Y-84311438D01*
X107907331Y-84556031D01*
X108314075Y-84724510D01*
X108745872Y-84810400D01*
X109186128Y-84810400D01*
X109617925Y-84724510D01*
X110024669Y-84556031D01*
X110390729Y-84311438D01*
X110702038Y-84000129D01*
X110946631Y-83634069D01*
X111115110Y-83227325D01*
X111201000Y-82795528D01*
X111201000Y-82355272D01*
X160528200Y-82355272D01*
X160528200Y-82795528D01*
X160614090Y-83227325D01*
X160782569Y-83634069D01*
X161027162Y-84000129D01*
X161338471Y-84311438D01*
X161704531Y-84556031D01*
X162111275Y-84724510D01*
X162543072Y-84810400D01*
X162983328Y-84810400D01*
X163415125Y-84724510D01*
X163821869Y-84556031D01*
X164187929Y-84311438D01*
X164499238Y-84000129D01*
X164743831Y-83634069D01*
X164912310Y-83227325D01*
X164998200Y-82795528D01*
X164998200Y-82355272D01*
X164912310Y-81923475D01*
X164743831Y-81516731D01*
X164499238Y-81150671D01*
X164187929Y-80839362D01*
X163821869Y-80594769D01*
X163415125Y-80426290D01*
X162983328Y-80340400D01*
X162543072Y-80340400D01*
X162111275Y-80426290D01*
X161704531Y-80594769D01*
X161338471Y-80839362D01*
X161027162Y-81150671D01*
X160782569Y-81516731D01*
X160614090Y-81923475D01*
X160528200Y-82355272D01*
X111201000Y-82355272D01*
X111115110Y-81923475D01*
X110946631Y-81516731D01*
X110702038Y-81150671D01*
X110390729Y-80839362D01*
X110024669Y-80594769D01*
X109617925Y-80426290D01*
X109186128Y-80340400D01*
X108745872Y-80340400D01*
X108314075Y-80426290D01*
X107907331Y-80594769D01*
X107541271Y-80839362D01*
X107229962Y-81150671D01*
X106985369Y-81516731D01*
X106816890Y-81923475D01*
X106731000Y-82355272D01*
X98373800Y-82355272D01*
X98373800Y-78486235D01*
X98493837Y-78665883D01*
X98791217Y-78963263D01*
X99140898Y-79196912D01*
X99529444Y-79357853D01*
X99941921Y-79439900D01*
X100362479Y-79439900D01*
X100774956Y-79357853D01*
X101163502Y-79196912D01*
X101513183Y-78963263D01*
X101810563Y-78665883D01*
X102044212Y-78316202D01*
X102205153Y-77927656D01*
X102287200Y-77515179D01*
X102287200Y-77094621D01*
X102205153Y-76682144D01*
X102044212Y-76293598D01*
X101810563Y-75943917D01*
X101513183Y-75646537D01*
X101163502Y-75412888D01*
X100774956Y-75251947D01*
X100362479Y-75169900D01*
X99941921Y-75169900D01*
X99529444Y-75251947D01*
X99140898Y-75412888D01*
X98791217Y-75646537D01*
X98493837Y-75943917D01*
X98373800Y-76123565D01*
X98373800Y-74955000D01*
X172060000Y-74955000D01*
X172060000Y-76282014D01*
X172060000Y-76282014D01*
G37*
X172060000Y-76282014D02*
X171851063Y-75969317D01*
X171553683Y-75671937D01*
X171204002Y-75438288D01*
X170815456Y-75277347D01*
X170402979Y-75195300D01*
X169982421Y-75195300D01*
X169569944Y-75277347D01*
X169181398Y-75438288D01*
X168831717Y-75671937D01*
X168534337Y-75969317D01*
X168300688Y-76318998D01*
X168139747Y-76707544D01*
X168057700Y-77120021D01*
X168057700Y-77540579D01*
X168139747Y-77953056D01*
X168300688Y-78341602D01*
X168534337Y-78691283D01*
X168831717Y-78988663D01*
X169181398Y-79222312D01*
X169569944Y-79383253D01*
X169982421Y-79465300D01*
X170402979Y-79465300D01*
X170815456Y-79383253D01*
X171204002Y-79222312D01*
X171553683Y-78988663D01*
X171851063Y-78691283D01*
X172060000Y-78378586D01*
X172060001Y-118720000D01*
X168659906Y-118720000D01*
X168701099Y-118642934D01*
X168786013Y-118363011D01*
X168814685Y-118071900D01*
X168786013Y-117780789D01*
X168701099Y-117500866D01*
X168563206Y-117242886D01*
X168377634Y-117016766D01*
X168151514Y-116831194D01*
X168096709Y-116801900D01*
X168151514Y-116772606D01*
X168377634Y-116587034D01*
X168563206Y-116360914D01*
X168701099Y-116102934D01*
X168786013Y-115823011D01*
X168814685Y-115531900D01*
X168786013Y-115240789D01*
X168701099Y-114960866D01*
X168563206Y-114702886D01*
X168377634Y-114476766D01*
X168151514Y-114291194D01*
X167893534Y-114153301D01*
X167613611Y-114068387D01*
X167395450Y-114046900D01*
X167249550Y-114046900D01*
X167031389Y-114068387D01*
X166751466Y-114153301D01*
X166493486Y-114291194D01*
X166267366Y-114476766D01*
X166081794Y-114702886D01*
X166052500Y-114757691D01*
X166023206Y-114702886D01*
X165837634Y-114476766D01*
X165611514Y-114291194D01*
X165353534Y-114153301D01*
X165073611Y-114068387D01*
X164855450Y-114046900D01*
X164709550Y-114046900D01*
X164491389Y-114068387D01*
X164211466Y-114153301D01*
X163953486Y-114291194D01*
X163727366Y-114476766D01*
X163541794Y-114702886D01*
X163512500Y-114757691D01*
X163483206Y-114702886D01*
X163297634Y-114476766D01*
X163071514Y-114291194D01*
X162813534Y-114153301D01*
X162533611Y-114068387D01*
X162315450Y-114046900D01*
X162169550Y-114046900D01*
X161951389Y-114068387D01*
X161671466Y-114153301D01*
X161413486Y-114291194D01*
X161187366Y-114476766D01*
X161001794Y-114702886D01*
X160972500Y-114757691D01*
X160943206Y-114702886D01*
X160757634Y-114476766D01*
X160531514Y-114291194D01*
X160273534Y-114153301D01*
X159993611Y-114068387D01*
X159775450Y-114046900D01*
X159629550Y-114046900D01*
X159411389Y-114068387D01*
X159131466Y-114153301D01*
X158873486Y-114291194D01*
X158647366Y-114476766D01*
X158461794Y-114702886D01*
X158432500Y-114757691D01*
X158403206Y-114702886D01*
X158217634Y-114476766D01*
X157991514Y-114291194D01*
X157733534Y-114153301D01*
X157453611Y-114068387D01*
X157235450Y-114046900D01*
X157089550Y-114046900D01*
X156871389Y-114068387D01*
X156591466Y-114153301D01*
X156333486Y-114291194D01*
X156107366Y-114476766D01*
X155921794Y-114702886D01*
X155887299Y-114767423D01*
X155817678Y-114650545D01*
X155622769Y-114434312D01*
X155389420Y-114260259D01*
X155126599Y-114135075D01*
X154979390Y-114090424D01*
X154749500Y-114211745D01*
X154749500Y-115404900D01*
X154769500Y-115404900D01*
X154769500Y-115658900D01*
X154749500Y-115658900D01*
X154749500Y-117944900D01*
X154769500Y-117944900D01*
X154769500Y-118198900D01*
X154749500Y-118198900D01*
X154749500Y-118218900D01*
X154495500Y-118218900D01*
X154495500Y-118198900D01*
X152209500Y-118198900D01*
X152209500Y-118218900D01*
X151955500Y-118218900D01*
X151955500Y-118198900D01*
X149669500Y-118198900D01*
X149669500Y-118218900D01*
X149415500Y-118218900D01*
X149415500Y-118198900D01*
X147129500Y-118198900D01*
X147129500Y-118218900D01*
X146875500Y-118218900D01*
X146875500Y-118198900D01*
X144589500Y-118198900D01*
X144589500Y-118218900D01*
X144335500Y-118218900D01*
X144335500Y-118198900D01*
X144315500Y-118198900D01*
X144315500Y-117944900D01*
X144335500Y-117944900D01*
X144335500Y-115658900D01*
X144589500Y-115658900D01*
X144589500Y-117944900D01*
X146875500Y-117944900D01*
X146875500Y-115658900D01*
X147129500Y-115658900D01*
X147129500Y-117944900D01*
X149415500Y-117944900D01*
X149415500Y-115658900D01*
X149669500Y-115658900D01*
X149669500Y-117944900D01*
X151955500Y-117944900D01*
X151955500Y-115658900D01*
X152209500Y-115658900D01*
X152209500Y-117944900D01*
X154495500Y-117944900D01*
X154495500Y-115658900D01*
X152209500Y-115658900D01*
X151955500Y-115658900D01*
X149669500Y-115658900D01*
X149415500Y-115658900D01*
X147129500Y-115658900D01*
X146875500Y-115658900D01*
X144589500Y-115658900D01*
X144335500Y-115658900D01*
X144315500Y-115658900D01*
X144315500Y-115404900D01*
X144335500Y-115404900D01*
X144335500Y-115384900D01*
X144589500Y-115384900D01*
X144589500Y-115404900D01*
X146875500Y-115404900D01*
X146875500Y-115384900D01*
X147129500Y-115384900D01*
X147129500Y-115404900D01*
X149415500Y-115404900D01*
X149415500Y-115384900D01*
X149669500Y-115384900D01*
X149669500Y-115404900D01*
X151955500Y-115404900D01*
X151955500Y-114211745D01*
X152209500Y-114211745D01*
X152209500Y-115404900D01*
X154495500Y-115404900D01*
X154495500Y-114211745D01*
X154265610Y-114090424D01*
X154118401Y-114135075D01*
X153855580Y-114260259D01*
X153622231Y-114434312D01*
X153427322Y-114650545D01*
X153352500Y-114776155D01*
X153277678Y-114650545D01*
X153082769Y-114434312D01*
X152849420Y-114260259D01*
X152586599Y-114135075D01*
X152439390Y-114090424D01*
X152209500Y-114211745D01*
X151955500Y-114211745D01*
X151725610Y-114090424D01*
X151578401Y-114135075D01*
X151315580Y-114260259D01*
X151082231Y-114434312D01*
X150887322Y-114650545D01*
X150812500Y-114776155D01*
X150737678Y-114650545D01*
X150542769Y-114434312D01*
X150309420Y-114260259D01*
X150046599Y-114135075D01*
X149899390Y-114090424D01*
X149669502Y-114211744D01*
X149669502Y-114135236D01*
X149680552Y-114129330D01*
X149727959Y-114090424D01*
X149929514Y-113925013D01*
X149980720Y-113862618D01*
X152902420Y-110940919D01*
X152964814Y-110889714D01*
X153169131Y-110640752D01*
X153320952Y-110356715D01*
X153414443Y-110048516D01*
X153438100Y-109808322D01*
X153438100Y-109808320D01*
X153446011Y-109728001D01*
X153438100Y-109647681D01*
X153438100Y-102901561D01*
X153473566Y-102848482D01*
X153615661Y-102505434D01*
X153688100Y-102141256D01*
X153688100Y-101769944D01*
X153615661Y-101405766D01*
X153473566Y-101062718D01*
X153267275Y-100753982D01*
X153004718Y-100491425D01*
X152695982Y-100285134D01*
X152352934Y-100143039D01*
X151988756Y-100070600D01*
X151617444Y-100070600D01*
X151476235Y-100098688D01*
X152877025Y-98697899D01*
X152939414Y-98646698D01*
X153143731Y-98397736D01*
X153295552Y-98113699D01*
X153389043Y-97805500D01*
X153412700Y-97565306D01*
X153412700Y-97565305D01*
X153420611Y-97484984D01*
X153412700Y-97404662D01*
X153412700Y-94951361D01*
X153448166Y-94898282D01*
X153590261Y-94555234D01*
X153662700Y-94191056D01*
X153662700Y-93819744D01*
X153590261Y-93455566D01*
X153480425Y-93190399D01*
X153628861Y-93190399D01*
X154406777Y-93968316D01*
X154406782Y-93968320D01*
X154931085Y-94492624D01*
X154943539Y-94555234D01*
X155085634Y-94898282D01*
X155291925Y-95207018D01*
X155554482Y-95469575D01*
X155863218Y-95675866D01*
X156206266Y-95817961D01*
X156570444Y-95890400D01*
X156941756Y-95890400D01*
X157305934Y-95817961D01*
X157648982Y-95675866D01*
X157957718Y-95469575D01*
X158219901Y-95207392D01*
X158219901Y-98204960D01*
X156294277Y-100130585D01*
X156231666Y-100143039D01*
X155888618Y-100285134D01*
X155579882Y-100491425D01*
X155317325Y-100753982D01*
X155111034Y-101062718D01*
X154968939Y-101405766D01*
X154896500Y-101769944D01*
X154896500Y-102141256D01*
X154968939Y-102505434D01*
X155111034Y-102848482D01*
X155317325Y-103157218D01*
X155579882Y-103419775D01*
X155888618Y-103626066D01*
X156231666Y-103768161D01*
X156595844Y-103840600D01*
X156967156Y-103840600D01*
X157331334Y-103768161D01*
X157674382Y-103626066D01*
X157983118Y-103419775D01*
X158245675Y-103157218D01*
X158451966Y-102848482D01*
X158594061Y-102505434D01*
X158606515Y-102442823D01*
X160954219Y-100095120D01*
X161016614Y-100043914D01*
X161220931Y-99794952D01*
X161372752Y-99510915D01*
X161466243Y-99202716D01*
X161489900Y-98962522D01*
X161489900Y-98962520D01*
X161497811Y-98882200D01*
X161489900Y-98801881D01*
X161489900Y-90859919D01*
X161497811Y-90779600D01*
X161488651Y-90686600D01*
X161466243Y-90459084D01*
X161372752Y-90150885D01*
X161220931Y-89866848D01*
X161016614Y-89617886D01*
X160954219Y-89566681D01*
X159643612Y-88256074D01*
X159592402Y-88193674D01*
X159343440Y-87989357D01*
X159059403Y-87837536D01*
X158751204Y-87744045D01*
X158511010Y-87720388D01*
X158511007Y-87720388D01*
X158430688Y-87712477D01*
X158350369Y-87720388D01*
X157656881Y-87720388D01*
X157957718Y-87519375D01*
X158220275Y-87256818D01*
X158426566Y-86948082D01*
X158568661Y-86605034D01*
X158641100Y-86240856D01*
X158641100Y-85869544D01*
X158568661Y-85505366D01*
X158426566Y-85162318D01*
X158220275Y-84853582D01*
X157957718Y-84591025D01*
X157648982Y-84384734D01*
X157305934Y-84242639D01*
X156941756Y-84170200D01*
X156570444Y-84170200D01*
X156206266Y-84242639D01*
X155863218Y-84384734D01*
X155554482Y-84591025D01*
X155291925Y-84853582D01*
X155085634Y-85162318D01*
X154943539Y-85505366D01*
X154871100Y-85869544D01*
X154871100Y-86240856D01*
X154943539Y-86605034D01*
X155085634Y-86948082D01*
X155291925Y-87256818D01*
X155554482Y-87519375D01*
X155855319Y-87720388D01*
X152670521Y-87720388D01*
X152785786Y-87658777D01*
X152911700Y-87368805D01*
X151777700Y-86234805D01*
X150643700Y-87368805D01*
X150769614Y-87658777D01*
X150893022Y-87720388D01*
X147649281Y-87720388D01*
X147950118Y-87519375D01*
X148212675Y-87256818D01*
X148418966Y-86948082D01*
X148561061Y-86605034D01*
X148633500Y-86240856D01*
X148633500Y-86107906D01*
X149884311Y-86107906D01*
X149930975Y-86476275D01*
X150048606Y-86828462D01*
X150174123Y-87063286D01*
X150464095Y-87189200D01*
X151598095Y-86055200D01*
X151957305Y-86055200D01*
X153091305Y-87189200D01*
X153381277Y-87063286D01*
X153547133Y-86731074D01*
X153644990Y-86372888D01*
X153671089Y-86002494D01*
X153624425Y-85634125D01*
X153506794Y-85281938D01*
X153381277Y-85047114D01*
X153091305Y-84921200D01*
X151957305Y-86055200D01*
X151598095Y-86055200D01*
X150464095Y-84921200D01*
X150174123Y-85047114D01*
X150008267Y-85379326D01*
X149910410Y-85737512D01*
X149884311Y-86107906D01*
X148633500Y-86107906D01*
X148633500Y-85869544D01*
X148561061Y-85505366D01*
X148418966Y-85162318D01*
X148212675Y-84853582D01*
X148100688Y-84741595D01*
X150643700Y-84741595D01*
X151777700Y-85875595D01*
X152911700Y-84741595D01*
X152785786Y-84451623D01*
X152453574Y-84285767D01*
X152095388Y-84187910D01*
X151724994Y-84161811D01*
X151356625Y-84208475D01*
X151004438Y-84326106D01*
X150769614Y-84451623D01*
X150643700Y-84741595D01*
X148100688Y-84741595D01*
X147950118Y-84591025D01*
X147641382Y-84384734D01*
X147298334Y-84242639D01*
X146934156Y-84170200D01*
X146562844Y-84170200D01*
X146198666Y-84242639D01*
X145855618Y-84384734D01*
X145546882Y-84591025D01*
X145284325Y-84853582D01*
X145078034Y-85162318D01*
X144935939Y-85505366D01*
X144863500Y-85869544D01*
X144863500Y-86240856D01*
X144935939Y-86605034D01*
X145078034Y-86948082D01*
X145284325Y-87256818D01*
X145546882Y-87519375D01*
X145847719Y-87720388D01*
X142823629Y-87720388D01*
X142743310Y-87712477D01*
X142662990Y-87720388D01*
X142662988Y-87720388D01*
X142589487Y-87727627D01*
X142624882Y-87712966D01*
X142933618Y-87506675D01*
X143196175Y-87244118D01*
X143402466Y-86935382D01*
X143544561Y-86592334D01*
X143617000Y-86228156D01*
X143617000Y-85856844D01*
X143544561Y-85492666D01*
X143402466Y-85149618D01*
X143196175Y-84840882D01*
X142933618Y-84578325D01*
X142624882Y-84372034D01*
X142281834Y-84229939D01*
X141917656Y-84157500D01*
X141546344Y-84157500D01*
X141182166Y-84229939D01*
X140839118Y-84372034D01*
X140530382Y-84578325D01*
X140267825Y-84840882D01*
X140061534Y-85149618D01*
X139919439Y-85492666D01*
X139847000Y-85856844D01*
X139847000Y-86228156D01*
X139919439Y-86592334D01*
X140061534Y-86935382D01*
X140267825Y-87244118D01*
X140530382Y-87506675D01*
X140839118Y-87712966D01*
X141182166Y-87855061D01*
X141546344Y-87927500D01*
X141917656Y-87927500D01*
X141963252Y-87918430D01*
X141830558Y-87989357D01*
X141581596Y-88193674D01*
X141530390Y-88256069D01*
X137965682Y-91820778D01*
X137903287Y-91871984D01*
X137709841Y-92107700D01*
X137698970Y-92120946D01*
X137547148Y-92404984D01*
X137453658Y-92713182D01*
X137422089Y-93033698D01*
X137430001Y-93114027D01*
X137430001Y-97937651D01*
X137243525Y-97751175D01*
X136967547Y-97566772D01*
X136660896Y-97439754D01*
X136335358Y-97375000D01*
X136003442Y-97375000D01*
X135677904Y-97439754D01*
X135371253Y-97566772D01*
X135095275Y-97751175D01*
X134899400Y-97947050D01*
X134703525Y-97751175D01*
X134427547Y-97566772D01*
X134120896Y-97439754D01*
X133795358Y-97375000D01*
X133463442Y-97375000D01*
X133137904Y-97439754D01*
X132831253Y-97566772D01*
X132555275Y-97751175D01*
X132359400Y-97947050D01*
X132163525Y-97751175D01*
X131887547Y-97566772D01*
X131580896Y-97439754D01*
X131255358Y-97375000D01*
X130923442Y-97375000D01*
X130597904Y-97439754D01*
X130291253Y-97566772D01*
X130015275Y-97751175D01*
X129819400Y-97947050D01*
X129623525Y-97751175D01*
X129347547Y-97566772D01*
X129040896Y-97439754D01*
X128715358Y-97375000D01*
X128383442Y-97375000D01*
X128057904Y-97439754D01*
X127751253Y-97566772D01*
X127475275Y-97751175D01*
X127279400Y-97947050D01*
X127083525Y-97751175D01*
X126807547Y-97566772D01*
X126500896Y-97439754D01*
X126175358Y-97375000D01*
X125843442Y-97375000D01*
X125517904Y-97439754D01*
X125211253Y-97566772D01*
X124935275Y-97751175D01*
X124752100Y-97934350D01*
X124543525Y-97725775D01*
X124267547Y-97541372D01*
X123960896Y-97414354D01*
X123635358Y-97349600D01*
X123303442Y-97349600D01*
X122977904Y-97414354D01*
X122671253Y-97541372D01*
X122395275Y-97725775D01*
X122199400Y-97921650D01*
X122003525Y-97725775D01*
X121727547Y-97541372D01*
X121420896Y-97414354D01*
X121095358Y-97349600D01*
X120763442Y-97349600D01*
X120437904Y-97414354D01*
X120131253Y-97541372D01*
X119855275Y-97725775D01*
X119659400Y-97921650D01*
X119463525Y-97725775D01*
X119187547Y-97541372D01*
X118880896Y-97414354D01*
X118555358Y-97349600D01*
X118223442Y-97349600D01*
X117897904Y-97414354D01*
X117591253Y-97541372D01*
X117315275Y-97725775D01*
X117144800Y-97896250D01*
X116923525Y-97674975D01*
X116647547Y-97490572D01*
X116340896Y-97363554D01*
X116015358Y-97298800D01*
X115683442Y-97298800D01*
X115357904Y-97363554D01*
X115051253Y-97490572D01*
X114775275Y-97674975D01*
X114579400Y-97870850D01*
X114383525Y-97674975D01*
X114107547Y-97490572D01*
X113800896Y-97363554D01*
X113475358Y-97298800D01*
X113143442Y-97298800D01*
X112817904Y-97363554D01*
X112511253Y-97490572D01*
X112235275Y-97674975D01*
X112000575Y-97909675D01*
X111816172Y-98185653D01*
X111689154Y-98492304D01*
X111624400Y-98817842D01*
X111624400Y-99149758D01*
X111689154Y-99475296D01*
X111816172Y-99781947D01*
X112000575Y-100057925D01*
X112196450Y-100253800D01*
X112000575Y-100449675D01*
X111816172Y-100725653D01*
X111689154Y-101032304D01*
X111624400Y-101357842D01*
X111624400Y-101689758D01*
X111689154Y-102015296D01*
X111816172Y-102321947D01*
X112000575Y-102597925D01*
X112235275Y-102832625D01*
X112511253Y-103017028D01*
X112817904Y-103144046D01*
X113143442Y-103208800D01*
X113475358Y-103208800D01*
X113800896Y-103144046D01*
X114107547Y-103017028D01*
X114383525Y-102832625D01*
X114579400Y-102636750D01*
X114775275Y-102832625D01*
X115051253Y-103017028D01*
X115357904Y-103144046D01*
X115683442Y-103208800D01*
X116015358Y-103208800D01*
X116340896Y-103144046D01*
X116647547Y-103017028D01*
X116923525Y-102832625D01*
X117010484Y-102745666D01*
X117397939Y-102745666D01*
X117499739Y-103015179D01*
X117797877Y-103161063D01*
X118118746Y-103245980D01*
X118450017Y-103266666D01*
X118778957Y-103222328D01*
X119092927Y-103114669D01*
X119279061Y-103015179D01*
X119380861Y-102745666D01*
X118389400Y-101754205D01*
X117397939Y-102745666D01*
X117010484Y-102745666D01*
X117158225Y-102597925D01*
X117187339Y-102554353D01*
X117218334Y-102566061D01*
X118209795Y-101574600D01*
X117305939Y-100670744D01*
X117158225Y-100449675D01*
X116962350Y-100253800D01*
X117094000Y-100122150D01*
X117315275Y-100343425D01*
X117399409Y-100399642D01*
X117397939Y-100403534D01*
X118389400Y-101394995D01*
X119380861Y-100403534D01*
X119379391Y-100399642D01*
X119463525Y-100343425D01*
X119659400Y-100147550D01*
X119816450Y-100304600D01*
X119620575Y-100500475D01*
X119564358Y-100584609D01*
X119560466Y-100583139D01*
X118569005Y-101574600D01*
X119560466Y-102566061D01*
X119564358Y-102564591D01*
X119620575Y-102648725D01*
X119855275Y-102883425D01*
X120131253Y-103067828D01*
X120437904Y-103194846D01*
X120763442Y-103259600D01*
X121095358Y-103259600D01*
X121420896Y-103194846D01*
X121727547Y-103067828D01*
X122003525Y-102883425D01*
X122199400Y-102687550D01*
X122395275Y-102883425D01*
X122671253Y-103067828D01*
X122977904Y-103194846D01*
X123303442Y-103259600D01*
X123635358Y-103259600D01*
X123960896Y-103194846D01*
X124267547Y-103067828D01*
X124543525Y-102883425D01*
X124726700Y-102700250D01*
X124935275Y-102908825D01*
X125211253Y-103093228D01*
X125517904Y-103220246D01*
X125843442Y-103285000D01*
X126175358Y-103285000D01*
X126500896Y-103220246D01*
X126807547Y-103093228D01*
X127083525Y-102908825D01*
X127279400Y-102712950D01*
X127475275Y-102908825D01*
X127751253Y-103093228D01*
X128057904Y-103220246D01*
X128383442Y-103285000D01*
X128715358Y-103285000D01*
X129040896Y-103220246D01*
X129347547Y-103093228D01*
X129623525Y-102908825D01*
X129819400Y-102712950D01*
X130015275Y-102908825D01*
X130291253Y-103093228D01*
X130597904Y-103220246D01*
X130923442Y-103285000D01*
X131255358Y-103285000D01*
X131580896Y-103220246D01*
X131887547Y-103093228D01*
X132163525Y-102908825D01*
X132359400Y-102712950D01*
X132555275Y-102908825D01*
X132831253Y-103093228D01*
X133137904Y-103220246D01*
X133463442Y-103285000D01*
X133795358Y-103285000D01*
X134120896Y-103220246D01*
X134427547Y-103093228D01*
X134703525Y-102908825D01*
X134899400Y-102712950D01*
X135095275Y-102908825D01*
X135371253Y-103093228D01*
X135677904Y-103220246D01*
X136003442Y-103285000D01*
X136335358Y-103285000D01*
X136660896Y-103220246D01*
X136967547Y-103093228D01*
X137243525Y-102908825D01*
X137430000Y-102722350D01*
X137430000Y-103615161D01*
X136650772Y-104394390D01*
X128977474Y-104394390D01*
X128897155Y-104386479D01*
X128816835Y-104394390D01*
X128816833Y-104394390D01*
X128576639Y-104418047D01*
X128268440Y-104511538D01*
X127984403Y-104663359D01*
X127735441Y-104867676D01*
X127684235Y-104930071D01*
X121188983Y-111425324D01*
X121126588Y-111476530D01*
X120922271Y-111725492D01*
X120770449Y-112009529D01*
X120697500Y-112250010D01*
X120697500Y-108360538D01*
X120794324Y-108263715D01*
X120856934Y-108251261D01*
X121199982Y-108109166D01*
X121508718Y-107902875D01*
X121771275Y-107640318D01*
X121977566Y-107331582D01*
X122119661Y-106988534D01*
X122192100Y-106624356D01*
X122192100Y-106253044D01*
X122119661Y-105888866D01*
X121977566Y-105545818D01*
X121771275Y-105237082D01*
X121508718Y-104974525D01*
X121199982Y-104768234D01*
X120856934Y-104626139D01*
X120492756Y-104553700D01*
X120121444Y-104553700D01*
X119757266Y-104626139D01*
X119414218Y-104768234D01*
X119105482Y-104974525D01*
X118842925Y-105237082D01*
X118636634Y-105545818D01*
X118494539Y-105888866D01*
X118482085Y-105951476D01*
X117963182Y-106470380D01*
X117900787Y-106521586D01*
X117769878Y-106681100D01*
X117696470Y-106770548D01*
X117544648Y-107054586D01*
X117451158Y-107362784D01*
X117419589Y-107683300D01*
X117427501Y-107763629D01*
X117427500Y-114353554D01*
X117351514Y-114291194D01*
X117093534Y-114153301D01*
X116813611Y-114068387D01*
X116595450Y-114046900D01*
X116449550Y-114046900D01*
X116231389Y-114068387D01*
X115951466Y-114153301D01*
X115693486Y-114291194D01*
X115467366Y-114476766D01*
X115281794Y-114702886D01*
X115247299Y-114767423D01*
X115177678Y-114650545D01*
X114982769Y-114434312D01*
X114749420Y-114260259D01*
X114486599Y-114135075D01*
X114339390Y-114090424D01*
X114109500Y-114211745D01*
X114109500Y-115404900D01*
X114129500Y-115404900D01*
X114129500Y-115658900D01*
X114109500Y-115658900D01*
X114109500Y-117944900D01*
X114129500Y-117944900D01*
X114129500Y-118198900D01*
X114109500Y-118198900D01*
X114109500Y-118218900D01*
X113855500Y-118218900D01*
X113855500Y-118198900D01*
X113835500Y-118198900D01*
X113835500Y-117944900D01*
X113855500Y-117944900D01*
X113855500Y-115658900D01*
X113835500Y-115658900D01*
X113835500Y-115404900D01*
X113855500Y-115404900D01*
X113855500Y-114211745D01*
X113625610Y-114090424D01*
X113478401Y-114135075D01*
X113215580Y-114260259D01*
X112982231Y-114434312D01*
X112787322Y-114650545D01*
X112717701Y-114767423D01*
X112683206Y-114702886D01*
X112497634Y-114476766D01*
X112271514Y-114291194D01*
X112013534Y-114153301D01*
X111733611Y-114068387D01*
X111515450Y-114046900D01*
X111369550Y-114046900D01*
X111151389Y-114068387D01*
X110871466Y-114153301D01*
X110613486Y-114291194D01*
X110387366Y-114476766D01*
X110201794Y-114702886D01*
X110172500Y-114757691D01*
X110143206Y-114702886D01*
X109957634Y-114476766D01*
X109731514Y-114291194D01*
X109473534Y-114153301D01*
X109193611Y-114068387D01*
X108975450Y-114046900D01*
X108829550Y-114046900D01*
X108611389Y-114068387D01*
X108331466Y-114153301D01*
X108073486Y-114291194D01*
X107847366Y-114476766D01*
X107661794Y-114702886D01*
X107632500Y-114757691D01*
X107603206Y-114702886D01*
X107417634Y-114476766D01*
X107191514Y-114291194D01*
X106933534Y-114153301D01*
X106653611Y-114068387D01*
X106435450Y-114046900D01*
X106289550Y-114046900D01*
X106071389Y-114068387D01*
X105791466Y-114153301D01*
X105533486Y-114291194D01*
X105307366Y-114476766D01*
X105282893Y-114506587D01*
X105262002Y-114437720D01*
X105203037Y-114327406D01*
X105123685Y-114230715D01*
X105026994Y-114151363D01*
X104916680Y-114092398D01*
X104796982Y-114056088D01*
X104672500Y-114043828D01*
X102972500Y-114043828D01*
X102848018Y-114056088D01*
X102728320Y-114092398D01*
X102618006Y-114151363D01*
X102521315Y-114230715D01*
X102441963Y-114327406D01*
X102382998Y-114437720D01*
X102346688Y-114557418D01*
X102334428Y-114681900D01*
X102334428Y-116381900D01*
X102346688Y-116506382D01*
X102382998Y-116626080D01*
X102441963Y-116736394D01*
X102521315Y-116833085D01*
X102618006Y-116912437D01*
X102728320Y-116971402D01*
X102797187Y-116992293D01*
X102767366Y-117016766D01*
X102581794Y-117242886D01*
X102443901Y-117500866D01*
X102358987Y-117780789D01*
X102330315Y-118071900D01*
X102358987Y-118363011D01*
X102443901Y-118642934D01*
X102485094Y-118720000D01*
X98373800Y-118720000D01*
X98373800Y-86219442D01*
X111624400Y-86219442D01*
X111624400Y-86551358D01*
X111689154Y-86876896D01*
X111816172Y-87183547D01*
X112000575Y-87459525D01*
X112196450Y-87655400D01*
X112000575Y-87851275D01*
X111816172Y-88127253D01*
X111689154Y-88433904D01*
X111624400Y-88759442D01*
X111624400Y-89091358D01*
X111689154Y-89416896D01*
X111816172Y-89723547D01*
X112000575Y-89999525D01*
X112235275Y-90234225D01*
X112511253Y-90418628D01*
X112817904Y-90545646D01*
X113143442Y-90610400D01*
X113475358Y-90610400D01*
X113800896Y-90545646D01*
X114107547Y-90418628D01*
X114383525Y-90234225D01*
X114579400Y-90038350D01*
X114775275Y-90234225D01*
X115051253Y-90418628D01*
X115357904Y-90545646D01*
X115683442Y-90610400D01*
X116015358Y-90610400D01*
X116340896Y-90545646D01*
X116647547Y-90418628D01*
X116923525Y-90234225D01*
X117094000Y-90063750D01*
X117315275Y-90285025D01*
X117591253Y-90469428D01*
X117897904Y-90596446D01*
X118223442Y-90661200D01*
X118555358Y-90661200D01*
X118880896Y-90596446D01*
X119187547Y-90469428D01*
X119463525Y-90285025D01*
X119659400Y-90089150D01*
X119855275Y-90285025D01*
X120131253Y-90469428D01*
X120437904Y-90596446D01*
X120763442Y-90661200D01*
X121095358Y-90661200D01*
X121420896Y-90596446D01*
X121727547Y-90469428D01*
X122003525Y-90285025D01*
X122199400Y-90089150D01*
X122395275Y-90285025D01*
X122671253Y-90469428D01*
X122977904Y-90596446D01*
X123303442Y-90661200D01*
X123635358Y-90661200D01*
X123960896Y-90596446D01*
X124267547Y-90469428D01*
X124543525Y-90285025D01*
X124726700Y-90101850D01*
X124935275Y-90310425D01*
X125211253Y-90494828D01*
X125517904Y-90621846D01*
X125843442Y-90686600D01*
X126175358Y-90686600D01*
X126500896Y-90621846D01*
X126807547Y-90494828D01*
X127083525Y-90310425D01*
X127279400Y-90114550D01*
X127475275Y-90310425D01*
X127751253Y-90494828D01*
X128057904Y-90621846D01*
X128383442Y-90686600D01*
X128715358Y-90686600D01*
X129040896Y-90621846D01*
X129347547Y-90494828D01*
X129623525Y-90310425D01*
X129819400Y-90114550D01*
X130015275Y-90310425D01*
X130291253Y-90494828D01*
X130597904Y-90621846D01*
X130923442Y-90686600D01*
X131255358Y-90686600D01*
X131580896Y-90621846D01*
X131887547Y-90494828D01*
X132163525Y-90310425D01*
X132359400Y-90114550D01*
X132555275Y-90310425D01*
X132831253Y-90494828D01*
X133137904Y-90621846D01*
X133463442Y-90686600D01*
X133795358Y-90686600D01*
X134120896Y-90621846D01*
X134427547Y-90494828D01*
X134703525Y-90310425D01*
X134899400Y-90114550D01*
X135095275Y-90310425D01*
X135371253Y-90494828D01*
X135677904Y-90621846D01*
X136003442Y-90686600D01*
X136335358Y-90686600D01*
X136660896Y-90621846D01*
X136967547Y-90494828D01*
X137243525Y-90310425D01*
X137478225Y-90075725D01*
X137662628Y-89799747D01*
X137789646Y-89493096D01*
X137854400Y-89167558D01*
X137854400Y-88835642D01*
X137789646Y-88510104D01*
X137662628Y-88203453D01*
X137478225Y-87927475D01*
X137282350Y-87731600D01*
X137478225Y-87535725D01*
X137662628Y-87259747D01*
X137789646Y-86953096D01*
X137854400Y-86627558D01*
X137854400Y-86295642D01*
X137789646Y-85970104D01*
X137662628Y-85663453D01*
X137478225Y-85387475D01*
X137243525Y-85152775D01*
X136967547Y-84968372D01*
X136660896Y-84841354D01*
X136335358Y-84776600D01*
X136003442Y-84776600D01*
X135677904Y-84841354D01*
X135371253Y-84968372D01*
X135095275Y-85152775D01*
X134899400Y-85348650D01*
X134703525Y-85152775D01*
X134427547Y-84968372D01*
X134120896Y-84841354D01*
X133795358Y-84776600D01*
X133463442Y-84776600D01*
X133137904Y-84841354D01*
X132831253Y-84968372D01*
X132555275Y-85152775D01*
X132359400Y-85348650D01*
X132163525Y-85152775D01*
X131887547Y-84968372D01*
X131580896Y-84841354D01*
X131255358Y-84776600D01*
X130923442Y-84776600D01*
X130597904Y-84841354D01*
X130291253Y-84968372D01*
X130015275Y-85152775D01*
X129819400Y-85348650D01*
X129623525Y-85152775D01*
X129347547Y-84968372D01*
X129040896Y-84841354D01*
X128715358Y-84776600D01*
X128383442Y-84776600D01*
X128057904Y-84841354D01*
X127751253Y-84968372D01*
X127475275Y-85152775D01*
X127279400Y-85348650D01*
X127083525Y-85152775D01*
X126807547Y-84968372D01*
X126500896Y-84841354D01*
X126175358Y-84776600D01*
X125843442Y-84776600D01*
X125517904Y-84841354D01*
X125211253Y-84968372D01*
X124935275Y-85152775D01*
X124752100Y-85335950D01*
X124543525Y-85127375D01*
X124267547Y-84942972D01*
X123960896Y-84815954D01*
X123635358Y-84751200D01*
X123303442Y-84751200D01*
X122977904Y-84815954D01*
X122671253Y-84942972D01*
X122395275Y-85127375D01*
X122199400Y-85323250D01*
X122003525Y-85127375D01*
X121727547Y-84942972D01*
X121420896Y-84815954D01*
X121095358Y-84751200D01*
X120763442Y-84751200D01*
X120437904Y-84815954D01*
X120131253Y-84942972D01*
X119855275Y-85127375D01*
X119659400Y-85323250D01*
X119463525Y-85127375D01*
X119187547Y-84942972D01*
X118880896Y-84815954D01*
X118555358Y-84751200D01*
X118223442Y-84751200D01*
X117897904Y-84815954D01*
X117591253Y-84942972D01*
X117315275Y-85127375D01*
X117144800Y-85297850D01*
X116923525Y-85076575D01*
X116647547Y-84892172D01*
X116340896Y-84765154D01*
X116015358Y-84700400D01*
X115683442Y-84700400D01*
X115357904Y-84765154D01*
X115051253Y-84892172D01*
X114775275Y-85076575D01*
X114579400Y-85272450D01*
X114383525Y-85076575D01*
X114107547Y-84892172D01*
X113800896Y-84765154D01*
X113475358Y-84700400D01*
X113143442Y-84700400D01*
X112817904Y-84765154D01*
X112511253Y-84892172D01*
X112235275Y-85076575D01*
X112000575Y-85311275D01*
X111816172Y-85587253D01*
X111689154Y-85893904D01*
X111624400Y-86219442D01*
X98373800Y-86219442D01*
X98373800Y-82355272D01*
X106731000Y-82355272D01*
X106731000Y-82795528D01*
X106816890Y-83227325D01*
X106985369Y-83634069D01*
X107229962Y-84000129D01*
X107541271Y-84311438D01*
X107907331Y-84556031D01*
X108314075Y-84724510D01*
X108745872Y-84810400D01*
X109186128Y-84810400D01*
X109617925Y-84724510D01*
X110024669Y-84556031D01*
X110390729Y-84311438D01*
X110702038Y-84000129D01*
X110946631Y-83634069D01*
X111115110Y-83227325D01*
X111201000Y-82795528D01*
X111201000Y-82355272D01*
X160528200Y-82355272D01*
X160528200Y-82795528D01*
X160614090Y-83227325D01*
X160782569Y-83634069D01*
X161027162Y-84000129D01*
X161338471Y-84311438D01*
X161704531Y-84556031D01*
X162111275Y-84724510D01*
X162543072Y-84810400D01*
X162983328Y-84810400D01*
X163415125Y-84724510D01*
X163821869Y-84556031D01*
X164187929Y-84311438D01*
X164499238Y-84000129D01*
X164743831Y-83634069D01*
X164912310Y-83227325D01*
X164998200Y-82795528D01*
X164998200Y-82355272D01*
X164912310Y-81923475D01*
X164743831Y-81516731D01*
X164499238Y-81150671D01*
X164187929Y-80839362D01*
X163821869Y-80594769D01*
X163415125Y-80426290D01*
X162983328Y-80340400D01*
X162543072Y-80340400D01*
X162111275Y-80426290D01*
X161704531Y-80594769D01*
X161338471Y-80839362D01*
X161027162Y-81150671D01*
X160782569Y-81516731D01*
X160614090Y-81923475D01*
X160528200Y-82355272D01*
X111201000Y-82355272D01*
X111115110Y-81923475D01*
X110946631Y-81516731D01*
X110702038Y-81150671D01*
X110390729Y-80839362D01*
X110024669Y-80594769D01*
X109617925Y-80426290D01*
X109186128Y-80340400D01*
X108745872Y-80340400D01*
X108314075Y-80426290D01*
X107907331Y-80594769D01*
X107541271Y-80839362D01*
X107229962Y-81150671D01*
X106985369Y-81516731D01*
X106816890Y-81923475D01*
X106731000Y-82355272D01*
X98373800Y-82355272D01*
X98373800Y-78486235D01*
X98493837Y-78665883D01*
X98791217Y-78963263D01*
X99140898Y-79196912D01*
X99529444Y-79357853D01*
X99941921Y-79439900D01*
X100362479Y-79439900D01*
X100774956Y-79357853D01*
X101163502Y-79196912D01*
X101513183Y-78963263D01*
X101810563Y-78665883D01*
X102044212Y-78316202D01*
X102205153Y-77927656D01*
X102287200Y-77515179D01*
X102287200Y-77094621D01*
X102205153Y-76682144D01*
X102044212Y-76293598D01*
X101810563Y-75943917D01*
X101513183Y-75646537D01*
X101163502Y-75412888D01*
X100774956Y-75251947D01*
X100362479Y-75169900D01*
X99941921Y-75169900D01*
X99529444Y-75251947D01*
X99140898Y-75412888D01*
X98791217Y-75646537D01*
X98493837Y-75943917D01*
X98373800Y-76123565D01*
X98373800Y-74955000D01*
X172060000Y-74955000D01*
X172060000Y-76282014D01*
M02*
