G04 #@! TF.GenerationSoftware,KiCad,Pcbnew,5.1.2-f72e74a~84~ubuntu19.04.1*
G04 #@! TF.CreationDate,2019-05-07T16:21:10-05:00*
G04 #@! TF.ProjectId,Adapter-TE-52,41646170-7465-4722-9d54-452d35322e6b,rev?*
G04 #@! TF.SameCoordinates,Original*
G04 #@! TF.FileFunction,Soldermask,Top*
G04 #@! TF.FilePolarity,Negative*
%FSLAX46Y46*%
G04 Gerber Fmt 4.6, Leading zero omitted, Abs format (unit mm)*
G04 Created by KiCad (PCBNEW 5.1.2-f72e74a~84~ubuntu19.04.1) date 2019-05-07 16:21:10*
%MOMM*%
%LPD*%
G04 APERTURE LIST*
%ADD10C,0.100000*%
G04 APERTURE END LIST*
D10*
G36*
X164892943Y-117177419D02*
G01*
X164959127Y-117183937D01*
X165128966Y-117235457D01*
X165285491Y-117319122D01*
X165321229Y-117348452D01*
X165422686Y-117431714D01*
X165505948Y-117533171D01*
X165535278Y-117568909D01*
X165618943Y-117725434D01*
X165670463Y-117895273D01*
X165687859Y-118071900D01*
X165670463Y-118248527D01*
X165618943Y-118418366D01*
X165535278Y-118574891D01*
X165505948Y-118610629D01*
X165422686Y-118712086D01*
X165321229Y-118795348D01*
X165285491Y-118824678D01*
X165128966Y-118908343D01*
X164959127Y-118959863D01*
X164892942Y-118966382D01*
X164826760Y-118972900D01*
X164738240Y-118972900D01*
X164672058Y-118966382D01*
X164605873Y-118959863D01*
X164436034Y-118908343D01*
X164279509Y-118824678D01*
X164243771Y-118795348D01*
X164142314Y-118712086D01*
X164059052Y-118610629D01*
X164029722Y-118574891D01*
X163946057Y-118418366D01*
X163894537Y-118248527D01*
X163877141Y-118071900D01*
X163894537Y-117895273D01*
X163946057Y-117725434D01*
X164029722Y-117568909D01*
X164059052Y-117533171D01*
X164142314Y-117431714D01*
X164243771Y-117348452D01*
X164279509Y-117319122D01*
X164436034Y-117235457D01*
X164605873Y-117183937D01*
X164672057Y-117177419D01*
X164738240Y-117170900D01*
X164826760Y-117170900D01*
X164892943Y-117177419D01*
X164892943Y-117177419D01*
G37*
G36*
X131872943Y-117177419D02*
G01*
X131939127Y-117183937D01*
X132108966Y-117235457D01*
X132265491Y-117319122D01*
X132301229Y-117348452D01*
X132402686Y-117431714D01*
X132485948Y-117533171D01*
X132515278Y-117568909D01*
X132598943Y-117725434D01*
X132650463Y-117895273D01*
X132667859Y-118071900D01*
X132650463Y-118248527D01*
X132598943Y-118418366D01*
X132515278Y-118574891D01*
X132485948Y-118610629D01*
X132402686Y-118712086D01*
X132301229Y-118795348D01*
X132265491Y-118824678D01*
X132108966Y-118908343D01*
X131939127Y-118959863D01*
X131872942Y-118966382D01*
X131806760Y-118972900D01*
X131718240Y-118972900D01*
X131652058Y-118966382D01*
X131585873Y-118959863D01*
X131416034Y-118908343D01*
X131259509Y-118824678D01*
X131223771Y-118795348D01*
X131122314Y-118712086D01*
X131039052Y-118610629D01*
X131009722Y-118574891D01*
X130926057Y-118418366D01*
X130874537Y-118248527D01*
X130857141Y-118071900D01*
X130874537Y-117895273D01*
X130926057Y-117725434D01*
X131009722Y-117568909D01*
X131039052Y-117533171D01*
X131122314Y-117431714D01*
X131223771Y-117348452D01*
X131259509Y-117319122D01*
X131416034Y-117235457D01*
X131585873Y-117183937D01*
X131652057Y-117177419D01*
X131718240Y-117170900D01*
X131806760Y-117170900D01*
X131872943Y-117177419D01*
X131872943Y-117177419D01*
G37*
G36*
X167432943Y-117177419D02*
G01*
X167499127Y-117183937D01*
X167668966Y-117235457D01*
X167825491Y-117319122D01*
X167861229Y-117348452D01*
X167962686Y-117431714D01*
X168045948Y-117533171D01*
X168075278Y-117568909D01*
X168158943Y-117725434D01*
X168210463Y-117895273D01*
X168227859Y-118071900D01*
X168210463Y-118248527D01*
X168158943Y-118418366D01*
X168075278Y-118574891D01*
X168045948Y-118610629D01*
X167962686Y-118712086D01*
X167861229Y-118795348D01*
X167825491Y-118824678D01*
X167668966Y-118908343D01*
X167499127Y-118959863D01*
X167432942Y-118966382D01*
X167366760Y-118972900D01*
X167278240Y-118972900D01*
X167212058Y-118966382D01*
X167145873Y-118959863D01*
X166976034Y-118908343D01*
X166819509Y-118824678D01*
X166783771Y-118795348D01*
X166682314Y-118712086D01*
X166599052Y-118610629D01*
X166569722Y-118574891D01*
X166486057Y-118418366D01*
X166434537Y-118248527D01*
X166417141Y-118071900D01*
X166434537Y-117895273D01*
X166486057Y-117725434D01*
X166569722Y-117568909D01*
X166599052Y-117533171D01*
X166682314Y-117431714D01*
X166783771Y-117348452D01*
X166819509Y-117319122D01*
X166976034Y-117235457D01*
X167145873Y-117183937D01*
X167212057Y-117177419D01*
X167278240Y-117170900D01*
X167366760Y-117170900D01*
X167432943Y-117177419D01*
X167432943Y-117177419D01*
G37*
G36*
X103932943Y-117177419D02*
G01*
X103999127Y-117183937D01*
X104168966Y-117235457D01*
X104325491Y-117319122D01*
X104361229Y-117348452D01*
X104462686Y-117431714D01*
X104545948Y-117533171D01*
X104575278Y-117568909D01*
X104658943Y-117725434D01*
X104710463Y-117895273D01*
X104727859Y-118071900D01*
X104710463Y-118248527D01*
X104658943Y-118418366D01*
X104575278Y-118574891D01*
X104545948Y-118610629D01*
X104462686Y-118712086D01*
X104361229Y-118795348D01*
X104325491Y-118824678D01*
X104168966Y-118908343D01*
X103999127Y-118959863D01*
X103932942Y-118966382D01*
X103866760Y-118972900D01*
X103778240Y-118972900D01*
X103712058Y-118966382D01*
X103645873Y-118959863D01*
X103476034Y-118908343D01*
X103319509Y-118824678D01*
X103283771Y-118795348D01*
X103182314Y-118712086D01*
X103099052Y-118610629D01*
X103069722Y-118574891D01*
X102986057Y-118418366D01*
X102934537Y-118248527D01*
X102917141Y-118071900D01*
X102934537Y-117895273D01*
X102986057Y-117725434D01*
X103069722Y-117568909D01*
X103099052Y-117533171D01*
X103182314Y-117431714D01*
X103283771Y-117348452D01*
X103319509Y-117319122D01*
X103476034Y-117235457D01*
X103645873Y-117183937D01*
X103712057Y-117177419D01*
X103778240Y-117170900D01*
X103866760Y-117170900D01*
X103932943Y-117177419D01*
X103932943Y-117177419D01*
G37*
G36*
X106472943Y-117177419D02*
G01*
X106539127Y-117183937D01*
X106708966Y-117235457D01*
X106865491Y-117319122D01*
X106901229Y-117348452D01*
X107002686Y-117431714D01*
X107085948Y-117533171D01*
X107115278Y-117568909D01*
X107198943Y-117725434D01*
X107250463Y-117895273D01*
X107267859Y-118071900D01*
X107250463Y-118248527D01*
X107198943Y-118418366D01*
X107115278Y-118574891D01*
X107085948Y-118610629D01*
X107002686Y-118712086D01*
X106901229Y-118795348D01*
X106865491Y-118824678D01*
X106708966Y-118908343D01*
X106539127Y-118959863D01*
X106472942Y-118966382D01*
X106406760Y-118972900D01*
X106318240Y-118972900D01*
X106252058Y-118966382D01*
X106185873Y-118959863D01*
X106016034Y-118908343D01*
X105859509Y-118824678D01*
X105823771Y-118795348D01*
X105722314Y-118712086D01*
X105639052Y-118610629D01*
X105609722Y-118574891D01*
X105526057Y-118418366D01*
X105474537Y-118248527D01*
X105457141Y-118071900D01*
X105474537Y-117895273D01*
X105526057Y-117725434D01*
X105609722Y-117568909D01*
X105639052Y-117533171D01*
X105722314Y-117431714D01*
X105823771Y-117348452D01*
X105859509Y-117319122D01*
X106016034Y-117235457D01*
X106185873Y-117183937D01*
X106252057Y-117177419D01*
X106318240Y-117170900D01*
X106406760Y-117170900D01*
X106472943Y-117177419D01*
X106472943Y-117177419D01*
G37*
G36*
X109012943Y-117177419D02*
G01*
X109079127Y-117183937D01*
X109248966Y-117235457D01*
X109405491Y-117319122D01*
X109441229Y-117348452D01*
X109542686Y-117431714D01*
X109625948Y-117533171D01*
X109655278Y-117568909D01*
X109738943Y-117725434D01*
X109790463Y-117895273D01*
X109807859Y-118071900D01*
X109790463Y-118248527D01*
X109738943Y-118418366D01*
X109655278Y-118574891D01*
X109625948Y-118610629D01*
X109542686Y-118712086D01*
X109441229Y-118795348D01*
X109405491Y-118824678D01*
X109248966Y-118908343D01*
X109079127Y-118959863D01*
X109012942Y-118966382D01*
X108946760Y-118972900D01*
X108858240Y-118972900D01*
X108792058Y-118966382D01*
X108725873Y-118959863D01*
X108556034Y-118908343D01*
X108399509Y-118824678D01*
X108363771Y-118795348D01*
X108262314Y-118712086D01*
X108179052Y-118610629D01*
X108149722Y-118574891D01*
X108066057Y-118418366D01*
X108014537Y-118248527D01*
X107997141Y-118071900D01*
X108014537Y-117895273D01*
X108066057Y-117725434D01*
X108149722Y-117568909D01*
X108179052Y-117533171D01*
X108262314Y-117431714D01*
X108363771Y-117348452D01*
X108399509Y-117319122D01*
X108556034Y-117235457D01*
X108725873Y-117183937D01*
X108792057Y-117177419D01*
X108858240Y-117170900D01*
X108946760Y-117170900D01*
X109012943Y-117177419D01*
X109012943Y-117177419D01*
G37*
G36*
X111552943Y-117177419D02*
G01*
X111619127Y-117183937D01*
X111788966Y-117235457D01*
X111945491Y-117319122D01*
X111981229Y-117348452D01*
X112082686Y-117431714D01*
X112165948Y-117533171D01*
X112195278Y-117568909D01*
X112278943Y-117725434D01*
X112330463Y-117895273D01*
X112347859Y-118071900D01*
X112330463Y-118248527D01*
X112278943Y-118418366D01*
X112195278Y-118574891D01*
X112165948Y-118610629D01*
X112082686Y-118712086D01*
X111981229Y-118795348D01*
X111945491Y-118824678D01*
X111788966Y-118908343D01*
X111619127Y-118959863D01*
X111552942Y-118966382D01*
X111486760Y-118972900D01*
X111398240Y-118972900D01*
X111332058Y-118966382D01*
X111265873Y-118959863D01*
X111096034Y-118908343D01*
X110939509Y-118824678D01*
X110903771Y-118795348D01*
X110802314Y-118712086D01*
X110719052Y-118610629D01*
X110689722Y-118574891D01*
X110606057Y-118418366D01*
X110554537Y-118248527D01*
X110537141Y-118071900D01*
X110554537Y-117895273D01*
X110606057Y-117725434D01*
X110689722Y-117568909D01*
X110719052Y-117533171D01*
X110802314Y-117431714D01*
X110903771Y-117348452D01*
X110939509Y-117319122D01*
X111096034Y-117235457D01*
X111265873Y-117183937D01*
X111332057Y-117177419D01*
X111398240Y-117170900D01*
X111486760Y-117170900D01*
X111552943Y-117177419D01*
X111552943Y-117177419D01*
G37*
G36*
X114092943Y-117177419D02*
G01*
X114159127Y-117183937D01*
X114328966Y-117235457D01*
X114485491Y-117319122D01*
X114521229Y-117348452D01*
X114622686Y-117431714D01*
X114705948Y-117533171D01*
X114735278Y-117568909D01*
X114818943Y-117725434D01*
X114870463Y-117895273D01*
X114887859Y-118071900D01*
X114870463Y-118248527D01*
X114818943Y-118418366D01*
X114735278Y-118574891D01*
X114705948Y-118610629D01*
X114622686Y-118712086D01*
X114521229Y-118795348D01*
X114485491Y-118824678D01*
X114328966Y-118908343D01*
X114159127Y-118959863D01*
X114092942Y-118966382D01*
X114026760Y-118972900D01*
X113938240Y-118972900D01*
X113872058Y-118966382D01*
X113805873Y-118959863D01*
X113636034Y-118908343D01*
X113479509Y-118824678D01*
X113443771Y-118795348D01*
X113342314Y-118712086D01*
X113259052Y-118610629D01*
X113229722Y-118574891D01*
X113146057Y-118418366D01*
X113094537Y-118248527D01*
X113077141Y-118071900D01*
X113094537Y-117895273D01*
X113146057Y-117725434D01*
X113229722Y-117568909D01*
X113259052Y-117533171D01*
X113342314Y-117431714D01*
X113443771Y-117348452D01*
X113479509Y-117319122D01*
X113636034Y-117235457D01*
X113805873Y-117183937D01*
X113872057Y-117177419D01*
X113938240Y-117170900D01*
X114026760Y-117170900D01*
X114092943Y-117177419D01*
X114092943Y-117177419D01*
G37*
G36*
X116632943Y-117177419D02*
G01*
X116699127Y-117183937D01*
X116868966Y-117235457D01*
X117025491Y-117319122D01*
X117061229Y-117348452D01*
X117162686Y-117431714D01*
X117245948Y-117533171D01*
X117275278Y-117568909D01*
X117358943Y-117725434D01*
X117410463Y-117895273D01*
X117427859Y-118071900D01*
X117410463Y-118248527D01*
X117358943Y-118418366D01*
X117275278Y-118574891D01*
X117245948Y-118610629D01*
X117162686Y-118712086D01*
X117061229Y-118795348D01*
X117025491Y-118824678D01*
X116868966Y-118908343D01*
X116699127Y-118959863D01*
X116632942Y-118966382D01*
X116566760Y-118972900D01*
X116478240Y-118972900D01*
X116412058Y-118966382D01*
X116345873Y-118959863D01*
X116176034Y-118908343D01*
X116019509Y-118824678D01*
X115983771Y-118795348D01*
X115882314Y-118712086D01*
X115799052Y-118610629D01*
X115769722Y-118574891D01*
X115686057Y-118418366D01*
X115634537Y-118248527D01*
X115617141Y-118071900D01*
X115634537Y-117895273D01*
X115686057Y-117725434D01*
X115769722Y-117568909D01*
X115799052Y-117533171D01*
X115882314Y-117431714D01*
X115983771Y-117348452D01*
X116019509Y-117319122D01*
X116176034Y-117235457D01*
X116345873Y-117183937D01*
X116412057Y-117177419D01*
X116478240Y-117170900D01*
X116566760Y-117170900D01*
X116632943Y-117177419D01*
X116632943Y-117177419D01*
G37*
G36*
X119172943Y-117177419D02*
G01*
X119239127Y-117183937D01*
X119408966Y-117235457D01*
X119565491Y-117319122D01*
X119601229Y-117348452D01*
X119702686Y-117431714D01*
X119785948Y-117533171D01*
X119815278Y-117568909D01*
X119898943Y-117725434D01*
X119950463Y-117895273D01*
X119967859Y-118071900D01*
X119950463Y-118248527D01*
X119898943Y-118418366D01*
X119815278Y-118574891D01*
X119785948Y-118610629D01*
X119702686Y-118712086D01*
X119601229Y-118795348D01*
X119565491Y-118824678D01*
X119408966Y-118908343D01*
X119239127Y-118959863D01*
X119172942Y-118966382D01*
X119106760Y-118972900D01*
X119018240Y-118972900D01*
X118952058Y-118966382D01*
X118885873Y-118959863D01*
X118716034Y-118908343D01*
X118559509Y-118824678D01*
X118523771Y-118795348D01*
X118422314Y-118712086D01*
X118339052Y-118610629D01*
X118309722Y-118574891D01*
X118226057Y-118418366D01*
X118174537Y-118248527D01*
X118157141Y-118071900D01*
X118174537Y-117895273D01*
X118226057Y-117725434D01*
X118309722Y-117568909D01*
X118339052Y-117533171D01*
X118422314Y-117431714D01*
X118523771Y-117348452D01*
X118559509Y-117319122D01*
X118716034Y-117235457D01*
X118885873Y-117183937D01*
X118952057Y-117177419D01*
X119018240Y-117170900D01*
X119106760Y-117170900D01*
X119172943Y-117177419D01*
X119172943Y-117177419D01*
G37*
G36*
X121712943Y-117177419D02*
G01*
X121779127Y-117183937D01*
X121948966Y-117235457D01*
X122105491Y-117319122D01*
X122141229Y-117348452D01*
X122242686Y-117431714D01*
X122325948Y-117533171D01*
X122355278Y-117568909D01*
X122438943Y-117725434D01*
X122490463Y-117895273D01*
X122507859Y-118071900D01*
X122490463Y-118248527D01*
X122438943Y-118418366D01*
X122355278Y-118574891D01*
X122325948Y-118610629D01*
X122242686Y-118712086D01*
X122141229Y-118795348D01*
X122105491Y-118824678D01*
X121948966Y-118908343D01*
X121779127Y-118959863D01*
X121712942Y-118966382D01*
X121646760Y-118972900D01*
X121558240Y-118972900D01*
X121492058Y-118966382D01*
X121425873Y-118959863D01*
X121256034Y-118908343D01*
X121099509Y-118824678D01*
X121063771Y-118795348D01*
X120962314Y-118712086D01*
X120879052Y-118610629D01*
X120849722Y-118574891D01*
X120766057Y-118418366D01*
X120714537Y-118248527D01*
X120697141Y-118071900D01*
X120714537Y-117895273D01*
X120766057Y-117725434D01*
X120849722Y-117568909D01*
X120879052Y-117533171D01*
X120962314Y-117431714D01*
X121063771Y-117348452D01*
X121099509Y-117319122D01*
X121256034Y-117235457D01*
X121425873Y-117183937D01*
X121492057Y-117177419D01*
X121558240Y-117170900D01*
X121646760Y-117170900D01*
X121712943Y-117177419D01*
X121712943Y-117177419D01*
G37*
G36*
X124252943Y-117177419D02*
G01*
X124319127Y-117183937D01*
X124488966Y-117235457D01*
X124645491Y-117319122D01*
X124681229Y-117348452D01*
X124782686Y-117431714D01*
X124865948Y-117533171D01*
X124895278Y-117568909D01*
X124978943Y-117725434D01*
X125030463Y-117895273D01*
X125047859Y-118071900D01*
X125030463Y-118248527D01*
X124978943Y-118418366D01*
X124895278Y-118574891D01*
X124865948Y-118610629D01*
X124782686Y-118712086D01*
X124681229Y-118795348D01*
X124645491Y-118824678D01*
X124488966Y-118908343D01*
X124319127Y-118959863D01*
X124252942Y-118966382D01*
X124186760Y-118972900D01*
X124098240Y-118972900D01*
X124032058Y-118966382D01*
X123965873Y-118959863D01*
X123796034Y-118908343D01*
X123639509Y-118824678D01*
X123603771Y-118795348D01*
X123502314Y-118712086D01*
X123419052Y-118610629D01*
X123389722Y-118574891D01*
X123306057Y-118418366D01*
X123254537Y-118248527D01*
X123237141Y-118071900D01*
X123254537Y-117895273D01*
X123306057Y-117725434D01*
X123389722Y-117568909D01*
X123419052Y-117533171D01*
X123502314Y-117431714D01*
X123603771Y-117348452D01*
X123639509Y-117319122D01*
X123796034Y-117235457D01*
X123965873Y-117183937D01*
X124032057Y-117177419D01*
X124098240Y-117170900D01*
X124186760Y-117170900D01*
X124252943Y-117177419D01*
X124252943Y-117177419D01*
G37*
G36*
X126792943Y-117177419D02*
G01*
X126859127Y-117183937D01*
X127028966Y-117235457D01*
X127185491Y-117319122D01*
X127221229Y-117348452D01*
X127322686Y-117431714D01*
X127405948Y-117533171D01*
X127435278Y-117568909D01*
X127518943Y-117725434D01*
X127570463Y-117895273D01*
X127587859Y-118071900D01*
X127570463Y-118248527D01*
X127518943Y-118418366D01*
X127435278Y-118574891D01*
X127405948Y-118610629D01*
X127322686Y-118712086D01*
X127221229Y-118795348D01*
X127185491Y-118824678D01*
X127028966Y-118908343D01*
X126859127Y-118959863D01*
X126792942Y-118966382D01*
X126726760Y-118972900D01*
X126638240Y-118972900D01*
X126572058Y-118966382D01*
X126505873Y-118959863D01*
X126336034Y-118908343D01*
X126179509Y-118824678D01*
X126143771Y-118795348D01*
X126042314Y-118712086D01*
X125959052Y-118610629D01*
X125929722Y-118574891D01*
X125846057Y-118418366D01*
X125794537Y-118248527D01*
X125777141Y-118071900D01*
X125794537Y-117895273D01*
X125846057Y-117725434D01*
X125929722Y-117568909D01*
X125959052Y-117533171D01*
X126042314Y-117431714D01*
X126143771Y-117348452D01*
X126179509Y-117319122D01*
X126336034Y-117235457D01*
X126505873Y-117183937D01*
X126572057Y-117177419D01*
X126638240Y-117170900D01*
X126726760Y-117170900D01*
X126792943Y-117177419D01*
X126792943Y-117177419D01*
G37*
G36*
X129332943Y-117177419D02*
G01*
X129399127Y-117183937D01*
X129568966Y-117235457D01*
X129725491Y-117319122D01*
X129761229Y-117348452D01*
X129862686Y-117431714D01*
X129945948Y-117533171D01*
X129975278Y-117568909D01*
X130058943Y-117725434D01*
X130110463Y-117895273D01*
X130127859Y-118071900D01*
X130110463Y-118248527D01*
X130058943Y-118418366D01*
X129975278Y-118574891D01*
X129945948Y-118610629D01*
X129862686Y-118712086D01*
X129761229Y-118795348D01*
X129725491Y-118824678D01*
X129568966Y-118908343D01*
X129399127Y-118959863D01*
X129332942Y-118966382D01*
X129266760Y-118972900D01*
X129178240Y-118972900D01*
X129112058Y-118966382D01*
X129045873Y-118959863D01*
X128876034Y-118908343D01*
X128719509Y-118824678D01*
X128683771Y-118795348D01*
X128582314Y-118712086D01*
X128499052Y-118610629D01*
X128469722Y-118574891D01*
X128386057Y-118418366D01*
X128334537Y-118248527D01*
X128317141Y-118071900D01*
X128334537Y-117895273D01*
X128386057Y-117725434D01*
X128469722Y-117568909D01*
X128499052Y-117533171D01*
X128582314Y-117431714D01*
X128683771Y-117348452D01*
X128719509Y-117319122D01*
X128876034Y-117235457D01*
X129045873Y-117183937D01*
X129112057Y-117177419D01*
X129178240Y-117170900D01*
X129266760Y-117170900D01*
X129332943Y-117177419D01*
X129332943Y-117177419D01*
G37*
G36*
X136952943Y-117177419D02*
G01*
X137019127Y-117183937D01*
X137188966Y-117235457D01*
X137345491Y-117319122D01*
X137381229Y-117348452D01*
X137482686Y-117431714D01*
X137565948Y-117533171D01*
X137595278Y-117568909D01*
X137678943Y-117725434D01*
X137730463Y-117895273D01*
X137747859Y-118071900D01*
X137730463Y-118248527D01*
X137678943Y-118418366D01*
X137595278Y-118574891D01*
X137565948Y-118610629D01*
X137482686Y-118712086D01*
X137381229Y-118795348D01*
X137345491Y-118824678D01*
X137188966Y-118908343D01*
X137019127Y-118959863D01*
X136952942Y-118966382D01*
X136886760Y-118972900D01*
X136798240Y-118972900D01*
X136732058Y-118966382D01*
X136665873Y-118959863D01*
X136496034Y-118908343D01*
X136339509Y-118824678D01*
X136303771Y-118795348D01*
X136202314Y-118712086D01*
X136119052Y-118610629D01*
X136089722Y-118574891D01*
X136006057Y-118418366D01*
X135954537Y-118248527D01*
X135937141Y-118071900D01*
X135954537Y-117895273D01*
X136006057Y-117725434D01*
X136089722Y-117568909D01*
X136119052Y-117533171D01*
X136202314Y-117431714D01*
X136303771Y-117348452D01*
X136339509Y-117319122D01*
X136496034Y-117235457D01*
X136665873Y-117183937D01*
X136732057Y-117177419D01*
X136798240Y-117170900D01*
X136886760Y-117170900D01*
X136952943Y-117177419D01*
X136952943Y-117177419D01*
G37*
G36*
X134412943Y-117177419D02*
G01*
X134479127Y-117183937D01*
X134648966Y-117235457D01*
X134805491Y-117319122D01*
X134841229Y-117348452D01*
X134942686Y-117431714D01*
X135025948Y-117533171D01*
X135055278Y-117568909D01*
X135138943Y-117725434D01*
X135190463Y-117895273D01*
X135207859Y-118071900D01*
X135190463Y-118248527D01*
X135138943Y-118418366D01*
X135055278Y-118574891D01*
X135025948Y-118610629D01*
X134942686Y-118712086D01*
X134841229Y-118795348D01*
X134805491Y-118824678D01*
X134648966Y-118908343D01*
X134479127Y-118959863D01*
X134412942Y-118966382D01*
X134346760Y-118972900D01*
X134258240Y-118972900D01*
X134192058Y-118966382D01*
X134125873Y-118959863D01*
X133956034Y-118908343D01*
X133799509Y-118824678D01*
X133763771Y-118795348D01*
X133662314Y-118712086D01*
X133579052Y-118610629D01*
X133549722Y-118574891D01*
X133466057Y-118418366D01*
X133414537Y-118248527D01*
X133397141Y-118071900D01*
X133414537Y-117895273D01*
X133466057Y-117725434D01*
X133549722Y-117568909D01*
X133579052Y-117533171D01*
X133662314Y-117431714D01*
X133763771Y-117348452D01*
X133799509Y-117319122D01*
X133956034Y-117235457D01*
X134125873Y-117183937D01*
X134192057Y-117177419D01*
X134258240Y-117170900D01*
X134346760Y-117170900D01*
X134412943Y-117177419D01*
X134412943Y-117177419D01*
G37*
G36*
X162352943Y-117177419D02*
G01*
X162419127Y-117183937D01*
X162588966Y-117235457D01*
X162745491Y-117319122D01*
X162781229Y-117348452D01*
X162882686Y-117431714D01*
X162965948Y-117533171D01*
X162995278Y-117568909D01*
X163078943Y-117725434D01*
X163130463Y-117895273D01*
X163147859Y-118071900D01*
X163130463Y-118248527D01*
X163078943Y-118418366D01*
X162995278Y-118574891D01*
X162965948Y-118610629D01*
X162882686Y-118712086D01*
X162781229Y-118795348D01*
X162745491Y-118824678D01*
X162588966Y-118908343D01*
X162419127Y-118959863D01*
X162352942Y-118966382D01*
X162286760Y-118972900D01*
X162198240Y-118972900D01*
X162132058Y-118966382D01*
X162065873Y-118959863D01*
X161896034Y-118908343D01*
X161739509Y-118824678D01*
X161703771Y-118795348D01*
X161602314Y-118712086D01*
X161519052Y-118610629D01*
X161489722Y-118574891D01*
X161406057Y-118418366D01*
X161354537Y-118248527D01*
X161337141Y-118071900D01*
X161354537Y-117895273D01*
X161406057Y-117725434D01*
X161489722Y-117568909D01*
X161519052Y-117533171D01*
X161602314Y-117431714D01*
X161703771Y-117348452D01*
X161739509Y-117319122D01*
X161896034Y-117235457D01*
X162065873Y-117183937D01*
X162132057Y-117177419D01*
X162198240Y-117170900D01*
X162286760Y-117170900D01*
X162352943Y-117177419D01*
X162352943Y-117177419D01*
G37*
G36*
X159812943Y-117177419D02*
G01*
X159879127Y-117183937D01*
X160048966Y-117235457D01*
X160205491Y-117319122D01*
X160241229Y-117348452D01*
X160342686Y-117431714D01*
X160425948Y-117533171D01*
X160455278Y-117568909D01*
X160538943Y-117725434D01*
X160590463Y-117895273D01*
X160607859Y-118071900D01*
X160590463Y-118248527D01*
X160538943Y-118418366D01*
X160455278Y-118574891D01*
X160425948Y-118610629D01*
X160342686Y-118712086D01*
X160241229Y-118795348D01*
X160205491Y-118824678D01*
X160048966Y-118908343D01*
X159879127Y-118959863D01*
X159812942Y-118966382D01*
X159746760Y-118972900D01*
X159658240Y-118972900D01*
X159592058Y-118966382D01*
X159525873Y-118959863D01*
X159356034Y-118908343D01*
X159199509Y-118824678D01*
X159163771Y-118795348D01*
X159062314Y-118712086D01*
X158979052Y-118610629D01*
X158949722Y-118574891D01*
X158866057Y-118418366D01*
X158814537Y-118248527D01*
X158797141Y-118071900D01*
X158814537Y-117895273D01*
X158866057Y-117725434D01*
X158949722Y-117568909D01*
X158979052Y-117533171D01*
X159062314Y-117431714D01*
X159163771Y-117348452D01*
X159199509Y-117319122D01*
X159356034Y-117235457D01*
X159525873Y-117183937D01*
X159592057Y-117177419D01*
X159658240Y-117170900D01*
X159746760Y-117170900D01*
X159812943Y-117177419D01*
X159812943Y-117177419D01*
G37*
G36*
X157272943Y-117177419D02*
G01*
X157339127Y-117183937D01*
X157508966Y-117235457D01*
X157665491Y-117319122D01*
X157701229Y-117348452D01*
X157802686Y-117431714D01*
X157885948Y-117533171D01*
X157915278Y-117568909D01*
X157998943Y-117725434D01*
X158050463Y-117895273D01*
X158067859Y-118071900D01*
X158050463Y-118248527D01*
X157998943Y-118418366D01*
X157915278Y-118574891D01*
X157885948Y-118610629D01*
X157802686Y-118712086D01*
X157701229Y-118795348D01*
X157665491Y-118824678D01*
X157508966Y-118908343D01*
X157339127Y-118959863D01*
X157272942Y-118966382D01*
X157206760Y-118972900D01*
X157118240Y-118972900D01*
X157052058Y-118966382D01*
X156985873Y-118959863D01*
X156816034Y-118908343D01*
X156659509Y-118824678D01*
X156623771Y-118795348D01*
X156522314Y-118712086D01*
X156439052Y-118610629D01*
X156409722Y-118574891D01*
X156326057Y-118418366D01*
X156274537Y-118248527D01*
X156257141Y-118071900D01*
X156274537Y-117895273D01*
X156326057Y-117725434D01*
X156409722Y-117568909D01*
X156439052Y-117533171D01*
X156522314Y-117431714D01*
X156623771Y-117348452D01*
X156659509Y-117319122D01*
X156816034Y-117235457D01*
X156985873Y-117183937D01*
X157052057Y-117177419D01*
X157118240Y-117170900D01*
X157206760Y-117170900D01*
X157272943Y-117177419D01*
X157272943Y-117177419D01*
G37*
G36*
X154732943Y-117177419D02*
G01*
X154799127Y-117183937D01*
X154968966Y-117235457D01*
X155125491Y-117319122D01*
X155161229Y-117348452D01*
X155262686Y-117431714D01*
X155345948Y-117533171D01*
X155375278Y-117568909D01*
X155458943Y-117725434D01*
X155510463Y-117895273D01*
X155527859Y-118071900D01*
X155510463Y-118248527D01*
X155458943Y-118418366D01*
X155375278Y-118574891D01*
X155345948Y-118610629D01*
X155262686Y-118712086D01*
X155161229Y-118795348D01*
X155125491Y-118824678D01*
X154968966Y-118908343D01*
X154799127Y-118959863D01*
X154732942Y-118966382D01*
X154666760Y-118972900D01*
X154578240Y-118972900D01*
X154512058Y-118966382D01*
X154445873Y-118959863D01*
X154276034Y-118908343D01*
X154119509Y-118824678D01*
X154083771Y-118795348D01*
X153982314Y-118712086D01*
X153899052Y-118610629D01*
X153869722Y-118574891D01*
X153786057Y-118418366D01*
X153734537Y-118248527D01*
X153717141Y-118071900D01*
X153734537Y-117895273D01*
X153786057Y-117725434D01*
X153869722Y-117568909D01*
X153899052Y-117533171D01*
X153982314Y-117431714D01*
X154083771Y-117348452D01*
X154119509Y-117319122D01*
X154276034Y-117235457D01*
X154445873Y-117183937D01*
X154512057Y-117177419D01*
X154578240Y-117170900D01*
X154666760Y-117170900D01*
X154732943Y-117177419D01*
X154732943Y-117177419D01*
G37*
G36*
X152192943Y-117177419D02*
G01*
X152259127Y-117183937D01*
X152428966Y-117235457D01*
X152585491Y-117319122D01*
X152621229Y-117348452D01*
X152722686Y-117431714D01*
X152805948Y-117533171D01*
X152835278Y-117568909D01*
X152918943Y-117725434D01*
X152970463Y-117895273D01*
X152987859Y-118071900D01*
X152970463Y-118248527D01*
X152918943Y-118418366D01*
X152835278Y-118574891D01*
X152805948Y-118610629D01*
X152722686Y-118712086D01*
X152621229Y-118795348D01*
X152585491Y-118824678D01*
X152428966Y-118908343D01*
X152259127Y-118959863D01*
X152192942Y-118966382D01*
X152126760Y-118972900D01*
X152038240Y-118972900D01*
X151972058Y-118966382D01*
X151905873Y-118959863D01*
X151736034Y-118908343D01*
X151579509Y-118824678D01*
X151543771Y-118795348D01*
X151442314Y-118712086D01*
X151359052Y-118610629D01*
X151329722Y-118574891D01*
X151246057Y-118418366D01*
X151194537Y-118248527D01*
X151177141Y-118071900D01*
X151194537Y-117895273D01*
X151246057Y-117725434D01*
X151329722Y-117568909D01*
X151359052Y-117533171D01*
X151442314Y-117431714D01*
X151543771Y-117348452D01*
X151579509Y-117319122D01*
X151736034Y-117235457D01*
X151905873Y-117183937D01*
X151972057Y-117177419D01*
X152038240Y-117170900D01*
X152126760Y-117170900D01*
X152192943Y-117177419D01*
X152192943Y-117177419D01*
G37*
G36*
X149652943Y-117177419D02*
G01*
X149719127Y-117183937D01*
X149888966Y-117235457D01*
X150045491Y-117319122D01*
X150081229Y-117348452D01*
X150182686Y-117431714D01*
X150265948Y-117533171D01*
X150295278Y-117568909D01*
X150378943Y-117725434D01*
X150430463Y-117895273D01*
X150447859Y-118071900D01*
X150430463Y-118248527D01*
X150378943Y-118418366D01*
X150295278Y-118574891D01*
X150265948Y-118610629D01*
X150182686Y-118712086D01*
X150081229Y-118795348D01*
X150045491Y-118824678D01*
X149888966Y-118908343D01*
X149719127Y-118959863D01*
X149652942Y-118966382D01*
X149586760Y-118972900D01*
X149498240Y-118972900D01*
X149432058Y-118966382D01*
X149365873Y-118959863D01*
X149196034Y-118908343D01*
X149039509Y-118824678D01*
X149003771Y-118795348D01*
X148902314Y-118712086D01*
X148819052Y-118610629D01*
X148789722Y-118574891D01*
X148706057Y-118418366D01*
X148654537Y-118248527D01*
X148637141Y-118071900D01*
X148654537Y-117895273D01*
X148706057Y-117725434D01*
X148789722Y-117568909D01*
X148819052Y-117533171D01*
X148902314Y-117431714D01*
X149003771Y-117348452D01*
X149039509Y-117319122D01*
X149196034Y-117235457D01*
X149365873Y-117183937D01*
X149432057Y-117177419D01*
X149498240Y-117170900D01*
X149586760Y-117170900D01*
X149652943Y-117177419D01*
X149652943Y-117177419D01*
G37*
G36*
X147112943Y-117177419D02*
G01*
X147179127Y-117183937D01*
X147348966Y-117235457D01*
X147505491Y-117319122D01*
X147541229Y-117348452D01*
X147642686Y-117431714D01*
X147725948Y-117533171D01*
X147755278Y-117568909D01*
X147838943Y-117725434D01*
X147890463Y-117895273D01*
X147907859Y-118071900D01*
X147890463Y-118248527D01*
X147838943Y-118418366D01*
X147755278Y-118574891D01*
X147725948Y-118610629D01*
X147642686Y-118712086D01*
X147541229Y-118795348D01*
X147505491Y-118824678D01*
X147348966Y-118908343D01*
X147179127Y-118959863D01*
X147112942Y-118966382D01*
X147046760Y-118972900D01*
X146958240Y-118972900D01*
X146892058Y-118966382D01*
X146825873Y-118959863D01*
X146656034Y-118908343D01*
X146499509Y-118824678D01*
X146463771Y-118795348D01*
X146362314Y-118712086D01*
X146279052Y-118610629D01*
X146249722Y-118574891D01*
X146166057Y-118418366D01*
X146114537Y-118248527D01*
X146097141Y-118071900D01*
X146114537Y-117895273D01*
X146166057Y-117725434D01*
X146249722Y-117568909D01*
X146279052Y-117533171D01*
X146362314Y-117431714D01*
X146463771Y-117348452D01*
X146499509Y-117319122D01*
X146656034Y-117235457D01*
X146825873Y-117183937D01*
X146892057Y-117177419D01*
X146958240Y-117170900D01*
X147046760Y-117170900D01*
X147112943Y-117177419D01*
X147112943Y-117177419D01*
G37*
G36*
X144572943Y-117177419D02*
G01*
X144639127Y-117183937D01*
X144808966Y-117235457D01*
X144965491Y-117319122D01*
X145001229Y-117348452D01*
X145102686Y-117431714D01*
X145185948Y-117533171D01*
X145215278Y-117568909D01*
X145298943Y-117725434D01*
X145350463Y-117895273D01*
X145367859Y-118071900D01*
X145350463Y-118248527D01*
X145298943Y-118418366D01*
X145215278Y-118574891D01*
X145185948Y-118610629D01*
X145102686Y-118712086D01*
X145001229Y-118795348D01*
X144965491Y-118824678D01*
X144808966Y-118908343D01*
X144639127Y-118959863D01*
X144572942Y-118966382D01*
X144506760Y-118972900D01*
X144418240Y-118972900D01*
X144352058Y-118966382D01*
X144285873Y-118959863D01*
X144116034Y-118908343D01*
X143959509Y-118824678D01*
X143923771Y-118795348D01*
X143822314Y-118712086D01*
X143739052Y-118610629D01*
X143709722Y-118574891D01*
X143626057Y-118418366D01*
X143574537Y-118248527D01*
X143557141Y-118071900D01*
X143574537Y-117895273D01*
X143626057Y-117725434D01*
X143709722Y-117568909D01*
X143739052Y-117533171D01*
X143822314Y-117431714D01*
X143923771Y-117348452D01*
X143959509Y-117319122D01*
X144116034Y-117235457D01*
X144285873Y-117183937D01*
X144352057Y-117177419D01*
X144418240Y-117170900D01*
X144506760Y-117170900D01*
X144572943Y-117177419D01*
X144572943Y-117177419D01*
G37*
G36*
X142032943Y-117177419D02*
G01*
X142099127Y-117183937D01*
X142268966Y-117235457D01*
X142425491Y-117319122D01*
X142461229Y-117348452D01*
X142562686Y-117431714D01*
X142645948Y-117533171D01*
X142675278Y-117568909D01*
X142758943Y-117725434D01*
X142810463Y-117895273D01*
X142827859Y-118071900D01*
X142810463Y-118248527D01*
X142758943Y-118418366D01*
X142675278Y-118574891D01*
X142645948Y-118610629D01*
X142562686Y-118712086D01*
X142461229Y-118795348D01*
X142425491Y-118824678D01*
X142268966Y-118908343D01*
X142099127Y-118959863D01*
X142032942Y-118966382D01*
X141966760Y-118972900D01*
X141878240Y-118972900D01*
X141812058Y-118966382D01*
X141745873Y-118959863D01*
X141576034Y-118908343D01*
X141419509Y-118824678D01*
X141383771Y-118795348D01*
X141282314Y-118712086D01*
X141199052Y-118610629D01*
X141169722Y-118574891D01*
X141086057Y-118418366D01*
X141034537Y-118248527D01*
X141017141Y-118071900D01*
X141034537Y-117895273D01*
X141086057Y-117725434D01*
X141169722Y-117568909D01*
X141199052Y-117533171D01*
X141282314Y-117431714D01*
X141383771Y-117348452D01*
X141419509Y-117319122D01*
X141576034Y-117235457D01*
X141745873Y-117183937D01*
X141812057Y-117177419D01*
X141878240Y-117170900D01*
X141966760Y-117170900D01*
X142032943Y-117177419D01*
X142032943Y-117177419D01*
G37*
G36*
X139492943Y-117177419D02*
G01*
X139559127Y-117183937D01*
X139728966Y-117235457D01*
X139885491Y-117319122D01*
X139921229Y-117348452D01*
X140022686Y-117431714D01*
X140105948Y-117533171D01*
X140135278Y-117568909D01*
X140218943Y-117725434D01*
X140270463Y-117895273D01*
X140287859Y-118071900D01*
X140270463Y-118248527D01*
X140218943Y-118418366D01*
X140135278Y-118574891D01*
X140105948Y-118610629D01*
X140022686Y-118712086D01*
X139921229Y-118795348D01*
X139885491Y-118824678D01*
X139728966Y-118908343D01*
X139559127Y-118959863D01*
X139492942Y-118966382D01*
X139426760Y-118972900D01*
X139338240Y-118972900D01*
X139272058Y-118966382D01*
X139205873Y-118959863D01*
X139036034Y-118908343D01*
X138879509Y-118824678D01*
X138843771Y-118795348D01*
X138742314Y-118712086D01*
X138659052Y-118610629D01*
X138629722Y-118574891D01*
X138546057Y-118418366D01*
X138494537Y-118248527D01*
X138477141Y-118071900D01*
X138494537Y-117895273D01*
X138546057Y-117725434D01*
X138629722Y-117568909D01*
X138659052Y-117533171D01*
X138742314Y-117431714D01*
X138843771Y-117348452D01*
X138879509Y-117319122D01*
X139036034Y-117235457D01*
X139205873Y-117183937D01*
X139272057Y-117177419D01*
X139338240Y-117170900D01*
X139426760Y-117170900D01*
X139492943Y-117177419D01*
X139492943Y-117177419D01*
G37*
G36*
X164892942Y-114637418D02*
G01*
X164959127Y-114643937D01*
X165128966Y-114695457D01*
X165285491Y-114779122D01*
X165321229Y-114808452D01*
X165422686Y-114891714D01*
X165505948Y-114993171D01*
X165535278Y-115028909D01*
X165618943Y-115185434D01*
X165670463Y-115355273D01*
X165687859Y-115531900D01*
X165670463Y-115708527D01*
X165618943Y-115878366D01*
X165535278Y-116034891D01*
X165505948Y-116070629D01*
X165422686Y-116172086D01*
X165321229Y-116255348D01*
X165285491Y-116284678D01*
X165128966Y-116368343D01*
X164959127Y-116419863D01*
X164892943Y-116426381D01*
X164826760Y-116432900D01*
X164738240Y-116432900D01*
X164672057Y-116426381D01*
X164605873Y-116419863D01*
X164436034Y-116368343D01*
X164279509Y-116284678D01*
X164243771Y-116255348D01*
X164142314Y-116172086D01*
X164059052Y-116070629D01*
X164029722Y-116034891D01*
X163946057Y-115878366D01*
X163894537Y-115708527D01*
X163877141Y-115531900D01*
X163894537Y-115355273D01*
X163946057Y-115185434D01*
X164029722Y-115028909D01*
X164059052Y-114993171D01*
X164142314Y-114891714D01*
X164243771Y-114808452D01*
X164279509Y-114779122D01*
X164436034Y-114695457D01*
X164605873Y-114643937D01*
X164672058Y-114637418D01*
X164738240Y-114630900D01*
X164826760Y-114630900D01*
X164892942Y-114637418D01*
X164892942Y-114637418D01*
G37*
G36*
X154732942Y-114637418D02*
G01*
X154799127Y-114643937D01*
X154968966Y-114695457D01*
X155125491Y-114779122D01*
X155161229Y-114808452D01*
X155262686Y-114891714D01*
X155345948Y-114993171D01*
X155375278Y-115028909D01*
X155458943Y-115185434D01*
X155510463Y-115355273D01*
X155527859Y-115531900D01*
X155510463Y-115708527D01*
X155458943Y-115878366D01*
X155375278Y-116034891D01*
X155345948Y-116070629D01*
X155262686Y-116172086D01*
X155161229Y-116255348D01*
X155125491Y-116284678D01*
X154968966Y-116368343D01*
X154799127Y-116419863D01*
X154732943Y-116426381D01*
X154666760Y-116432900D01*
X154578240Y-116432900D01*
X154512057Y-116426381D01*
X154445873Y-116419863D01*
X154276034Y-116368343D01*
X154119509Y-116284678D01*
X154083771Y-116255348D01*
X153982314Y-116172086D01*
X153899052Y-116070629D01*
X153869722Y-116034891D01*
X153786057Y-115878366D01*
X153734537Y-115708527D01*
X153717141Y-115531900D01*
X153734537Y-115355273D01*
X153786057Y-115185434D01*
X153869722Y-115028909D01*
X153899052Y-114993171D01*
X153982314Y-114891714D01*
X154083771Y-114808452D01*
X154119509Y-114779122D01*
X154276034Y-114695457D01*
X154445873Y-114643937D01*
X154512058Y-114637418D01*
X154578240Y-114630900D01*
X154666760Y-114630900D01*
X154732942Y-114637418D01*
X154732942Y-114637418D01*
G37*
G36*
X129332942Y-114637418D02*
G01*
X129399127Y-114643937D01*
X129568966Y-114695457D01*
X129725491Y-114779122D01*
X129761229Y-114808452D01*
X129862686Y-114891714D01*
X129945948Y-114993171D01*
X129975278Y-115028909D01*
X130058943Y-115185434D01*
X130110463Y-115355273D01*
X130127859Y-115531900D01*
X130110463Y-115708527D01*
X130058943Y-115878366D01*
X129975278Y-116034891D01*
X129945948Y-116070629D01*
X129862686Y-116172086D01*
X129761229Y-116255348D01*
X129725491Y-116284678D01*
X129568966Y-116368343D01*
X129399127Y-116419863D01*
X129332943Y-116426381D01*
X129266760Y-116432900D01*
X129178240Y-116432900D01*
X129112057Y-116426381D01*
X129045873Y-116419863D01*
X128876034Y-116368343D01*
X128719509Y-116284678D01*
X128683771Y-116255348D01*
X128582314Y-116172086D01*
X128499052Y-116070629D01*
X128469722Y-116034891D01*
X128386057Y-115878366D01*
X128334537Y-115708527D01*
X128317141Y-115531900D01*
X128334537Y-115355273D01*
X128386057Y-115185434D01*
X128469722Y-115028909D01*
X128499052Y-114993171D01*
X128582314Y-114891714D01*
X128683771Y-114808452D01*
X128719509Y-114779122D01*
X128876034Y-114695457D01*
X129045873Y-114643937D01*
X129112058Y-114637418D01*
X129178240Y-114630900D01*
X129266760Y-114630900D01*
X129332942Y-114637418D01*
X129332942Y-114637418D01*
G37*
G36*
X131872942Y-114637418D02*
G01*
X131939127Y-114643937D01*
X132108966Y-114695457D01*
X132265491Y-114779122D01*
X132301229Y-114808452D01*
X132402686Y-114891714D01*
X132485948Y-114993171D01*
X132515278Y-115028909D01*
X132598943Y-115185434D01*
X132650463Y-115355273D01*
X132667859Y-115531900D01*
X132650463Y-115708527D01*
X132598943Y-115878366D01*
X132515278Y-116034891D01*
X132485948Y-116070629D01*
X132402686Y-116172086D01*
X132301229Y-116255348D01*
X132265491Y-116284678D01*
X132108966Y-116368343D01*
X131939127Y-116419863D01*
X131872943Y-116426381D01*
X131806760Y-116432900D01*
X131718240Y-116432900D01*
X131652057Y-116426381D01*
X131585873Y-116419863D01*
X131416034Y-116368343D01*
X131259509Y-116284678D01*
X131223771Y-116255348D01*
X131122314Y-116172086D01*
X131039052Y-116070629D01*
X131009722Y-116034891D01*
X130926057Y-115878366D01*
X130874537Y-115708527D01*
X130857141Y-115531900D01*
X130874537Y-115355273D01*
X130926057Y-115185434D01*
X131009722Y-115028909D01*
X131039052Y-114993171D01*
X131122314Y-114891714D01*
X131223771Y-114808452D01*
X131259509Y-114779122D01*
X131416034Y-114695457D01*
X131585873Y-114643937D01*
X131652058Y-114637418D01*
X131718240Y-114630900D01*
X131806760Y-114630900D01*
X131872942Y-114637418D01*
X131872942Y-114637418D01*
G37*
G36*
X126792942Y-114637418D02*
G01*
X126859127Y-114643937D01*
X127028966Y-114695457D01*
X127185491Y-114779122D01*
X127221229Y-114808452D01*
X127322686Y-114891714D01*
X127405948Y-114993171D01*
X127435278Y-115028909D01*
X127518943Y-115185434D01*
X127570463Y-115355273D01*
X127587859Y-115531900D01*
X127570463Y-115708527D01*
X127518943Y-115878366D01*
X127435278Y-116034891D01*
X127405948Y-116070629D01*
X127322686Y-116172086D01*
X127221229Y-116255348D01*
X127185491Y-116284678D01*
X127028966Y-116368343D01*
X126859127Y-116419863D01*
X126792943Y-116426381D01*
X126726760Y-116432900D01*
X126638240Y-116432900D01*
X126572057Y-116426381D01*
X126505873Y-116419863D01*
X126336034Y-116368343D01*
X126179509Y-116284678D01*
X126143771Y-116255348D01*
X126042314Y-116172086D01*
X125959052Y-116070629D01*
X125929722Y-116034891D01*
X125846057Y-115878366D01*
X125794537Y-115708527D01*
X125777141Y-115531900D01*
X125794537Y-115355273D01*
X125846057Y-115185434D01*
X125929722Y-115028909D01*
X125959052Y-114993171D01*
X126042314Y-114891714D01*
X126143771Y-114808452D01*
X126179509Y-114779122D01*
X126336034Y-114695457D01*
X126505873Y-114643937D01*
X126572058Y-114637418D01*
X126638240Y-114630900D01*
X126726760Y-114630900D01*
X126792942Y-114637418D01*
X126792942Y-114637418D01*
G37*
G36*
X152192942Y-114637418D02*
G01*
X152259127Y-114643937D01*
X152428966Y-114695457D01*
X152585491Y-114779122D01*
X152621229Y-114808452D01*
X152722686Y-114891714D01*
X152805948Y-114993171D01*
X152835278Y-115028909D01*
X152918943Y-115185434D01*
X152970463Y-115355273D01*
X152987859Y-115531900D01*
X152970463Y-115708527D01*
X152918943Y-115878366D01*
X152835278Y-116034891D01*
X152805948Y-116070629D01*
X152722686Y-116172086D01*
X152621229Y-116255348D01*
X152585491Y-116284678D01*
X152428966Y-116368343D01*
X152259127Y-116419863D01*
X152192943Y-116426381D01*
X152126760Y-116432900D01*
X152038240Y-116432900D01*
X151972057Y-116426381D01*
X151905873Y-116419863D01*
X151736034Y-116368343D01*
X151579509Y-116284678D01*
X151543771Y-116255348D01*
X151442314Y-116172086D01*
X151359052Y-116070629D01*
X151329722Y-116034891D01*
X151246057Y-115878366D01*
X151194537Y-115708527D01*
X151177141Y-115531900D01*
X151194537Y-115355273D01*
X151246057Y-115185434D01*
X151329722Y-115028909D01*
X151359052Y-114993171D01*
X151442314Y-114891714D01*
X151543771Y-114808452D01*
X151579509Y-114779122D01*
X151736034Y-114695457D01*
X151905873Y-114643937D01*
X151972058Y-114637418D01*
X152038240Y-114630900D01*
X152126760Y-114630900D01*
X152192942Y-114637418D01*
X152192942Y-114637418D01*
G37*
G36*
X134412942Y-114637418D02*
G01*
X134479127Y-114643937D01*
X134648966Y-114695457D01*
X134805491Y-114779122D01*
X134841229Y-114808452D01*
X134942686Y-114891714D01*
X135025948Y-114993171D01*
X135055278Y-115028909D01*
X135138943Y-115185434D01*
X135190463Y-115355273D01*
X135207859Y-115531900D01*
X135190463Y-115708527D01*
X135138943Y-115878366D01*
X135055278Y-116034891D01*
X135025948Y-116070629D01*
X134942686Y-116172086D01*
X134841229Y-116255348D01*
X134805491Y-116284678D01*
X134648966Y-116368343D01*
X134479127Y-116419863D01*
X134412943Y-116426381D01*
X134346760Y-116432900D01*
X134258240Y-116432900D01*
X134192057Y-116426381D01*
X134125873Y-116419863D01*
X133956034Y-116368343D01*
X133799509Y-116284678D01*
X133763771Y-116255348D01*
X133662314Y-116172086D01*
X133579052Y-116070629D01*
X133549722Y-116034891D01*
X133466057Y-115878366D01*
X133414537Y-115708527D01*
X133397141Y-115531900D01*
X133414537Y-115355273D01*
X133466057Y-115185434D01*
X133549722Y-115028909D01*
X133579052Y-114993171D01*
X133662314Y-114891714D01*
X133763771Y-114808452D01*
X133799509Y-114779122D01*
X133956034Y-114695457D01*
X134125873Y-114643937D01*
X134192058Y-114637418D01*
X134258240Y-114630900D01*
X134346760Y-114630900D01*
X134412942Y-114637418D01*
X134412942Y-114637418D01*
G37*
G36*
X136952942Y-114637418D02*
G01*
X137019127Y-114643937D01*
X137188966Y-114695457D01*
X137345491Y-114779122D01*
X137381229Y-114808452D01*
X137482686Y-114891714D01*
X137565948Y-114993171D01*
X137595278Y-115028909D01*
X137678943Y-115185434D01*
X137730463Y-115355273D01*
X137747859Y-115531900D01*
X137730463Y-115708527D01*
X137678943Y-115878366D01*
X137595278Y-116034891D01*
X137565948Y-116070629D01*
X137482686Y-116172086D01*
X137381229Y-116255348D01*
X137345491Y-116284678D01*
X137188966Y-116368343D01*
X137019127Y-116419863D01*
X136952943Y-116426381D01*
X136886760Y-116432900D01*
X136798240Y-116432900D01*
X136732057Y-116426381D01*
X136665873Y-116419863D01*
X136496034Y-116368343D01*
X136339509Y-116284678D01*
X136303771Y-116255348D01*
X136202314Y-116172086D01*
X136119052Y-116070629D01*
X136089722Y-116034891D01*
X136006057Y-115878366D01*
X135954537Y-115708527D01*
X135937141Y-115531900D01*
X135954537Y-115355273D01*
X136006057Y-115185434D01*
X136089722Y-115028909D01*
X136119052Y-114993171D01*
X136202314Y-114891714D01*
X136303771Y-114808452D01*
X136339509Y-114779122D01*
X136496034Y-114695457D01*
X136665873Y-114643937D01*
X136732058Y-114637418D01*
X136798240Y-114630900D01*
X136886760Y-114630900D01*
X136952942Y-114637418D01*
X136952942Y-114637418D01*
G37*
G36*
X149652942Y-114637418D02*
G01*
X149719127Y-114643937D01*
X149888966Y-114695457D01*
X150045491Y-114779122D01*
X150081229Y-114808452D01*
X150182686Y-114891714D01*
X150265948Y-114993171D01*
X150295278Y-115028909D01*
X150378943Y-115185434D01*
X150430463Y-115355273D01*
X150447859Y-115531900D01*
X150430463Y-115708527D01*
X150378943Y-115878366D01*
X150295278Y-116034891D01*
X150265948Y-116070629D01*
X150182686Y-116172086D01*
X150081229Y-116255348D01*
X150045491Y-116284678D01*
X149888966Y-116368343D01*
X149719127Y-116419863D01*
X149652943Y-116426381D01*
X149586760Y-116432900D01*
X149498240Y-116432900D01*
X149432057Y-116426381D01*
X149365873Y-116419863D01*
X149196034Y-116368343D01*
X149039509Y-116284678D01*
X149003771Y-116255348D01*
X148902314Y-116172086D01*
X148819052Y-116070629D01*
X148789722Y-116034891D01*
X148706057Y-115878366D01*
X148654537Y-115708527D01*
X148637141Y-115531900D01*
X148654537Y-115355273D01*
X148706057Y-115185434D01*
X148789722Y-115028909D01*
X148819052Y-114993171D01*
X148902314Y-114891714D01*
X149003771Y-114808452D01*
X149039509Y-114779122D01*
X149196034Y-114695457D01*
X149365873Y-114643937D01*
X149432058Y-114637418D01*
X149498240Y-114630900D01*
X149586760Y-114630900D01*
X149652942Y-114637418D01*
X149652942Y-114637418D01*
G37*
G36*
X139492942Y-114637418D02*
G01*
X139559127Y-114643937D01*
X139728966Y-114695457D01*
X139885491Y-114779122D01*
X139921229Y-114808452D01*
X140022686Y-114891714D01*
X140105948Y-114993171D01*
X140135278Y-115028909D01*
X140218943Y-115185434D01*
X140270463Y-115355273D01*
X140287859Y-115531900D01*
X140270463Y-115708527D01*
X140218943Y-115878366D01*
X140135278Y-116034891D01*
X140105948Y-116070629D01*
X140022686Y-116172086D01*
X139921229Y-116255348D01*
X139885491Y-116284678D01*
X139728966Y-116368343D01*
X139559127Y-116419863D01*
X139492943Y-116426381D01*
X139426760Y-116432900D01*
X139338240Y-116432900D01*
X139272057Y-116426381D01*
X139205873Y-116419863D01*
X139036034Y-116368343D01*
X138879509Y-116284678D01*
X138843771Y-116255348D01*
X138742314Y-116172086D01*
X138659052Y-116070629D01*
X138629722Y-116034891D01*
X138546057Y-115878366D01*
X138494537Y-115708527D01*
X138477141Y-115531900D01*
X138494537Y-115355273D01*
X138546057Y-115185434D01*
X138629722Y-115028909D01*
X138659052Y-114993171D01*
X138742314Y-114891714D01*
X138843771Y-114808452D01*
X138879509Y-114779122D01*
X139036034Y-114695457D01*
X139205873Y-114643937D01*
X139272058Y-114637418D01*
X139338240Y-114630900D01*
X139426760Y-114630900D01*
X139492942Y-114637418D01*
X139492942Y-114637418D01*
G37*
G36*
X142032942Y-114637418D02*
G01*
X142099127Y-114643937D01*
X142268966Y-114695457D01*
X142425491Y-114779122D01*
X142461229Y-114808452D01*
X142562686Y-114891714D01*
X142645948Y-114993171D01*
X142675278Y-115028909D01*
X142758943Y-115185434D01*
X142810463Y-115355273D01*
X142827859Y-115531900D01*
X142810463Y-115708527D01*
X142758943Y-115878366D01*
X142675278Y-116034891D01*
X142645948Y-116070629D01*
X142562686Y-116172086D01*
X142461229Y-116255348D01*
X142425491Y-116284678D01*
X142268966Y-116368343D01*
X142099127Y-116419863D01*
X142032943Y-116426381D01*
X141966760Y-116432900D01*
X141878240Y-116432900D01*
X141812057Y-116426381D01*
X141745873Y-116419863D01*
X141576034Y-116368343D01*
X141419509Y-116284678D01*
X141383771Y-116255348D01*
X141282314Y-116172086D01*
X141199052Y-116070629D01*
X141169722Y-116034891D01*
X141086057Y-115878366D01*
X141034537Y-115708527D01*
X141017141Y-115531900D01*
X141034537Y-115355273D01*
X141086057Y-115185434D01*
X141169722Y-115028909D01*
X141199052Y-114993171D01*
X141282314Y-114891714D01*
X141383771Y-114808452D01*
X141419509Y-114779122D01*
X141576034Y-114695457D01*
X141745873Y-114643937D01*
X141812058Y-114637418D01*
X141878240Y-114630900D01*
X141966760Y-114630900D01*
X142032942Y-114637418D01*
X142032942Y-114637418D01*
G37*
G36*
X147112942Y-114637418D02*
G01*
X147179127Y-114643937D01*
X147348966Y-114695457D01*
X147505491Y-114779122D01*
X147541229Y-114808452D01*
X147642686Y-114891714D01*
X147725948Y-114993171D01*
X147755278Y-115028909D01*
X147838943Y-115185434D01*
X147890463Y-115355273D01*
X147907859Y-115531900D01*
X147890463Y-115708527D01*
X147838943Y-115878366D01*
X147755278Y-116034891D01*
X147725948Y-116070629D01*
X147642686Y-116172086D01*
X147541229Y-116255348D01*
X147505491Y-116284678D01*
X147348966Y-116368343D01*
X147179127Y-116419863D01*
X147112943Y-116426381D01*
X147046760Y-116432900D01*
X146958240Y-116432900D01*
X146892057Y-116426381D01*
X146825873Y-116419863D01*
X146656034Y-116368343D01*
X146499509Y-116284678D01*
X146463771Y-116255348D01*
X146362314Y-116172086D01*
X146279052Y-116070629D01*
X146249722Y-116034891D01*
X146166057Y-115878366D01*
X146114537Y-115708527D01*
X146097141Y-115531900D01*
X146114537Y-115355273D01*
X146166057Y-115185434D01*
X146249722Y-115028909D01*
X146279052Y-114993171D01*
X146362314Y-114891714D01*
X146463771Y-114808452D01*
X146499509Y-114779122D01*
X146656034Y-114695457D01*
X146825873Y-114643937D01*
X146892058Y-114637418D01*
X146958240Y-114630900D01*
X147046760Y-114630900D01*
X147112942Y-114637418D01*
X147112942Y-114637418D01*
G37*
G36*
X144572942Y-114637418D02*
G01*
X144639127Y-114643937D01*
X144808966Y-114695457D01*
X144965491Y-114779122D01*
X145001229Y-114808452D01*
X145102686Y-114891714D01*
X145185948Y-114993171D01*
X145215278Y-115028909D01*
X145298943Y-115185434D01*
X145350463Y-115355273D01*
X145367859Y-115531900D01*
X145350463Y-115708527D01*
X145298943Y-115878366D01*
X145215278Y-116034891D01*
X145185948Y-116070629D01*
X145102686Y-116172086D01*
X145001229Y-116255348D01*
X144965491Y-116284678D01*
X144808966Y-116368343D01*
X144639127Y-116419863D01*
X144572943Y-116426381D01*
X144506760Y-116432900D01*
X144418240Y-116432900D01*
X144352057Y-116426381D01*
X144285873Y-116419863D01*
X144116034Y-116368343D01*
X143959509Y-116284678D01*
X143923771Y-116255348D01*
X143822314Y-116172086D01*
X143739052Y-116070629D01*
X143709722Y-116034891D01*
X143626057Y-115878366D01*
X143574537Y-115708527D01*
X143557141Y-115531900D01*
X143574537Y-115355273D01*
X143626057Y-115185434D01*
X143709722Y-115028909D01*
X143739052Y-114993171D01*
X143822314Y-114891714D01*
X143923771Y-114808452D01*
X143959509Y-114779122D01*
X144116034Y-114695457D01*
X144285873Y-114643937D01*
X144352058Y-114637418D01*
X144418240Y-114630900D01*
X144506760Y-114630900D01*
X144572942Y-114637418D01*
X144572942Y-114637418D01*
G37*
G36*
X157272942Y-114637418D02*
G01*
X157339127Y-114643937D01*
X157508966Y-114695457D01*
X157665491Y-114779122D01*
X157701229Y-114808452D01*
X157802686Y-114891714D01*
X157885948Y-114993171D01*
X157915278Y-115028909D01*
X157998943Y-115185434D01*
X158050463Y-115355273D01*
X158067859Y-115531900D01*
X158050463Y-115708527D01*
X157998943Y-115878366D01*
X157915278Y-116034891D01*
X157885948Y-116070629D01*
X157802686Y-116172086D01*
X157701229Y-116255348D01*
X157665491Y-116284678D01*
X157508966Y-116368343D01*
X157339127Y-116419863D01*
X157272943Y-116426381D01*
X157206760Y-116432900D01*
X157118240Y-116432900D01*
X157052057Y-116426381D01*
X156985873Y-116419863D01*
X156816034Y-116368343D01*
X156659509Y-116284678D01*
X156623771Y-116255348D01*
X156522314Y-116172086D01*
X156439052Y-116070629D01*
X156409722Y-116034891D01*
X156326057Y-115878366D01*
X156274537Y-115708527D01*
X156257141Y-115531900D01*
X156274537Y-115355273D01*
X156326057Y-115185434D01*
X156409722Y-115028909D01*
X156439052Y-114993171D01*
X156522314Y-114891714D01*
X156623771Y-114808452D01*
X156659509Y-114779122D01*
X156816034Y-114695457D01*
X156985873Y-114643937D01*
X157052058Y-114637418D01*
X157118240Y-114630900D01*
X157206760Y-114630900D01*
X157272942Y-114637418D01*
X157272942Y-114637418D01*
G37*
G36*
X121712942Y-114637418D02*
G01*
X121779127Y-114643937D01*
X121948966Y-114695457D01*
X122105491Y-114779122D01*
X122141229Y-114808452D01*
X122242686Y-114891714D01*
X122325948Y-114993171D01*
X122355278Y-115028909D01*
X122438943Y-115185434D01*
X122490463Y-115355273D01*
X122507859Y-115531900D01*
X122490463Y-115708527D01*
X122438943Y-115878366D01*
X122355278Y-116034891D01*
X122325948Y-116070629D01*
X122242686Y-116172086D01*
X122141229Y-116255348D01*
X122105491Y-116284678D01*
X121948966Y-116368343D01*
X121779127Y-116419863D01*
X121712943Y-116426381D01*
X121646760Y-116432900D01*
X121558240Y-116432900D01*
X121492057Y-116426381D01*
X121425873Y-116419863D01*
X121256034Y-116368343D01*
X121099509Y-116284678D01*
X121063771Y-116255348D01*
X120962314Y-116172086D01*
X120879052Y-116070629D01*
X120849722Y-116034891D01*
X120766057Y-115878366D01*
X120714537Y-115708527D01*
X120697141Y-115531900D01*
X120714537Y-115355273D01*
X120766057Y-115185434D01*
X120849722Y-115028909D01*
X120879052Y-114993171D01*
X120962314Y-114891714D01*
X121063771Y-114808452D01*
X121099509Y-114779122D01*
X121256034Y-114695457D01*
X121425873Y-114643937D01*
X121492058Y-114637418D01*
X121558240Y-114630900D01*
X121646760Y-114630900D01*
X121712942Y-114637418D01*
X121712942Y-114637418D01*
G37*
G36*
X104723500Y-116432900D02*
G01*
X102921500Y-116432900D01*
X102921500Y-114630900D01*
X104723500Y-114630900D01*
X104723500Y-116432900D01*
X104723500Y-116432900D01*
G37*
G36*
X167432942Y-114637418D02*
G01*
X167499127Y-114643937D01*
X167668966Y-114695457D01*
X167825491Y-114779122D01*
X167861229Y-114808452D01*
X167962686Y-114891714D01*
X168045948Y-114993171D01*
X168075278Y-115028909D01*
X168158943Y-115185434D01*
X168210463Y-115355273D01*
X168227859Y-115531900D01*
X168210463Y-115708527D01*
X168158943Y-115878366D01*
X168075278Y-116034891D01*
X168045948Y-116070629D01*
X167962686Y-116172086D01*
X167861229Y-116255348D01*
X167825491Y-116284678D01*
X167668966Y-116368343D01*
X167499127Y-116419863D01*
X167432943Y-116426381D01*
X167366760Y-116432900D01*
X167278240Y-116432900D01*
X167212057Y-116426381D01*
X167145873Y-116419863D01*
X166976034Y-116368343D01*
X166819509Y-116284678D01*
X166783771Y-116255348D01*
X166682314Y-116172086D01*
X166599052Y-116070629D01*
X166569722Y-116034891D01*
X166486057Y-115878366D01*
X166434537Y-115708527D01*
X166417141Y-115531900D01*
X166434537Y-115355273D01*
X166486057Y-115185434D01*
X166569722Y-115028909D01*
X166599052Y-114993171D01*
X166682314Y-114891714D01*
X166783771Y-114808452D01*
X166819509Y-114779122D01*
X166976034Y-114695457D01*
X167145873Y-114643937D01*
X167212058Y-114637418D01*
X167278240Y-114630900D01*
X167366760Y-114630900D01*
X167432942Y-114637418D01*
X167432942Y-114637418D01*
G37*
G36*
X106472942Y-114637418D02*
G01*
X106539127Y-114643937D01*
X106708966Y-114695457D01*
X106865491Y-114779122D01*
X106901229Y-114808452D01*
X107002686Y-114891714D01*
X107085948Y-114993171D01*
X107115278Y-115028909D01*
X107198943Y-115185434D01*
X107250463Y-115355273D01*
X107267859Y-115531900D01*
X107250463Y-115708527D01*
X107198943Y-115878366D01*
X107115278Y-116034891D01*
X107085948Y-116070629D01*
X107002686Y-116172086D01*
X106901229Y-116255348D01*
X106865491Y-116284678D01*
X106708966Y-116368343D01*
X106539127Y-116419863D01*
X106472943Y-116426381D01*
X106406760Y-116432900D01*
X106318240Y-116432900D01*
X106252057Y-116426381D01*
X106185873Y-116419863D01*
X106016034Y-116368343D01*
X105859509Y-116284678D01*
X105823771Y-116255348D01*
X105722314Y-116172086D01*
X105639052Y-116070629D01*
X105609722Y-116034891D01*
X105526057Y-115878366D01*
X105474537Y-115708527D01*
X105457141Y-115531900D01*
X105474537Y-115355273D01*
X105526057Y-115185434D01*
X105609722Y-115028909D01*
X105639052Y-114993171D01*
X105722314Y-114891714D01*
X105823771Y-114808452D01*
X105859509Y-114779122D01*
X106016034Y-114695457D01*
X106185873Y-114643937D01*
X106252058Y-114637418D01*
X106318240Y-114630900D01*
X106406760Y-114630900D01*
X106472942Y-114637418D01*
X106472942Y-114637418D01*
G37*
G36*
X109012942Y-114637418D02*
G01*
X109079127Y-114643937D01*
X109248966Y-114695457D01*
X109405491Y-114779122D01*
X109441229Y-114808452D01*
X109542686Y-114891714D01*
X109625948Y-114993171D01*
X109655278Y-115028909D01*
X109738943Y-115185434D01*
X109790463Y-115355273D01*
X109807859Y-115531900D01*
X109790463Y-115708527D01*
X109738943Y-115878366D01*
X109655278Y-116034891D01*
X109625948Y-116070629D01*
X109542686Y-116172086D01*
X109441229Y-116255348D01*
X109405491Y-116284678D01*
X109248966Y-116368343D01*
X109079127Y-116419863D01*
X109012943Y-116426381D01*
X108946760Y-116432900D01*
X108858240Y-116432900D01*
X108792057Y-116426381D01*
X108725873Y-116419863D01*
X108556034Y-116368343D01*
X108399509Y-116284678D01*
X108363771Y-116255348D01*
X108262314Y-116172086D01*
X108179052Y-116070629D01*
X108149722Y-116034891D01*
X108066057Y-115878366D01*
X108014537Y-115708527D01*
X107997141Y-115531900D01*
X108014537Y-115355273D01*
X108066057Y-115185434D01*
X108149722Y-115028909D01*
X108179052Y-114993171D01*
X108262314Y-114891714D01*
X108363771Y-114808452D01*
X108399509Y-114779122D01*
X108556034Y-114695457D01*
X108725873Y-114643937D01*
X108792058Y-114637418D01*
X108858240Y-114630900D01*
X108946760Y-114630900D01*
X109012942Y-114637418D01*
X109012942Y-114637418D01*
G37*
G36*
X111552942Y-114637418D02*
G01*
X111619127Y-114643937D01*
X111788966Y-114695457D01*
X111945491Y-114779122D01*
X111981229Y-114808452D01*
X112082686Y-114891714D01*
X112165948Y-114993171D01*
X112195278Y-115028909D01*
X112278943Y-115185434D01*
X112330463Y-115355273D01*
X112347859Y-115531900D01*
X112330463Y-115708527D01*
X112278943Y-115878366D01*
X112195278Y-116034891D01*
X112165948Y-116070629D01*
X112082686Y-116172086D01*
X111981229Y-116255348D01*
X111945491Y-116284678D01*
X111788966Y-116368343D01*
X111619127Y-116419863D01*
X111552943Y-116426381D01*
X111486760Y-116432900D01*
X111398240Y-116432900D01*
X111332057Y-116426381D01*
X111265873Y-116419863D01*
X111096034Y-116368343D01*
X110939509Y-116284678D01*
X110903771Y-116255348D01*
X110802314Y-116172086D01*
X110719052Y-116070629D01*
X110689722Y-116034891D01*
X110606057Y-115878366D01*
X110554537Y-115708527D01*
X110537141Y-115531900D01*
X110554537Y-115355273D01*
X110606057Y-115185434D01*
X110689722Y-115028909D01*
X110719052Y-114993171D01*
X110802314Y-114891714D01*
X110903771Y-114808452D01*
X110939509Y-114779122D01*
X111096034Y-114695457D01*
X111265873Y-114643937D01*
X111332058Y-114637418D01*
X111398240Y-114630900D01*
X111486760Y-114630900D01*
X111552942Y-114637418D01*
X111552942Y-114637418D01*
G37*
G36*
X124252942Y-114637418D02*
G01*
X124319127Y-114643937D01*
X124488966Y-114695457D01*
X124645491Y-114779122D01*
X124681229Y-114808452D01*
X124782686Y-114891714D01*
X124865948Y-114993171D01*
X124895278Y-115028909D01*
X124978943Y-115185434D01*
X125030463Y-115355273D01*
X125047859Y-115531900D01*
X125030463Y-115708527D01*
X124978943Y-115878366D01*
X124895278Y-116034891D01*
X124865948Y-116070629D01*
X124782686Y-116172086D01*
X124681229Y-116255348D01*
X124645491Y-116284678D01*
X124488966Y-116368343D01*
X124319127Y-116419863D01*
X124252943Y-116426381D01*
X124186760Y-116432900D01*
X124098240Y-116432900D01*
X124032057Y-116426381D01*
X123965873Y-116419863D01*
X123796034Y-116368343D01*
X123639509Y-116284678D01*
X123603771Y-116255348D01*
X123502314Y-116172086D01*
X123419052Y-116070629D01*
X123389722Y-116034891D01*
X123306057Y-115878366D01*
X123254537Y-115708527D01*
X123237141Y-115531900D01*
X123254537Y-115355273D01*
X123306057Y-115185434D01*
X123389722Y-115028909D01*
X123419052Y-114993171D01*
X123502314Y-114891714D01*
X123603771Y-114808452D01*
X123639509Y-114779122D01*
X123796034Y-114695457D01*
X123965873Y-114643937D01*
X124032058Y-114637418D01*
X124098240Y-114630900D01*
X124186760Y-114630900D01*
X124252942Y-114637418D01*
X124252942Y-114637418D01*
G37*
G36*
X114092942Y-114637418D02*
G01*
X114159127Y-114643937D01*
X114328966Y-114695457D01*
X114485491Y-114779122D01*
X114521229Y-114808452D01*
X114622686Y-114891714D01*
X114705948Y-114993171D01*
X114735278Y-115028909D01*
X114818943Y-115185434D01*
X114870463Y-115355273D01*
X114887859Y-115531900D01*
X114870463Y-115708527D01*
X114818943Y-115878366D01*
X114735278Y-116034891D01*
X114705948Y-116070629D01*
X114622686Y-116172086D01*
X114521229Y-116255348D01*
X114485491Y-116284678D01*
X114328966Y-116368343D01*
X114159127Y-116419863D01*
X114092943Y-116426381D01*
X114026760Y-116432900D01*
X113938240Y-116432900D01*
X113872057Y-116426381D01*
X113805873Y-116419863D01*
X113636034Y-116368343D01*
X113479509Y-116284678D01*
X113443771Y-116255348D01*
X113342314Y-116172086D01*
X113259052Y-116070629D01*
X113229722Y-116034891D01*
X113146057Y-115878366D01*
X113094537Y-115708527D01*
X113077141Y-115531900D01*
X113094537Y-115355273D01*
X113146057Y-115185434D01*
X113229722Y-115028909D01*
X113259052Y-114993171D01*
X113342314Y-114891714D01*
X113443771Y-114808452D01*
X113479509Y-114779122D01*
X113636034Y-114695457D01*
X113805873Y-114643937D01*
X113872058Y-114637418D01*
X113938240Y-114630900D01*
X114026760Y-114630900D01*
X114092942Y-114637418D01*
X114092942Y-114637418D01*
G37*
G36*
X116632942Y-114637418D02*
G01*
X116699127Y-114643937D01*
X116868966Y-114695457D01*
X117025491Y-114779122D01*
X117061229Y-114808452D01*
X117162686Y-114891714D01*
X117245948Y-114993171D01*
X117275278Y-115028909D01*
X117358943Y-115185434D01*
X117410463Y-115355273D01*
X117427859Y-115531900D01*
X117410463Y-115708527D01*
X117358943Y-115878366D01*
X117275278Y-116034891D01*
X117245948Y-116070629D01*
X117162686Y-116172086D01*
X117061229Y-116255348D01*
X117025491Y-116284678D01*
X116868966Y-116368343D01*
X116699127Y-116419863D01*
X116632943Y-116426381D01*
X116566760Y-116432900D01*
X116478240Y-116432900D01*
X116412057Y-116426381D01*
X116345873Y-116419863D01*
X116176034Y-116368343D01*
X116019509Y-116284678D01*
X115983771Y-116255348D01*
X115882314Y-116172086D01*
X115799052Y-116070629D01*
X115769722Y-116034891D01*
X115686057Y-115878366D01*
X115634537Y-115708527D01*
X115617141Y-115531900D01*
X115634537Y-115355273D01*
X115686057Y-115185434D01*
X115769722Y-115028909D01*
X115799052Y-114993171D01*
X115882314Y-114891714D01*
X115983771Y-114808452D01*
X116019509Y-114779122D01*
X116176034Y-114695457D01*
X116345873Y-114643937D01*
X116412058Y-114637418D01*
X116478240Y-114630900D01*
X116566760Y-114630900D01*
X116632942Y-114637418D01*
X116632942Y-114637418D01*
G37*
G36*
X159812942Y-114637418D02*
G01*
X159879127Y-114643937D01*
X160048966Y-114695457D01*
X160205491Y-114779122D01*
X160241229Y-114808452D01*
X160342686Y-114891714D01*
X160425948Y-114993171D01*
X160455278Y-115028909D01*
X160538943Y-115185434D01*
X160590463Y-115355273D01*
X160607859Y-115531900D01*
X160590463Y-115708527D01*
X160538943Y-115878366D01*
X160455278Y-116034891D01*
X160425948Y-116070629D01*
X160342686Y-116172086D01*
X160241229Y-116255348D01*
X160205491Y-116284678D01*
X160048966Y-116368343D01*
X159879127Y-116419863D01*
X159812943Y-116426381D01*
X159746760Y-116432900D01*
X159658240Y-116432900D01*
X159592057Y-116426381D01*
X159525873Y-116419863D01*
X159356034Y-116368343D01*
X159199509Y-116284678D01*
X159163771Y-116255348D01*
X159062314Y-116172086D01*
X158979052Y-116070629D01*
X158949722Y-116034891D01*
X158866057Y-115878366D01*
X158814537Y-115708527D01*
X158797141Y-115531900D01*
X158814537Y-115355273D01*
X158866057Y-115185434D01*
X158949722Y-115028909D01*
X158979052Y-114993171D01*
X159062314Y-114891714D01*
X159163771Y-114808452D01*
X159199509Y-114779122D01*
X159356034Y-114695457D01*
X159525873Y-114643937D01*
X159592058Y-114637418D01*
X159658240Y-114630900D01*
X159746760Y-114630900D01*
X159812942Y-114637418D01*
X159812942Y-114637418D01*
G37*
G36*
X119172942Y-114637418D02*
G01*
X119239127Y-114643937D01*
X119408966Y-114695457D01*
X119565491Y-114779122D01*
X119601229Y-114808452D01*
X119702686Y-114891714D01*
X119785948Y-114993171D01*
X119815278Y-115028909D01*
X119898943Y-115185434D01*
X119950463Y-115355273D01*
X119967859Y-115531900D01*
X119950463Y-115708527D01*
X119898943Y-115878366D01*
X119815278Y-116034891D01*
X119785948Y-116070629D01*
X119702686Y-116172086D01*
X119601229Y-116255348D01*
X119565491Y-116284678D01*
X119408966Y-116368343D01*
X119239127Y-116419863D01*
X119172943Y-116426381D01*
X119106760Y-116432900D01*
X119018240Y-116432900D01*
X118952057Y-116426381D01*
X118885873Y-116419863D01*
X118716034Y-116368343D01*
X118559509Y-116284678D01*
X118523771Y-116255348D01*
X118422314Y-116172086D01*
X118339052Y-116070629D01*
X118309722Y-116034891D01*
X118226057Y-115878366D01*
X118174537Y-115708527D01*
X118157141Y-115531900D01*
X118174537Y-115355273D01*
X118226057Y-115185434D01*
X118309722Y-115028909D01*
X118339052Y-114993171D01*
X118422314Y-114891714D01*
X118523771Y-114808452D01*
X118559509Y-114779122D01*
X118716034Y-114695457D01*
X118885873Y-114643937D01*
X118952058Y-114637418D01*
X119018240Y-114630900D01*
X119106760Y-114630900D01*
X119172942Y-114637418D01*
X119172942Y-114637418D01*
G37*
G36*
X162352942Y-114637418D02*
G01*
X162419127Y-114643937D01*
X162588966Y-114695457D01*
X162745491Y-114779122D01*
X162781229Y-114808452D01*
X162882686Y-114891714D01*
X162965948Y-114993171D01*
X162995278Y-115028909D01*
X163078943Y-115185434D01*
X163130463Y-115355273D01*
X163147859Y-115531900D01*
X163130463Y-115708527D01*
X163078943Y-115878366D01*
X162995278Y-116034891D01*
X162965948Y-116070629D01*
X162882686Y-116172086D01*
X162781229Y-116255348D01*
X162745491Y-116284678D01*
X162588966Y-116368343D01*
X162419127Y-116419863D01*
X162352943Y-116426381D01*
X162286760Y-116432900D01*
X162198240Y-116432900D01*
X162132057Y-116426381D01*
X162065873Y-116419863D01*
X161896034Y-116368343D01*
X161739509Y-116284678D01*
X161703771Y-116255348D01*
X161602314Y-116172086D01*
X161519052Y-116070629D01*
X161489722Y-116034891D01*
X161406057Y-115878366D01*
X161354537Y-115708527D01*
X161337141Y-115531900D01*
X161354537Y-115355273D01*
X161406057Y-115185434D01*
X161489722Y-115028909D01*
X161519052Y-114993171D01*
X161602314Y-114891714D01*
X161703771Y-114808452D01*
X161739509Y-114779122D01*
X161896034Y-114695457D01*
X162065873Y-114643937D01*
X162132058Y-114637418D01*
X162198240Y-114630900D01*
X162286760Y-114630900D01*
X162352942Y-114637418D01*
X162352942Y-114637418D01*
G37*
G36*
X147153387Y-100704596D02*
G01*
X147390153Y-100802668D01*
X147390155Y-100802669D01*
X147603239Y-100945047D01*
X147784453Y-101126261D01*
X147886410Y-101278850D01*
X147926832Y-101339347D01*
X148024904Y-101576113D01*
X148074900Y-101827461D01*
X148074900Y-102083739D01*
X148024904Y-102335087D01*
X147932092Y-102559155D01*
X147926831Y-102571855D01*
X147784453Y-102784939D01*
X147603239Y-102966153D01*
X147390155Y-103108531D01*
X147390154Y-103108532D01*
X147390153Y-103108532D01*
X147153387Y-103206604D01*
X146902039Y-103256600D01*
X146645761Y-103256600D01*
X146394413Y-103206604D01*
X146157647Y-103108532D01*
X146157646Y-103108532D01*
X146157645Y-103108531D01*
X145944561Y-102966153D01*
X145763347Y-102784939D01*
X145620969Y-102571855D01*
X145615708Y-102559155D01*
X145522896Y-102335087D01*
X145472900Y-102083739D01*
X145472900Y-101827461D01*
X145522896Y-101576113D01*
X145620968Y-101339347D01*
X145661391Y-101278850D01*
X145763347Y-101126261D01*
X145944561Y-100945047D01*
X146157645Y-100802669D01*
X146157647Y-100802668D01*
X146394413Y-100704596D01*
X146645761Y-100654600D01*
X146902039Y-100654600D01*
X147153387Y-100704596D01*
X147153387Y-100704596D01*
G37*
G36*
X152182587Y-100704596D02*
G01*
X152419353Y-100802668D01*
X152419355Y-100802669D01*
X152632439Y-100945047D01*
X152813653Y-101126261D01*
X152915610Y-101278850D01*
X152956032Y-101339347D01*
X153054104Y-101576113D01*
X153104100Y-101827461D01*
X153104100Y-102083739D01*
X153054104Y-102335087D01*
X152961292Y-102559155D01*
X152956031Y-102571855D01*
X152813653Y-102784939D01*
X152632439Y-102966153D01*
X152419355Y-103108531D01*
X152419354Y-103108532D01*
X152419353Y-103108532D01*
X152182587Y-103206604D01*
X151931239Y-103256600D01*
X151674961Y-103256600D01*
X151423613Y-103206604D01*
X151186847Y-103108532D01*
X151186846Y-103108532D01*
X151186845Y-103108531D01*
X150973761Y-102966153D01*
X150792547Y-102784939D01*
X150650169Y-102571855D01*
X150644908Y-102559155D01*
X150552096Y-102335087D01*
X150502100Y-102083739D01*
X150502100Y-101827461D01*
X150552096Y-101576113D01*
X150650168Y-101339347D01*
X150690591Y-101278850D01*
X150792547Y-101126261D01*
X150973761Y-100945047D01*
X151186845Y-100802669D01*
X151186847Y-100802668D01*
X151423613Y-100704596D01*
X151674961Y-100654600D01*
X151931239Y-100654600D01*
X152182587Y-100704596D01*
X152182587Y-100704596D01*
G37*
G36*
X157160987Y-100704596D02*
G01*
X157397753Y-100802668D01*
X157397755Y-100802669D01*
X157610839Y-100945047D01*
X157792053Y-101126261D01*
X157894010Y-101278850D01*
X157934432Y-101339347D01*
X158032504Y-101576113D01*
X158082500Y-101827461D01*
X158082500Y-102083739D01*
X158032504Y-102335087D01*
X157939692Y-102559155D01*
X157934431Y-102571855D01*
X157792053Y-102784939D01*
X157610839Y-102966153D01*
X157397755Y-103108531D01*
X157397754Y-103108532D01*
X157397753Y-103108532D01*
X157160987Y-103206604D01*
X156909639Y-103256600D01*
X156653361Y-103256600D01*
X156402013Y-103206604D01*
X156165247Y-103108532D01*
X156165246Y-103108532D01*
X156165245Y-103108531D01*
X155952161Y-102966153D01*
X155770947Y-102784939D01*
X155628569Y-102571855D01*
X155623308Y-102559155D01*
X155530496Y-102335087D01*
X155480500Y-102083739D01*
X155480500Y-101827461D01*
X155530496Y-101576113D01*
X155628568Y-101339347D01*
X155668991Y-101278850D01*
X155770947Y-101126261D01*
X155952161Y-100945047D01*
X156165245Y-100802669D01*
X156165247Y-100802668D01*
X156402013Y-100704596D01*
X156653361Y-100654600D01*
X156909639Y-100654600D01*
X157160987Y-100704596D01*
X157160987Y-100704596D01*
G37*
G36*
X142136887Y-100691896D02*
G01*
X142373653Y-100789968D01*
X142373655Y-100789969D01*
X142535565Y-100898154D01*
X142586739Y-100932347D01*
X142767953Y-101113561D01*
X142910332Y-101326647D01*
X143008404Y-101563413D01*
X143058400Y-101814761D01*
X143058400Y-102071039D01*
X143008404Y-102322387D01*
X142935044Y-102499493D01*
X142910331Y-102559155D01*
X142767953Y-102772239D01*
X142586739Y-102953453D01*
X142373655Y-103095831D01*
X142373654Y-103095832D01*
X142373653Y-103095832D01*
X142136887Y-103193904D01*
X141885539Y-103243900D01*
X141629261Y-103243900D01*
X141377913Y-103193904D01*
X141141147Y-103095832D01*
X141141146Y-103095832D01*
X141141145Y-103095831D01*
X140928061Y-102953453D01*
X140746847Y-102772239D01*
X140604469Y-102559155D01*
X140579756Y-102499493D01*
X140506396Y-102322387D01*
X140456400Y-102071039D01*
X140456400Y-101814761D01*
X140506396Y-101563413D01*
X140604468Y-101326647D01*
X140746847Y-101113561D01*
X140928061Y-100932347D01*
X140979235Y-100898154D01*
X141141145Y-100789969D01*
X141141147Y-100789968D01*
X141377913Y-100691896D01*
X141629261Y-100641900D01*
X141885539Y-100641900D01*
X142136887Y-100691896D01*
X142136887Y-100691896D01*
G37*
G36*
X126202856Y-100515911D02*
G01*
X126330550Y-100541311D01*
X126530920Y-100624307D01*
X126711244Y-100744795D01*
X126864605Y-100898156D01*
X126985093Y-101078480D01*
X127068089Y-101278851D01*
X127105348Y-101466160D01*
X127110400Y-101491561D01*
X127110400Y-101708439D01*
X127073142Y-101895749D01*
X127068089Y-101921149D01*
X126985093Y-102121520D01*
X126864605Y-102301844D01*
X126711244Y-102455205D01*
X126530920Y-102575693D01*
X126330550Y-102658689D01*
X126245533Y-102675600D01*
X126117840Y-102701000D01*
X125900960Y-102701000D01*
X125773267Y-102675600D01*
X125688250Y-102658689D01*
X125487880Y-102575693D01*
X125307556Y-102455205D01*
X125154195Y-102301844D01*
X125033707Y-102121520D01*
X124950711Y-101921149D01*
X124945659Y-101895749D01*
X124908400Y-101708439D01*
X124908400Y-101491561D01*
X124913453Y-101466160D01*
X124950711Y-101278851D01*
X125033707Y-101078480D01*
X125154195Y-100898156D01*
X125307556Y-100744795D01*
X125487880Y-100624307D01*
X125588066Y-100582809D01*
X125688250Y-100541311D01*
X125815944Y-100515911D01*
X125900960Y-100499000D01*
X126117840Y-100499000D01*
X126202856Y-100515911D01*
X126202856Y-100515911D01*
G37*
G36*
X128742856Y-100515911D02*
G01*
X128870550Y-100541311D01*
X129070920Y-100624307D01*
X129251244Y-100744795D01*
X129404605Y-100898156D01*
X129525093Y-101078480D01*
X129608089Y-101278851D01*
X129645348Y-101466160D01*
X129650400Y-101491561D01*
X129650400Y-101708439D01*
X129613142Y-101895749D01*
X129608089Y-101921149D01*
X129525093Y-102121520D01*
X129404605Y-102301844D01*
X129251244Y-102455205D01*
X129070920Y-102575693D01*
X128870550Y-102658689D01*
X128785533Y-102675600D01*
X128657840Y-102701000D01*
X128440960Y-102701000D01*
X128313267Y-102675600D01*
X128228250Y-102658689D01*
X128027880Y-102575693D01*
X127847556Y-102455205D01*
X127694195Y-102301844D01*
X127573707Y-102121520D01*
X127490711Y-101921149D01*
X127485659Y-101895749D01*
X127448400Y-101708439D01*
X127448400Y-101491561D01*
X127453453Y-101466160D01*
X127490711Y-101278851D01*
X127573707Y-101078480D01*
X127694195Y-100898156D01*
X127847556Y-100744795D01*
X128027880Y-100624307D01*
X128128066Y-100582809D01*
X128228250Y-100541311D01*
X128355944Y-100515911D01*
X128440960Y-100499000D01*
X128657840Y-100499000D01*
X128742856Y-100515911D01*
X128742856Y-100515911D01*
G37*
G36*
X131282856Y-100515911D02*
G01*
X131410550Y-100541311D01*
X131610920Y-100624307D01*
X131791244Y-100744795D01*
X131944605Y-100898156D01*
X132065093Y-101078480D01*
X132148089Y-101278851D01*
X132185348Y-101466160D01*
X132190400Y-101491561D01*
X132190400Y-101708439D01*
X132153142Y-101895749D01*
X132148089Y-101921149D01*
X132065093Y-102121520D01*
X131944605Y-102301844D01*
X131791244Y-102455205D01*
X131610920Y-102575693D01*
X131410550Y-102658689D01*
X131325533Y-102675600D01*
X131197840Y-102701000D01*
X130980960Y-102701000D01*
X130853267Y-102675600D01*
X130768250Y-102658689D01*
X130567880Y-102575693D01*
X130387556Y-102455205D01*
X130234195Y-102301844D01*
X130113707Y-102121520D01*
X130030711Y-101921149D01*
X130025659Y-101895749D01*
X129988400Y-101708439D01*
X129988400Y-101491561D01*
X129993453Y-101466160D01*
X130030711Y-101278851D01*
X130113707Y-101078480D01*
X130234195Y-100898156D01*
X130387556Y-100744795D01*
X130567880Y-100624307D01*
X130668066Y-100582809D01*
X130768250Y-100541311D01*
X130895944Y-100515911D01*
X130980960Y-100499000D01*
X131197840Y-100499000D01*
X131282856Y-100515911D01*
X131282856Y-100515911D01*
G37*
G36*
X133822856Y-100515911D02*
G01*
X133950550Y-100541311D01*
X134150920Y-100624307D01*
X134331244Y-100744795D01*
X134484605Y-100898156D01*
X134605093Y-101078480D01*
X134688089Y-101278851D01*
X134725348Y-101466160D01*
X134730400Y-101491561D01*
X134730400Y-101708439D01*
X134693142Y-101895749D01*
X134688089Y-101921149D01*
X134605093Y-102121520D01*
X134484605Y-102301844D01*
X134331244Y-102455205D01*
X134150920Y-102575693D01*
X133950550Y-102658689D01*
X133865533Y-102675600D01*
X133737840Y-102701000D01*
X133520960Y-102701000D01*
X133393267Y-102675600D01*
X133308250Y-102658689D01*
X133107880Y-102575693D01*
X132927556Y-102455205D01*
X132774195Y-102301844D01*
X132653707Y-102121520D01*
X132570711Y-101921149D01*
X132565659Y-101895749D01*
X132528400Y-101708439D01*
X132528400Y-101491561D01*
X132533453Y-101466160D01*
X132570711Y-101278851D01*
X132653707Y-101078480D01*
X132774195Y-100898156D01*
X132927556Y-100744795D01*
X133107880Y-100624307D01*
X133208066Y-100582809D01*
X133308250Y-100541311D01*
X133435944Y-100515911D01*
X133520960Y-100499000D01*
X133737840Y-100499000D01*
X133822856Y-100515911D01*
X133822856Y-100515911D01*
G37*
G36*
X136362856Y-100515911D02*
G01*
X136490550Y-100541311D01*
X136690920Y-100624307D01*
X136871244Y-100744795D01*
X137024605Y-100898156D01*
X137145093Y-101078480D01*
X137228089Y-101278851D01*
X137265348Y-101466160D01*
X137270400Y-101491561D01*
X137270400Y-101708439D01*
X137233142Y-101895749D01*
X137228089Y-101921149D01*
X137145093Y-102121520D01*
X137024605Y-102301844D01*
X136871244Y-102455205D01*
X136690920Y-102575693D01*
X136490550Y-102658689D01*
X136405533Y-102675600D01*
X136277840Y-102701000D01*
X136060960Y-102701000D01*
X135933267Y-102675600D01*
X135848250Y-102658689D01*
X135647880Y-102575693D01*
X135467556Y-102455205D01*
X135314195Y-102301844D01*
X135193707Y-102121520D01*
X135110711Y-101921149D01*
X135105659Y-101895749D01*
X135068400Y-101708439D01*
X135068400Y-101491561D01*
X135073453Y-101466160D01*
X135110711Y-101278851D01*
X135193707Y-101078480D01*
X135314195Y-100898156D01*
X135467556Y-100744795D01*
X135647880Y-100624307D01*
X135748066Y-100582809D01*
X135848250Y-100541311D01*
X135975944Y-100515911D01*
X136060960Y-100499000D01*
X136277840Y-100499000D01*
X136362856Y-100515911D01*
X136362856Y-100515911D01*
G37*
G36*
X118604194Y-100494755D02*
G01*
X118710550Y-100515911D01*
X118810734Y-100557409D01*
X118910920Y-100598907D01*
X119091244Y-100719395D01*
X119244605Y-100872756D01*
X119365093Y-101053080D01*
X119365093Y-101053081D01*
X119448089Y-101253450D01*
X119462648Y-101326645D01*
X119490400Y-101466160D01*
X119490400Y-101683040D01*
X119448089Y-101895749D01*
X119365093Y-102096120D01*
X119244605Y-102276444D01*
X119091244Y-102429805D01*
X118910920Y-102550293D01*
X118810734Y-102591791D01*
X118710550Y-102633289D01*
X118604194Y-102654445D01*
X118497840Y-102675600D01*
X118280960Y-102675600D01*
X118174606Y-102654445D01*
X118068250Y-102633289D01*
X117867880Y-102550293D01*
X117687556Y-102429805D01*
X117534195Y-102276444D01*
X117413707Y-102096120D01*
X117330711Y-101895749D01*
X117288400Y-101683040D01*
X117288400Y-101466160D01*
X117316152Y-101326645D01*
X117330711Y-101253450D01*
X117413707Y-101053081D01*
X117413707Y-101053080D01*
X117534195Y-100872756D01*
X117687556Y-100719395D01*
X117867880Y-100598907D01*
X118068250Y-100515911D01*
X118174606Y-100494755D01*
X118280960Y-100473600D01*
X118497840Y-100473600D01*
X118604194Y-100494755D01*
X118604194Y-100494755D01*
G37*
G36*
X123684194Y-100494755D02*
G01*
X123790550Y-100515911D01*
X123890734Y-100557409D01*
X123990920Y-100598907D01*
X124171244Y-100719395D01*
X124324605Y-100872756D01*
X124445093Y-101053080D01*
X124445093Y-101053081D01*
X124528089Y-101253450D01*
X124542648Y-101326645D01*
X124570400Y-101466160D01*
X124570400Y-101683040D01*
X124528089Y-101895749D01*
X124445093Y-102096120D01*
X124324605Y-102276444D01*
X124171244Y-102429805D01*
X123990920Y-102550293D01*
X123890734Y-102591791D01*
X123790550Y-102633289D01*
X123684194Y-102654445D01*
X123577840Y-102675600D01*
X123360960Y-102675600D01*
X123254606Y-102654445D01*
X123148250Y-102633289D01*
X122947880Y-102550293D01*
X122767556Y-102429805D01*
X122614195Y-102276444D01*
X122493707Y-102096120D01*
X122410711Y-101895749D01*
X122368400Y-101683040D01*
X122368400Y-101466160D01*
X122396152Y-101326645D01*
X122410711Y-101253450D01*
X122493707Y-101053081D01*
X122493707Y-101053080D01*
X122614195Y-100872756D01*
X122767556Y-100719395D01*
X122947880Y-100598907D01*
X123148250Y-100515911D01*
X123254606Y-100494755D01*
X123360960Y-100473600D01*
X123577840Y-100473600D01*
X123684194Y-100494755D01*
X123684194Y-100494755D01*
G37*
G36*
X121144194Y-100494755D02*
G01*
X121250550Y-100515911D01*
X121350734Y-100557409D01*
X121450920Y-100598907D01*
X121631244Y-100719395D01*
X121784605Y-100872756D01*
X121905093Y-101053080D01*
X121905093Y-101053081D01*
X121988089Y-101253450D01*
X122002648Y-101326645D01*
X122030400Y-101466160D01*
X122030400Y-101683040D01*
X121988089Y-101895749D01*
X121905093Y-102096120D01*
X121784605Y-102276444D01*
X121631244Y-102429805D01*
X121450920Y-102550293D01*
X121350734Y-102591791D01*
X121250550Y-102633289D01*
X121144194Y-102654445D01*
X121037840Y-102675600D01*
X120820960Y-102675600D01*
X120714606Y-102654445D01*
X120608250Y-102633289D01*
X120407880Y-102550293D01*
X120227556Y-102429805D01*
X120074195Y-102276444D01*
X119953707Y-102096120D01*
X119870711Y-101895749D01*
X119828400Y-101683040D01*
X119828400Y-101466160D01*
X119856152Y-101326645D01*
X119870711Y-101253450D01*
X119953707Y-101053081D01*
X119953707Y-101053080D01*
X120074195Y-100872756D01*
X120227556Y-100719395D01*
X120407880Y-100598907D01*
X120608250Y-100515911D01*
X120714606Y-100494755D01*
X120820960Y-100473600D01*
X121037840Y-100473600D01*
X121144194Y-100494755D01*
X121144194Y-100494755D01*
G37*
G36*
X116064194Y-100443955D02*
G01*
X116170550Y-100465111D01*
X116252365Y-100499000D01*
X116370920Y-100548107D01*
X116551244Y-100668595D01*
X116704605Y-100821956D01*
X116825093Y-101002280D01*
X116825093Y-101002281D01*
X116908089Y-101202650D01*
X116950400Y-101415361D01*
X116950400Y-101632239D01*
X116914094Y-101814763D01*
X116908089Y-101844949D01*
X116825093Y-102045320D01*
X116704605Y-102225644D01*
X116551244Y-102379005D01*
X116370920Y-102499493D01*
X116270734Y-102540991D01*
X116170550Y-102582489D01*
X116064195Y-102603644D01*
X115957840Y-102624800D01*
X115740960Y-102624800D01*
X115634605Y-102603644D01*
X115528250Y-102582489D01*
X115327880Y-102499493D01*
X115147556Y-102379005D01*
X114994195Y-102225644D01*
X114873707Y-102045320D01*
X114790711Y-101844949D01*
X114784707Y-101814763D01*
X114748400Y-101632239D01*
X114748400Y-101415361D01*
X114790711Y-101202650D01*
X114873707Y-101002281D01*
X114873707Y-101002280D01*
X114994195Y-100821956D01*
X115147556Y-100668595D01*
X115327880Y-100548107D01*
X115446435Y-100499000D01*
X115528250Y-100465111D01*
X115634605Y-100443956D01*
X115740960Y-100422800D01*
X115957840Y-100422800D01*
X116064194Y-100443955D01*
X116064194Y-100443955D01*
G37*
G36*
X113524194Y-100443955D02*
G01*
X113630550Y-100465111D01*
X113712365Y-100499000D01*
X113830920Y-100548107D01*
X114011244Y-100668595D01*
X114164605Y-100821956D01*
X114285093Y-101002280D01*
X114285093Y-101002281D01*
X114368089Y-101202650D01*
X114410400Y-101415361D01*
X114410400Y-101632239D01*
X114374094Y-101814763D01*
X114368089Y-101844949D01*
X114285093Y-102045320D01*
X114164605Y-102225644D01*
X114011244Y-102379005D01*
X113830920Y-102499493D01*
X113730734Y-102540991D01*
X113630550Y-102582489D01*
X113524195Y-102603644D01*
X113417840Y-102624800D01*
X113200960Y-102624800D01*
X113094605Y-102603644D01*
X112988250Y-102582489D01*
X112787880Y-102499493D01*
X112607556Y-102379005D01*
X112454195Y-102225644D01*
X112333707Y-102045320D01*
X112250711Y-101844949D01*
X112244707Y-101814763D01*
X112208400Y-101632239D01*
X112208400Y-101415361D01*
X112250711Y-101202650D01*
X112333707Y-101002281D01*
X112333707Y-101002280D01*
X112454195Y-100821956D01*
X112607556Y-100668595D01*
X112787880Y-100548107D01*
X112906435Y-100499000D01*
X112988250Y-100465111D01*
X113094605Y-100443956D01*
X113200960Y-100422800D01*
X113417840Y-100422800D01*
X113524194Y-100443955D01*
X113524194Y-100443955D01*
G37*
G36*
X136362856Y-97975911D02*
G01*
X136490550Y-98001311D01*
X136590734Y-98042809D01*
X136690920Y-98084307D01*
X136871244Y-98204795D01*
X137024605Y-98358156D01*
X137145093Y-98538480D01*
X137228089Y-98738851D01*
X137265348Y-98926160D01*
X137270400Y-98951561D01*
X137270400Y-99168439D01*
X137233142Y-99355749D01*
X137228089Y-99381149D01*
X137145093Y-99581520D01*
X137024605Y-99761844D01*
X136871244Y-99915205D01*
X136690920Y-100035693D01*
X136590734Y-100077191D01*
X136490550Y-100118689D01*
X136405533Y-100135600D01*
X136277840Y-100161000D01*
X136060960Y-100161000D01*
X135933267Y-100135600D01*
X135848250Y-100118689D01*
X135748066Y-100077191D01*
X135647880Y-100035693D01*
X135467556Y-99915205D01*
X135314195Y-99761844D01*
X135193707Y-99581520D01*
X135110711Y-99381149D01*
X135105659Y-99355749D01*
X135068400Y-99168439D01*
X135068400Y-98951561D01*
X135073453Y-98926160D01*
X135110711Y-98738851D01*
X135193707Y-98538480D01*
X135314195Y-98358156D01*
X135467556Y-98204795D01*
X135647880Y-98084307D01*
X135748066Y-98042809D01*
X135848250Y-98001311D01*
X135975944Y-97975911D01*
X136060960Y-97959000D01*
X136277840Y-97959000D01*
X136362856Y-97975911D01*
X136362856Y-97975911D01*
G37*
G36*
X131282856Y-97975911D02*
G01*
X131410550Y-98001311D01*
X131510734Y-98042809D01*
X131610920Y-98084307D01*
X131791244Y-98204795D01*
X131944605Y-98358156D01*
X132065093Y-98538480D01*
X132148089Y-98738851D01*
X132185348Y-98926160D01*
X132190400Y-98951561D01*
X132190400Y-99168439D01*
X132153142Y-99355749D01*
X132148089Y-99381149D01*
X132065093Y-99581520D01*
X131944605Y-99761844D01*
X131791244Y-99915205D01*
X131610920Y-100035693D01*
X131510734Y-100077191D01*
X131410550Y-100118689D01*
X131325533Y-100135600D01*
X131197840Y-100161000D01*
X130980960Y-100161000D01*
X130853267Y-100135600D01*
X130768250Y-100118689D01*
X130668066Y-100077191D01*
X130567880Y-100035693D01*
X130387556Y-99915205D01*
X130234195Y-99761844D01*
X130113707Y-99581520D01*
X130030711Y-99381149D01*
X130025659Y-99355749D01*
X129988400Y-99168439D01*
X129988400Y-98951561D01*
X129993453Y-98926160D01*
X130030711Y-98738851D01*
X130113707Y-98538480D01*
X130234195Y-98358156D01*
X130387556Y-98204795D01*
X130567880Y-98084307D01*
X130668066Y-98042809D01*
X130768250Y-98001311D01*
X130895944Y-97975911D01*
X130980960Y-97959000D01*
X131197840Y-97959000D01*
X131282856Y-97975911D01*
X131282856Y-97975911D01*
G37*
G36*
X128742856Y-97975911D02*
G01*
X128870550Y-98001311D01*
X128970734Y-98042809D01*
X129070920Y-98084307D01*
X129251244Y-98204795D01*
X129404605Y-98358156D01*
X129525093Y-98538480D01*
X129608089Y-98738851D01*
X129645348Y-98926160D01*
X129650400Y-98951561D01*
X129650400Y-99168439D01*
X129613142Y-99355749D01*
X129608089Y-99381149D01*
X129525093Y-99581520D01*
X129404605Y-99761844D01*
X129251244Y-99915205D01*
X129070920Y-100035693D01*
X128970734Y-100077191D01*
X128870550Y-100118689D01*
X128785533Y-100135600D01*
X128657840Y-100161000D01*
X128440960Y-100161000D01*
X128313267Y-100135600D01*
X128228250Y-100118689D01*
X128128066Y-100077191D01*
X128027880Y-100035693D01*
X127847556Y-99915205D01*
X127694195Y-99761844D01*
X127573707Y-99581520D01*
X127490711Y-99381149D01*
X127485659Y-99355749D01*
X127448400Y-99168439D01*
X127448400Y-98951561D01*
X127453453Y-98926160D01*
X127490711Y-98738851D01*
X127573707Y-98538480D01*
X127694195Y-98358156D01*
X127847556Y-98204795D01*
X128027880Y-98084307D01*
X128128066Y-98042809D01*
X128228250Y-98001311D01*
X128355944Y-97975911D01*
X128440960Y-97959000D01*
X128657840Y-97959000D01*
X128742856Y-97975911D01*
X128742856Y-97975911D01*
G37*
G36*
X133822856Y-97975911D02*
G01*
X133950550Y-98001311D01*
X134050734Y-98042809D01*
X134150920Y-98084307D01*
X134331244Y-98204795D01*
X134484605Y-98358156D01*
X134605093Y-98538480D01*
X134688089Y-98738851D01*
X134725348Y-98926160D01*
X134730400Y-98951561D01*
X134730400Y-99168439D01*
X134693142Y-99355749D01*
X134688089Y-99381149D01*
X134605093Y-99581520D01*
X134484605Y-99761844D01*
X134331244Y-99915205D01*
X134150920Y-100035693D01*
X134050734Y-100077191D01*
X133950550Y-100118689D01*
X133865533Y-100135600D01*
X133737840Y-100161000D01*
X133520960Y-100161000D01*
X133393267Y-100135600D01*
X133308250Y-100118689D01*
X133208066Y-100077191D01*
X133107880Y-100035693D01*
X132927556Y-99915205D01*
X132774195Y-99761844D01*
X132653707Y-99581520D01*
X132570711Y-99381149D01*
X132565659Y-99355749D01*
X132528400Y-99168439D01*
X132528400Y-98951561D01*
X132533453Y-98926160D01*
X132570711Y-98738851D01*
X132653707Y-98538480D01*
X132774195Y-98358156D01*
X132927556Y-98204795D01*
X133107880Y-98084307D01*
X133208066Y-98042809D01*
X133308250Y-98001311D01*
X133435944Y-97975911D01*
X133520960Y-97959000D01*
X133737840Y-97959000D01*
X133822856Y-97975911D01*
X133822856Y-97975911D01*
G37*
G36*
X126202856Y-97975911D02*
G01*
X126330550Y-98001311D01*
X126430734Y-98042809D01*
X126530920Y-98084307D01*
X126711244Y-98204795D01*
X126864605Y-98358156D01*
X126985093Y-98538480D01*
X127068089Y-98738851D01*
X127105348Y-98926160D01*
X127110400Y-98951561D01*
X127110400Y-99168439D01*
X127073142Y-99355749D01*
X127068089Y-99381149D01*
X126985093Y-99581520D01*
X126864605Y-99761844D01*
X126711244Y-99915205D01*
X126530920Y-100035693D01*
X126430734Y-100077191D01*
X126330550Y-100118689D01*
X126245533Y-100135600D01*
X126117840Y-100161000D01*
X125900960Y-100161000D01*
X125773267Y-100135600D01*
X125688250Y-100118689D01*
X125588066Y-100077191D01*
X125487880Y-100035693D01*
X125307556Y-99915205D01*
X125154195Y-99761844D01*
X125033707Y-99581520D01*
X124950711Y-99381149D01*
X124945659Y-99355749D01*
X124908400Y-99168439D01*
X124908400Y-98951561D01*
X124913453Y-98926160D01*
X124950711Y-98738851D01*
X125033707Y-98538480D01*
X125154195Y-98358156D01*
X125307556Y-98204795D01*
X125487880Y-98084307D01*
X125588066Y-98042809D01*
X125688250Y-98001311D01*
X125815944Y-97975911D01*
X125900960Y-97959000D01*
X126117840Y-97959000D01*
X126202856Y-97975911D01*
X126202856Y-97975911D01*
G37*
G36*
X121144195Y-97954756D02*
G01*
X121250550Y-97975911D01*
X121450920Y-98058907D01*
X121631244Y-98179395D01*
X121784605Y-98332756D01*
X121905093Y-98513080D01*
X121905093Y-98513081D01*
X121988089Y-98713450D01*
X122009245Y-98819806D01*
X122030400Y-98926160D01*
X122030400Y-99143040D01*
X121988089Y-99355749D01*
X121905093Y-99556120D01*
X121784605Y-99736444D01*
X121631244Y-99889805D01*
X121450920Y-100010293D01*
X121250550Y-100093289D01*
X121144194Y-100114445D01*
X121037840Y-100135600D01*
X120820960Y-100135600D01*
X120714606Y-100114445D01*
X120608250Y-100093289D01*
X120508066Y-100051791D01*
X120407880Y-100010293D01*
X120227556Y-99889805D01*
X120074195Y-99736444D01*
X119953707Y-99556120D01*
X119870711Y-99355749D01*
X119828400Y-99143040D01*
X119828400Y-98926160D01*
X119849555Y-98819806D01*
X119870711Y-98713450D01*
X119953707Y-98513081D01*
X119953707Y-98513080D01*
X120074195Y-98332756D01*
X120227556Y-98179395D01*
X120407880Y-98058907D01*
X120508066Y-98017409D01*
X120608250Y-97975911D01*
X120714605Y-97954756D01*
X120820960Y-97933600D01*
X121037840Y-97933600D01*
X121144195Y-97954756D01*
X121144195Y-97954756D01*
G37*
G36*
X123684195Y-97954756D02*
G01*
X123790550Y-97975911D01*
X123990920Y-98058907D01*
X124171244Y-98179395D01*
X124324605Y-98332756D01*
X124445093Y-98513080D01*
X124445093Y-98513081D01*
X124528089Y-98713450D01*
X124549245Y-98819806D01*
X124570400Y-98926160D01*
X124570400Y-99143040D01*
X124528089Y-99355749D01*
X124445093Y-99556120D01*
X124324605Y-99736444D01*
X124171244Y-99889805D01*
X123990920Y-100010293D01*
X123790550Y-100093289D01*
X123684194Y-100114445D01*
X123577840Y-100135600D01*
X123360960Y-100135600D01*
X123254606Y-100114445D01*
X123148250Y-100093289D01*
X123048066Y-100051791D01*
X122947880Y-100010293D01*
X122767556Y-99889805D01*
X122614195Y-99736444D01*
X122493707Y-99556120D01*
X122410711Y-99355749D01*
X122368400Y-99143040D01*
X122368400Y-98926160D01*
X122389555Y-98819806D01*
X122410711Y-98713450D01*
X122493707Y-98513081D01*
X122493707Y-98513080D01*
X122614195Y-98332756D01*
X122767556Y-98179395D01*
X122947880Y-98058907D01*
X123048066Y-98017409D01*
X123148250Y-97975911D01*
X123254605Y-97954756D01*
X123360960Y-97933600D01*
X123577840Y-97933600D01*
X123684195Y-97954756D01*
X123684195Y-97954756D01*
G37*
G36*
X118604195Y-97954756D02*
G01*
X118710550Y-97975911D01*
X118910920Y-98058907D01*
X119091244Y-98179395D01*
X119244605Y-98332756D01*
X119365093Y-98513080D01*
X119365093Y-98513081D01*
X119448089Y-98713450D01*
X119469245Y-98819806D01*
X119490400Y-98926160D01*
X119490400Y-99143040D01*
X119448089Y-99355749D01*
X119365093Y-99556120D01*
X119244605Y-99736444D01*
X119091244Y-99889805D01*
X118910920Y-100010293D01*
X118710550Y-100093289D01*
X118604194Y-100114445D01*
X118497840Y-100135600D01*
X118280960Y-100135600D01*
X118174606Y-100114445D01*
X118068250Y-100093289D01*
X117968066Y-100051791D01*
X117867880Y-100010293D01*
X117687556Y-99889805D01*
X117534195Y-99736444D01*
X117413707Y-99556120D01*
X117330711Y-99355749D01*
X117288400Y-99143040D01*
X117288400Y-98926160D01*
X117309555Y-98819806D01*
X117330711Y-98713450D01*
X117413707Y-98513081D01*
X117413707Y-98513080D01*
X117534195Y-98332756D01*
X117687556Y-98179395D01*
X117867880Y-98058907D01*
X117968066Y-98017409D01*
X118068250Y-97975911D01*
X118174605Y-97954756D01*
X118280960Y-97933600D01*
X118497840Y-97933600D01*
X118604195Y-97954756D01*
X118604195Y-97954756D01*
G37*
G36*
X113524194Y-97903955D02*
G01*
X113630550Y-97925111D01*
X113712365Y-97959000D01*
X113830920Y-98008107D01*
X114011244Y-98128595D01*
X114164605Y-98281956D01*
X114285093Y-98462280D01*
X114368089Y-98662651D01*
X114410400Y-98875360D01*
X114410400Y-99092240D01*
X114368089Y-99304949D01*
X114285093Y-99505320D01*
X114164605Y-99685644D01*
X114011244Y-99839005D01*
X113830920Y-99959493D01*
X113630550Y-100042489D01*
X113524194Y-100063645D01*
X113417840Y-100084800D01*
X113200960Y-100084800D01*
X113094606Y-100063645D01*
X112988250Y-100042489D01*
X112787880Y-99959493D01*
X112607556Y-99839005D01*
X112454195Y-99685644D01*
X112333707Y-99505320D01*
X112250711Y-99304949D01*
X112208400Y-99092240D01*
X112208400Y-98875360D01*
X112250711Y-98662651D01*
X112333707Y-98462280D01*
X112454195Y-98281956D01*
X112607556Y-98128595D01*
X112787880Y-98008107D01*
X112906435Y-97959000D01*
X112988250Y-97925111D01*
X113094605Y-97903956D01*
X113200960Y-97882800D01*
X113417840Y-97882800D01*
X113524194Y-97903955D01*
X113524194Y-97903955D01*
G37*
G36*
X116064194Y-97903955D02*
G01*
X116170550Y-97925111D01*
X116252365Y-97959000D01*
X116370920Y-98008107D01*
X116551244Y-98128595D01*
X116704605Y-98281956D01*
X116825093Y-98462280D01*
X116908089Y-98662651D01*
X116950400Y-98875360D01*
X116950400Y-99092240D01*
X116908089Y-99304949D01*
X116825093Y-99505320D01*
X116704605Y-99685644D01*
X116551244Y-99839005D01*
X116370920Y-99959493D01*
X116170550Y-100042489D01*
X116064194Y-100063645D01*
X115957840Y-100084800D01*
X115740960Y-100084800D01*
X115634606Y-100063645D01*
X115528250Y-100042489D01*
X115327880Y-99959493D01*
X115147556Y-99839005D01*
X114994195Y-99685644D01*
X114873707Y-99505320D01*
X114790711Y-99304949D01*
X114748400Y-99092240D01*
X114748400Y-98875360D01*
X114790711Y-98662651D01*
X114873707Y-98462280D01*
X114994195Y-98281956D01*
X115147556Y-98128595D01*
X115327880Y-98008107D01*
X115446435Y-97959000D01*
X115528250Y-97925111D01*
X115634605Y-97903956D01*
X115740960Y-97882800D01*
X115957840Y-97882800D01*
X116064194Y-97903955D01*
X116064194Y-97903955D01*
G37*
G36*
X152157187Y-92754396D02*
G01*
X152393953Y-92852468D01*
X152393955Y-92852469D01*
X152588032Y-92982147D01*
X152607039Y-92994847D01*
X152788253Y-93176061D01*
X152930632Y-93389147D01*
X153028704Y-93625913D01*
X153078700Y-93877261D01*
X153078700Y-94133539D01*
X153028704Y-94384887D01*
X152935892Y-94608955D01*
X152930631Y-94621655D01*
X152788253Y-94834739D01*
X152607039Y-95015953D01*
X152393955Y-95158331D01*
X152393954Y-95158332D01*
X152393953Y-95158332D01*
X152157187Y-95256404D01*
X151905839Y-95306400D01*
X151649561Y-95306400D01*
X151398213Y-95256404D01*
X151161447Y-95158332D01*
X151161446Y-95158332D01*
X151161445Y-95158331D01*
X150948361Y-95015953D01*
X150767147Y-94834739D01*
X150624769Y-94621655D01*
X150619508Y-94608955D01*
X150526696Y-94384887D01*
X150476700Y-94133539D01*
X150476700Y-93877261D01*
X150526696Y-93625913D01*
X150624768Y-93389147D01*
X150767147Y-93176061D01*
X150948361Y-92994847D01*
X150967368Y-92982147D01*
X151161445Y-92852469D01*
X151161447Y-92852468D01*
X151398213Y-92754396D01*
X151649561Y-92704400D01*
X151905839Y-92704400D01*
X152157187Y-92754396D01*
X152157187Y-92754396D01*
G37*
G36*
X157135587Y-92754396D02*
G01*
X157372353Y-92852468D01*
X157372355Y-92852469D01*
X157566432Y-92982147D01*
X157585439Y-92994847D01*
X157766653Y-93176061D01*
X157909032Y-93389147D01*
X158007104Y-93625913D01*
X158057100Y-93877261D01*
X158057100Y-94133539D01*
X158007104Y-94384887D01*
X157914292Y-94608955D01*
X157909031Y-94621655D01*
X157766653Y-94834739D01*
X157585439Y-95015953D01*
X157372355Y-95158331D01*
X157372354Y-95158332D01*
X157372353Y-95158332D01*
X157135587Y-95256404D01*
X156884239Y-95306400D01*
X156627961Y-95306400D01*
X156376613Y-95256404D01*
X156139847Y-95158332D01*
X156139846Y-95158332D01*
X156139845Y-95158331D01*
X155926761Y-95015953D01*
X155745547Y-94834739D01*
X155603169Y-94621655D01*
X155597908Y-94608955D01*
X155505096Y-94384887D01*
X155455100Y-94133539D01*
X155455100Y-93877261D01*
X155505096Y-93625913D01*
X155603168Y-93389147D01*
X155745547Y-93176061D01*
X155926761Y-92994847D01*
X155945768Y-92982147D01*
X156139845Y-92852469D01*
X156139847Y-92852468D01*
X156376613Y-92754396D01*
X156627961Y-92704400D01*
X156884239Y-92704400D01*
X157135587Y-92754396D01*
X157135587Y-92754396D01*
G37*
G36*
X147127987Y-92754396D02*
G01*
X147364753Y-92852468D01*
X147364755Y-92852469D01*
X147558832Y-92982147D01*
X147577839Y-92994847D01*
X147759053Y-93176061D01*
X147901432Y-93389147D01*
X147999504Y-93625913D01*
X148049500Y-93877261D01*
X148049500Y-94133539D01*
X147999504Y-94384887D01*
X147906692Y-94608955D01*
X147901431Y-94621655D01*
X147759053Y-94834739D01*
X147577839Y-95015953D01*
X147364755Y-95158331D01*
X147364754Y-95158332D01*
X147364753Y-95158332D01*
X147127987Y-95256404D01*
X146876639Y-95306400D01*
X146620361Y-95306400D01*
X146369013Y-95256404D01*
X146132247Y-95158332D01*
X146132246Y-95158332D01*
X146132245Y-95158331D01*
X145919161Y-95015953D01*
X145737947Y-94834739D01*
X145595569Y-94621655D01*
X145590308Y-94608955D01*
X145497496Y-94384887D01*
X145447500Y-94133539D01*
X145447500Y-93877261D01*
X145497496Y-93625913D01*
X145595568Y-93389147D01*
X145737947Y-93176061D01*
X145919161Y-92994847D01*
X145938168Y-92982147D01*
X146132245Y-92852469D01*
X146132247Y-92852468D01*
X146369013Y-92754396D01*
X146620361Y-92704400D01*
X146876639Y-92704400D01*
X147127987Y-92754396D01*
X147127987Y-92754396D01*
G37*
G36*
X142111487Y-92741696D02*
G01*
X142348253Y-92839768D01*
X142348255Y-92839769D01*
X142561339Y-92982147D01*
X142742553Y-93163361D01*
X142884932Y-93376447D01*
X142983004Y-93613213D01*
X143033000Y-93864561D01*
X143033000Y-94120839D01*
X142983004Y-94372187D01*
X142884932Y-94608953D01*
X142884931Y-94608955D01*
X142742553Y-94822039D01*
X142561339Y-95003253D01*
X142348255Y-95145631D01*
X142348254Y-95145632D01*
X142348253Y-95145632D01*
X142111487Y-95243704D01*
X141860139Y-95293700D01*
X141603861Y-95293700D01*
X141352513Y-95243704D01*
X141115747Y-95145632D01*
X141115746Y-95145632D01*
X141115745Y-95145631D01*
X140902661Y-95003253D01*
X140721447Y-94822039D01*
X140579069Y-94608955D01*
X140579068Y-94608953D01*
X140480996Y-94372187D01*
X140431000Y-94120839D01*
X140431000Y-93864561D01*
X140480996Y-93613213D01*
X140579068Y-93376447D01*
X140721447Y-93163361D01*
X140902661Y-92982147D01*
X141115745Y-92839769D01*
X141115747Y-92839768D01*
X141352513Y-92741696D01*
X141603861Y-92691700D01*
X141860139Y-92691700D01*
X142111487Y-92741696D01*
X142111487Y-92741696D01*
G37*
G36*
X128742856Y-87917511D02*
G01*
X128870550Y-87942911D01*
X128970734Y-87984409D01*
X129070920Y-88025907D01*
X129251244Y-88146395D01*
X129404605Y-88299756D01*
X129525093Y-88480080D01*
X129608089Y-88680451D01*
X129645348Y-88867760D01*
X129650400Y-88893161D01*
X129650400Y-89110039D01*
X129613142Y-89297349D01*
X129608089Y-89322749D01*
X129525093Y-89523120D01*
X129404605Y-89703444D01*
X129251244Y-89856805D01*
X129070920Y-89977293D01*
X128870550Y-90060289D01*
X128785533Y-90077200D01*
X128657840Y-90102600D01*
X128440960Y-90102600D01*
X128313267Y-90077200D01*
X128228250Y-90060289D01*
X128027880Y-89977293D01*
X127847556Y-89856805D01*
X127694195Y-89703444D01*
X127573707Y-89523120D01*
X127490711Y-89322749D01*
X127485659Y-89297349D01*
X127448400Y-89110039D01*
X127448400Y-88893161D01*
X127453453Y-88867760D01*
X127490711Y-88680451D01*
X127573707Y-88480080D01*
X127694195Y-88299756D01*
X127847556Y-88146395D01*
X128027880Y-88025907D01*
X128128066Y-87984409D01*
X128228250Y-87942911D01*
X128355944Y-87917511D01*
X128440960Y-87900600D01*
X128657840Y-87900600D01*
X128742856Y-87917511D01*
X128742856Y-87917511D01*
G37*
G36*
X126202856Y-87917511D02*
G01*
X126330550Y-87942911D01*
X126430734Y-87984409D01*
X126530920Y-88025907D01*
X126711244Y-88146395D01*
X126864605Y-88299756D01*
X126985093Y-88480080D01*
X127068089Y-88680451D01*
X127105348Y-88867760D01*
X127110400Y-88893161D01*
X127110400Y-89110039D01*
X127073142Y-89297349D01*
X127068089Y-89322749D01*
X126985093Y-89523120D01*
X126864605Y-89703444D01*
X126711244Y-89856805D01*
X126530920Y-89977293D01*
X126330550Y-90060289D01*
X126245533Y-90077200D01*
X126117840Y-90102600D01*
X125900960Y-90102600D01*
X125773267Y-90077200D01*
X125688250Y-90060289D01*
X125487880Y-89977293D01*
X125307556Y-89856805D01*
X125154195Y-89703444D01*
X125033707Y-89523120D01*
X124950711Y-89322749D01*
X124945659Y-89297349D01*
X124908400Y-89110039D01*
X124908400Y-88893161D01*
X124913453Y-88867760D01*
X124950711Y-88680451D01*
X125033707Y-88480080D01*
X125154195Y-88299756D01*
X125307556Y-88146395D01*
X125487880Y-88025907D01*
X125588066Y-87984409D01*
X125688250Y-87942911D01*
X125815944Y-87917511D01*
X125900960Y-87900600D01*
X126117840Y-87900600D01*
X126202856Y-87917511D01*
X126202856Y-87917511D01*
G37*
G36*
X136362856Y-87917511D02*
G01*
X136490550Y-87942911D01*
X136590734Y-87984409D01*
X136690920Y-88025907D01*
X136871244Y-88146395D01*
X137024605Y-88299756D01*
X137145093Y-88480080D01*
X137228089Y-88680451D01*
X137265348Y-88867760D01*
X137270400Y-88893161D01*
X137270400Y-89110039D01*
X137233142Y-89297349D01*
X137228089Y-89322749D01*
X137145093Y-89523120D01*
X137024605Y-89703444D01*
X136871244Y-89856805D01*
X136690920Y-89977293D01*
X136490550Y-90060289D01*
X136405533Y-90077200D01*
X136277840Y-90102600D01*
X136060960Y-90102600D01*
X135933267Y-90077200D01*
X135848250Y-90060289D01*
X135647880Y-89977293D01*
X135467556Y-89856805D01*
X135314195Y-89703444D01*
X135193707Y-89523120D01*
X135110711Y-89322749D01*
X135105659Y-89297349D01*
X135068400Y-89110039D01*
X135068400Y-88893161D01*
X135073453Y-88867760D01*
X135110711Y-88680451D01*
X135193707Y-88480080D01*
X135314195Y-88299756D01*
X135467556Y-88146395D01*
X135647880Y-88025907D01*
X135748066Y-87984409D01*
X135848250Y-87942911D01*
X135975944Y-87917511D01*
X136060960Y-87900600D01*
X136277840Y-87900600D01*
X136362856Y-87917511D01*
X136362856Y-87917511D01*
G37*
G36*
X131282856Y-87917511D02*
G01*
X131410550Y-87942911D01*
X131510734Y-87984409D01*
X131610920Y-88025907D01*
X131791244Y-88146395D01*
X131944605Y-88299756D01*
X132065093Y-88480080D01*
X132148089Y-88680451D01*
X132185348Y-88867760D01*
X132190400Y-88893161D01*
X132190400Y-89110039D01*
X132153142Y-89297349D01*
X132148089Y-89322749D01*
X132065093Y-89523120D01*
X131944605Y-89703444D01*
X131791244Y-89856805D01*
X131610920Y-89977293D01*
X131410550Y-90060289D01*
X131325533Y-90077200D01*
X131197840Y-90102600D01*
X130980960Y-90102600D01*
X130853267Y-90077200D01*
X130768250Y-90060289D01*
X130567880Y-89977293D01*
X130387556Y-89856805D01*
X130234195Y-89703444D01*
X130113707Y-89523120D01*
X130030711Y-89322749D01*
X130025659Y-89297349D01*
X129988400Y-89110039D01*
X129988400Y-88893161D01*
X129993453Y-88867760D01*
X130030711Y-88680451D01*
X130113707Y-88480080D01*
X130234195Y-88299756D01*
X130387556Y-88146395D01*
X130567880Y-88025907D01*
X130668066Y-87984409D01*
X130768250Y-87942911D01*
X130895944Y-87917511D01*
X130980960Y-87900600D01*
X131197840Y-87900600D01*
X131282856Y-87917511D01*
X131282856Y-87917511D01*
G37*
G36*
X133822856Y-87917511D02*
G01*
X133950550Y-87942911D01*
X134050734Y-87984409D01*
X134150920Y-88025907D01*
X134331244Y-88146395D01*
X134484605Y-88299756D01*
X134605093Y-88480080D01*
X134688089Y-88680451D01*
X134725348Y-88867760D01*
X134730400Y-88893161D01*
X134730400Y-89110039D01*
X134693142Y-89297349D01*
X134688089Y-89322749D01*
X134605093Y-89523120D01*
X134484605Y-89703444D01*
X134331244Y-89856805D01*
X134150920Y-89977293D01*
X133950550Y-90060289D01*
X133865533Y-90077200D01*
X133737840Y-90102600D01*
X133520960Y-90102600D01*
X133393267Y-90077200D01*
X133308250Y-90060289D01*
X133107880Y-89977293D01*
X132927556Y-89856805D01*
X132774195Y-89703444D01*
X132653707Y-89523120D01*
X132570711Y-89322749D01*
X132565659Y-89297349D01*
X132528400Y-89110039D01*
X132528400Y-88893161D01*
X132533453Y-88867760D01*
X132570711Y-88680451D01*
X132653707Y-88480080D01*
X132774195Y-88299756D01*
X132927556Y-88146395D01*
X133107880Y-88025907D01*
X133208066Y-87984409D01*
X133308250Y-87942911D01*
X133435944Y-87917511D01*
X133520960Y-87900600D01*
X133737840Y-87900600D01*
X133822856Y-87917511D01*
X133822856Y-87917511D01*
G37*
G36*
X121144195Y-87896356D02*
G01*
X121250550Y-87917511D01*
X121350734Y-87959009D01*
X121450920Y-88000507D01*
X121631244Y-88120995D01*
X121784605Y-88274356D01*
X121905093Y-88454680D01*
X121905093Y-88454681D01*
X121988089Y-88655050D01*
X122009245Y-88761406D01*
X122030400Y-88867760D01*
X122030400Y-89084640D01*
X121988089Y-89297349D01*
X121905093Y-89497720D01*
X121784605Y-89678044D01*
X121631244Y-89831405D01*
X121450920Y-89951893D01*
X121250550Y-90034889D01*
X121144194Y-90056045D01*
X121037840Y-90077200D01*
X120820960Y-90077200D01*
X120714606Y-90056045D01*
X120608250Y-90034889D01*
X120407880Y-89951893D01*
X120227556Y-89831405D01*
X120074195Y-89678044D01*
X119953707Y-89497720D01*
X119870711Y-89297349D01*
X119828400Y-89084640D01*
X119828400Y-88867760D01*
X119849556Y-88761405D01*
X119870711Y-88655050D01*
X119953707Y-88454681D01*
X119953707Y-88454680D01*
X120074195Y-88274356D01*
X120227556Y-88120995D01*
X120407880Y-88000507D01*
X120508066Y-87959009D01*
X120608250Y-87917511D01*
X120714606Y-87896355D01*
X120820960Y-87875200D01*
X121037840Y-87875200D01*
X121144195Y-87896356D01*
X121144195Y-87896356D01*
G37*
G36*
X123684195Y-87896356D02*
G01*
X123790550Y-87917511D01*
X123890734Y-87959009D01*
X123990920Y-88000507D01*
X124171244Y-88120995D01*
X124324605Y-88274356D01*
X124445093Y-88454680D01*
X124445093Y-88454681D01*
X124528089Y-88655050D01*
X124549245Y-88761406D01*
X124570400Y-88867760D01*
X124570400Y-89084640D01*
X124528089Y-89297349D01*
X124445093Y-89497720D01*
X124324605Y-89678044D01*
X124171244Y-89831405D01*
X123990920Y-89951893D01*
X123790550Y-90034889D01*
X123684194Y-90056045D01*
X123577840Y-90077200D01*
X123360960Y-90077200D01*
X123254606Y-90056045D01*
X123148250Y-90034889D01*
X122947880Y-89951893D01*
X122767556Y-89831405D01*
X122614195Y-89678044D01*
X122493707Y-89497720D01*
X122410711Y-89297349D01*
X122368400Y-89084640D01*
X122368400Y-88867760D01*
X122389556Y-88761405D01*
X122410711Y-88655050D01*
X122493707Y-88454681D01*
X122493707Y-88454680D01*
X122614195Y-88274356D01*
X122767556Y-88120995D01*
X122947880Y-88000507D01*
X123048066Y-87959009D01*
X123148250Y-87917511D01*
X123254606Y-87896355D01*
X123360960Y-87875200D01*
X123577840Y-87875200D01*
X123684195Y-87896356D01*
X123684195Y-87896356D01*
G37*
G36*
X118604195Y-87896356D02*
G01*
X118710550Y-87917511D01*
X118810734Y-87959009D01*
X118910920Y-88000507D01*
X119091244Y-88120995D01*
X119244605Y-88274356D01*
X119365093Y-88454680D01*
X119365093Y-88454681D01*
X119448089Y-88655050D01*
X119469245Y-88761406D01*
X119490400Y-88867760D01*
X119490400Y-89084640D01*
X119448089Y-89297349D01*
X119365093Y-89497720D01*
X119244605Y-89678044D01*
X119091244Y-89831405D01*
X118910920Y-89951893D01*
X118710550Y-90034889D01*
X118604194Y-90056045D01*
X118497840Y-90077200D01*
X118280960Y-90077200D01*
X118174606Y-90056045D01*
X118068250Y-90034889D01*
X117867880Y-89951893D01*
X117687556Y-89831405D01*
X117534195Y-89678044D01*
X117413707Y-89497720D01*
X117330711Y-89297349D01*
X117288400Y-89084640D01*
X117288400Y-88867760D01*
X117309556Y-88761405D01*
X117330711Y-88655050D01*
X117413707Y-88454681D01*
X117413707Y-88454680D01*
X117534195Y-88274356D01*
X117687556Y-88120995D01*
X117867880Y-88000507D01*
X117968066Y-87959009D01*
X118068250Y-87917511D01*
X118174606Y-87896355D01*
X118280960Y-87875200D01*
X118497840Y-87875200D01*
X118604195Y-87896356D01*
X118604195Y-87896356D01*
G37*
G36*
X113524195Y-87845556D02*
G01*
X113630550Y-87866711D01*
X113712365Y-87900600D01*
X113830920Y-87949707D01*
X114011244Y-88070195D01*
X114164605Y-88223556D01*
X114285093Y-88403880D01*
X114368089Y-88604251D01*
X114410400Y-88816960D01*
X114410400Y-89033840D01*
X114368089Y-89246549D01*
X114285093Y-89446920D01*
X114164605Y-89627244D01*
X114011244Y-89780605D01*
X113830920Y-89901093D01*
X113730734Y-89942591D01*
X113630550Y-89984089D01*
X113524194Y-90005245D01*
X113417840Y-90026400D01*
X113200960Y-90026400D01*
X113094606Y-90005245D01*
X112988250Y-89984089D01*
X112787880Y-89901093D01*
X112607556Y-89780605D01*
X112454195Y-89627244D01*
X112333707Y-89446920D01*
X112250711Y-89246549D01*
X112208400Y-89033840D01*
X112208400Y-88816960D01*
X112250711Y-88604251D01*
X112333707Y-88403880D01*
X112454195Y-88223556D01*
X112607556Y-88070195D01*
X112787880Y-87949707D01*
X112906435Y-87900600D01*
X112988250Y-87866711D01*
X113094605Y-87845556D01*
X113200960Y-87824400D01*
X113417840Y-87824400D01*
X113524195Y-87845556D01*
X113524195Y-87845556D01*
G37*
G36*
X116064195Y-87845556D02*
G01*
X116170550Y-87866711D01*
X116252365Y-87900600D01*
X116370920Y-87949707D01*
X116551244Y-88070195D01*
X116704605Y-88223556D01*
X116825093Y-88403880D01*
X116908089Y-88604251D01*
X116950400Y-88816960D01*
X116950400Y-89033840D01*
X116908089Y-89246549D01*
X116825093Y-89446920D01*
X116704605Y-89627244D01*
X116551244Y-89780605D01*
X116370920Y-89901093D01*
X116270734Y-89942591D01*
X116170550Y-89984089D01*
X116064194Y-90005245D01*
X115957840Y-90026400D01*
X115740960Y-90026400D01*
X115634606Y-90005245D01*
X115528250Y-89984089D01*
X115327880Y-89901093D01*
X115147556Y-89780605D01*
X114994195Y-89627244D01*
X114873707Y-89446920D01*
X114790711Y-89246549D01*
X114748400Y-89033840D01*
X114748400Y-88816960D01*
X114790711Y-88604251D01*
X114873707Y-88403880D01*
X114994195Y-88223556D01*
X115147556Y-88070195D01*
X115327880Y-87949707D01*
X115446435Y-87900600D01*
X115528250Y-87866711D01*
X115634605Y-87845556D01*
X115740960Y-87824400D01*
X115957840Y-87824400D01*
X116064195Y-87845556D01*
X116064195Y-87845556D01*
G37*
G36*
X126202856Y-85377511D02*
G01*
X126330550Y-85402911D01*
X126417543Y-85438945D01*
X126530920Y-85485907D01*
X126711244Y-85606395D01*
X126864605Y-85759756D01*
X126985093Y-85940080D01*
X126985093Y-85940081D01*
X127068089Y-86140450D01*
X127074094Y-86170639D01*
X127105348Y-86327760D01*
X127110400Y-86353161D01*
X127110400Y-86570039D01*
X127073142Y-86757349D01*
X127068089Y-86782749D01*
X126985093Y-86983120D01*
X126864605Y-87163444D01*
X126711244Y-87316805D01*
X126530920Y-87437293D01*
X126330550Y-87520289D01*
X126245533Y-87537200D01*
X126117840Y-87562600D01*
X125900960Y-87562600D01*
X125773267Y-87537200D01*
X125688250Y-87520289D01*
X125588066Y-87478791D01*
X125487880Y-87437293D01*
X125307556Y-87316805D01*
X125154195Y-87163444D01*
X125033707Y-86983120D01*
X124950711Y-86782749D01*
X124945659Y-86757349D01*
X124908400Y-86570039D01*
X124908400Y-86353161D01*
X124913453Y-86327760D01*
X124944706Y-86170639D01*
X124950711Y-86140450D01*
X125033707Y-85940081D01*
X125033707Y-85940080D01*
X125154195Y-85759756D01*
X125307556Y-85606395D01*
X125487880Y-85485907D01*
X125601257Y-85438945D01*
X125688250Y-85402911D01*
X125815944Y-85377511D01*
X125900960Y-85360600D01*
X126117840Y-85360600D01*
X126202856Y-85377511D01*
X126202856Y-85377511D01*
G37*
G36*
X133822856Y-85377511D02*
G01*
X133950550Y-85402911D01*
X134037543Y-85438945D01*
X134150920Y-85485907D01*
X134331244Y-85606395D01*
X134484605Y-85759756D01*
X134605093Y-85940080D01*
X134605093Y-85940081D01*
X134688089Y-86140450D01*
X134694094Y-86170639D01*
X134725348Y-86327760D01*
X134730400Y-86353161D01*
X134730400Y-86570039D01*
X134693142Y-86757349D01*
X134688089Y-86782749D01*
X134605093Y-86983120D01*
X134484605Y-87163444D01*
X134331244Y-87316805D01*
X134150920Y-87437293D01*
X133950550Y-87520289D01*
X133865533Y-87537200D01*
X133737840Y-87562600D01*
X133520960Y-87562600D01*
X133393267Y-87537200D01*
X133308250Y-87520289D01*
X133208066Y-87478791D01*
X133107880Y-87437293D01*
X132927556Y-87316805D01*
X132774195Y-87163444D01*
X132653707Y-86983120D01*
X132570711Y-86782749D01*
X132565659Y-86757349D01*
X132528400Y-86570039D01*
X132528400Y-86353161D01*
X132533453Y-86327760D01*
X132564706Y-86170639D01*
X132570711Y-86140450D01*
X132653707Y-85940081D01*
X132653707Y-85940080D01*
X132774195Y-85759756D01*
X132927556Y-85606395D01*
X133107880Y-85485907D01*
X133221257Y-85438945D01*
X133308250Y-85402911D01*
X133435944Y-85377511D01*
X133520960Y-85360600D01*
X133737840Y-85360600D01*
X133822856Y-85377511D01*
X133822856Y-85377511D01*
G37*
G36*
X131282856Y-85377511D02*
G01*
X131410550Y-85402911D01*
X131497543Y-85438945D01*
X131610920Y-85485907D01*
X131791244Y-85606395D01*
X131944605Y-85759756D01*
X132065093Y-85940080D01*
X132065093Y-85940081D01*
X132148089Y-86140450D01*
X132154094Y-86170639D01*
X132185348Y-86327760D01*
X132190400Y-86353161D01*
X132190400Y-86570039D01*
X132153142Y-86757349D01*
X132148089Y-86782749D01*
X132065093Y-86983120D01*
X131944605Y-87163444D01*
X131791244Y-87316805D01*
X131610920Y-87437293D01*
X131410550Y-87520289D01*
X131325533Y-87537200D01*
X131197840Y-87562600D01*
X130980960Y-87562600D01*
X130853267Y-87537200D01*
X130768250Y-87520289D01*
X130668066Y-87478791D01*
X130567880Y-87437293D01*
X130387556Y-87316805D01*
X130234195Y-87163444D01*
X130113707Y-86983120D01*
X130030711Y-86782749D01*
X130025659Y-86757349D01*
X129988400Y-86570039D01*
X129988400Y-86353161D01*
X129993453Y-86327760D01*
X130024706Y-86170639D01*
X130030711Y-86140450D01*
X130113707Y-85940081D01*
X130113707Y-85940080D01*
X130234195Y-85759756D01*
X130387556Y-85606395D01*
X130567880Y-85485907D01*
X130681257Y-85438945D01*
X130768250Y-85402911D01*
X130895944Y-85377511D01*
X130980960Y-85360600D01*
X131197840Y-85360600D01*
X131282856Y-85377511D01*
X131282856Y-85377511D01*
G37*
G36*
X128742856Y-85377511D02*
G01*
X128870550Y-85402911D01*
X128957543Y-85438945D01*
X129070920Y-85485907D01*
X129251244Y-85606395D01*
X129404605Y-85759756D01*
X129525093Y-85940080D01*
X129525093Y-85940081D01*
X129608089Y-86140450D01*
X129614094Y-86170639D01*
X129645348Y-86327760D01*
X129650400Y-86353161D01*
X129650400Y-86570039D01*
X129613142Y-86757349D01*
X129608089Y-86782749D01*
X129525093Y-86983120D01*
X129404605Y-87163444D01*
X129251244Y-87316805D01*
X129070920Y-87437293D01*
X128870550Y-87520289D01*
X128785533Y-87537200D01*
X128657840Y-87562600D01*
X128440960Y-87562600D01*
X128313267Y-87537200D01*
X128228250Y-87520289D01*
X128128066Y-87478791D01*
X128027880Y-87437293D01*
X127847556Y-87316805D01*
X127694195Y-87163444D01*
X127573707Y-86983120D01*
X127490711Y-86782749D01*
X127485659Y-86757349D01*
X127448400Y-86570039D01*
X127448400Y-86353161D01*
X127453453Y-86327760D01*
X127484706Y-86170639D01*
X127490711Y-86140450D01*
X127573707Y-85940081D01*
X127573707Y-85940080D01*
X127694195Y-85759756D01*
X127847556Y-85606395D01*
X128027880Y-85485907D01*
X128141257Y-85438945D01*
X128228250Y-85402911D01*
X128355944Y-85377511D01*
X128440960Y-85360600D01*
X128657840Y-85360600D01*
X128742856Y-85377511D01*
X128742856Y-85377511D01*
G37*
G36*
X136362856Y-85377511D02*
G01*
X136490550Y-85402911D01*
X136577543Y-85438945D01*
X136690920Y-85485907D01*
X136871244Y-85606395D01*
X137024605Y-85759756D01*
X137145093Y-85940080D01*
X137145093Y-85940081D01*
X137228089Y-86140450D01*
X137234094Y-86170639D01*
X137265348Y-86327760D01*
X137270400Y-86353161D01*
X137270400Y-86570039D01*
X137233142Y-86757349D01*
X137228089Y-86782749D01*
X137145093Y-86983120D01*
X137024605Y-87163444D01*
X136871244Y-87316805D01*
X136690920Y-87437293D01*
X136490550Y-87520289D01*
X136405533Y-87537200D01*
X136277840Y-87562600D01*
X136060960Y-87562600D01*
X135933267Y-87537200D01*
X135848250Y-87520289D01*
X135748066Y-87478791D01*
X135647880Y-87437293D01*
X135467556Y-87316805D01*
X135314195Y-87163444D01*
X135193707Y-86983120D01*
X135110711Y-86782749D01*
X135105659Y-86757349D01*
X135068400Y-86570039D01*
X135068400Y-86353161D01*
X135073453Y-86327760D01*
X135104706Y-86170639D01*
X135110711Y-86140450D01*
X135193707Y-85940081D01*
X135193707Y-85940080D01*
X135314195Y-85759756D01*
X135467556Y-85606395D01*
X135647880Y-85485907D01*
X135761257Y-85438945D01*
X135848250Y-85402911D01*
X135975944Y-85377511D01*
X136060960Y-85360600D01*
X136277840Y-85360600D01*
X136362856Y-85377511D01*
X136362856Y-85377511D01*
G37*
G36*
X123684194Y-85356355D02*
G01*
X123790550Y-85377511D01*
X123990920Y-85460507D01*
X124171244Y-85580995D01*
X124324605Y-85734356D01*
X124445093Y-85914680D01*
X124445093Y-85914681D01*
X124528089Y-86115050D01*
X124539146Y-86170637D01*
X124570400Y-86327760D01*
X124570400Y-86544640D01*
X124528089Y-86757349D01*
X124445093Y-86957720D01*
X124324605Y-87138044D01*
X124171244Y-87291405D01*
X123990920Y-87411893D01*
X123890734Y-87453391D01*
X123790550Y-87494889D01*
X123684194Y-87516045D01*
X123577840Y-87537200D01*
X123360960Y-87537200D01*
X123254605Y-87516044D01*
X123148250Y-87494889D01*
X122947880Y-87411893D01*
X122767556Y-87291405D01*
X122614195Y-87138044D01*
X122493707Y-86957720D01*
X122410711Y-86757349D01*
X122368400Y-86544640D01*
X122368400Y-86327760D01*
X122399654Y-86170637D01*
X122410711Y-86115050D01*
X122493707Y-85914681D01*
X122493707Y-85914680D01*
X122614195Y-85734356D01*
X122767556Y-85580995D01*
X122947880Y-85460507D01*
X123148250Y-85377511D01*
X123254605Y-85356356D01*
X123360960Y-85335200D01*
X123577840Y-85335200D01*
X123684194Y-85356355D01*
X123684194Y-85356355D01*
G37*
G36*
X118604194Y-85356355D02*
G01*
X118710550Y-85377511D01*
X118910920Y-85460507D01*
X119091244Y-85580995D01*
X119244605Y-85734356D01*
X119365093Y-85914680D01*
X119365093Y-85914681D01*
X119448089Y-86115050D01*
X119459146Y-86170637D01*
X119490400Y-86327760D01*
X119490400Y-86544640D01*
X119448089Y-86757349D01*
X119365093Y-86957720D01*
X119244605Y-87138044D01*
X119091244Y-87291405D01*
X118910920Y-87411893D01*
X118810734Y-87453391D01*
X118710550Y-87494889D01*
X118604194Y-87516045D01*
X118497840Y-87537200D01*
X118280960Y-87537200D01*
X118174605Y-87516044D01*
X118068250Y-87494889D01*
X117867880Y-87411893D01*
X117687556Y-87291405D01*
X117534195Y-87138044D01*
X117413707Y-86957720D01*
X117330711Y-86757349D01*
X117288400Y-86544640D01*
X117288400Y-86327760D01*
X117319654Y-86170637D01*
X117330711Y-86115050D01*
X117413707Y-85914681D01*
X117413707Y-85914680D01*
X117534195Y-85734356D01*
X117687556Y-85580995D01*
X117867880Y-85460507D01*
X118068250Y-85377511D01*
X118174605Y-85356356D01*
X118280960Y-85335200D01*
X118497840Y-85335200D01*
X118604194Y-85356355D01*
X118604194Y-85356355D01*
G37*
G36*
X121144194Y-85356355D02*
G01*
X121250550Y-85377511D01*
X121450920Y-85460507D01*
X121631244Y-85580995D01*
X121784605Y-85734356D01*
X121905093Y-85914680D01*
X121905093Y-85914681D01*
X121988089Y-86115050D01*
X121999146Y-86170637D01*
X122030400Y-86327760D01*
X122030400Y-86544640D01*
X121988089Y-86757349D01*
X121905093Y-86957720D01*
X121784605Y-87138044D01*
X121631244Y-87291405D01*
X121450920Y-87411893D01*
X121350734Y-87453391D01*
X121250550Y-87494889D01*
X121144194Y-87516045D01*
X121037840Y-87537200D01*
X120820960Y-87537200D01*
X120714605Y-87516044D01*
X120608250Y-87494889D01*
X120407880Y-87411893D01*
X120227556Y-87291405D01*
X120074195Y-87138044D01*
X119953707Y-86957720D01*
X119870711Y-86757349D01*
X119828400Y-86544640D01*
X119828400Y-86327760D01*
X119859654Y-86170637D01*
X119870711Y-86115050D01*
X119953707Y-85914681D01*
X119953707Y-85914680D01*
X120074195Y-85734356D01*
X120227556Y-85580995D01*
X120407880Y-85460507D01*
X120608250Y-85377511D01*
X120714605Y-85356356D01*
X120820960Y-85335200D01*
X121037840Y-85335200D01*
X121144194Y-85356355D01*
X121144194Y-85356355D01*
G37*
G36*
X116064194Y-85305555D02*
G01*
X116170550Y-85326711D01*
X116252365Y-85360600D01*
X116370920Y-85409707D01*
X116551244Y-85530195D01*
X116704605Y-85683556D01*
X116825093Y-85863880D01*
X116908089Y-86064251D01*
X116950400Y-86276960D01*
X116950400Y-86493840D01*
X116908089Y-86706549D01*
X116825093Y-86906920D01*
X116704605Y-87087244D01*
X116551244Y-87240605D01*
X116370920Y-87361093D01*
X116170550Y-87444089D01*
X116064194Y-87465245D01*
X115957840Y-87486400D01*
X115740960Y-87486400D01*
X115634606Y-87465245D01*
X115528250Y-87444089D01*
X115327880Y-87361093D01*
X115147556Y-87240605D01*
X114994195Y-87087244D01*
X114873707Y-86906920D01*
X114790711Y-86706549D01*
X114748400Y-86493840D01*
X114748400Y-86276960D01*
X114790711Y-86064251D01*
X114873707Y-85863880D01*
X114994195Y-85683556D01*
X115147556Y-85530195D01*
X115327880Y-85409707D01*
X115446435Y-85360600D01*
X115528250Y-85326711D01*
X115634606Y-85305555D01*
X115740960Y-85284400D01*
X115957840Y-85284400D01*
X116064194Y-85305555D01*
X116064194Y-85305555D01*
G37*
G36*
X113524194Y-85305555D02*
G01*
X113630550Y-85326711D01*
X113712365Y-85360600D01*
X113830920Y-85409707D01*
X114011244Y-85530195D01*
X114164605Y-85683556D01*
X114285093Y-85863880D01*
X114368089Y-86064251D01*
X114410400Y-86276960D01*
X114410400Y-86493840D01*
X114368089Y-86706549D01*
X114285093Y-86906920D01*
X114164605Y-87087244D01*
X114011244Y-87240605D01*
X113830920Y-87361093D01*
X113630550Y-87444089D01*
X113524194Y-87465245D01*
X113417840Y-87486400D01*
X113200960Y-87486400D01*
X113094606Y-87465245D01*
X112988250Y-87444089D01*
X112787880Y-87361093D01*
X112607556Y-87240605D01*
X112454195Y-87087244D01*
X112333707Y-86906920D01*
X112250711Y-86706549D01*
X112208400Y-86493840D01*
X112208400Y-86276960D01*
X112250711Y-86064251D01*
X112333707Y-85863880D01*
X112454195Y-85683556D01*
X112607556Y-85530195D01*
X112787880Y-85409707D01*
X112906435Y-85360600D01*
X112988250Y-85326711D01*
X113094606Y-85305555D01*
X113200960Y-85284400D01*
X113417840Y-85284400D01*
X113524194Y-85305555D01*
X113524194Y-85305555D01*
G37*
G36*
X147127987Y-84804196D02*
G01*
X147364753Y-84902268D01*
X147364755Y-84902269D01*
X147577839Y-85044647D01*
X147759053Y-85225861D01*
X147849083Y-85360600D01*
X147901432Y-85438947D01*
X147999504Y-85675713D01*
X148049500Y-85927061D01*
X148049500Y-86183339D01*
X147999504Y-86434687D01*
X147906692Y-86658755D01*
X147901431Y-86671455D01*
X147759053Y-86884539D01*
X147577839Y-87065753D01*
X147364755Y-87208131D01*
X147364754Y-87208132D01*
X147364753Y-87208132D01*
X147127987Y-87306204D01*
X146876639Y-87356200D01*
X146620361Y-87356200D01*
X146369013Y-87306204D01*
X146132247Y-87208132D01*
X146132246Y-87208132D01*
X146132245Y-87208131D01*
X145919161Y-87065753D01*
X145737947Y-86884539D01*
X145595569Y-86671455D01*
X145590308Y-86658755D01*
X145497496Y-86434687D01*
X145447500Y-86183339D01*
X145447500Y-85927061D01*
X145497496Y-85675713D01*
X145595568Y-85438947D01*
X145647918Y-85360600D01*
X145737947Y-85225861D01*
X145919161Y-85044647D01*
X146132245Y-84902269D01*
X146132247Y-84902268D01*
X146369013Y-84804196D01*
X146620361Y-84754200D01*
X146876639Y-84754200D01*
X147127987Y-84804196D01*
X147127987Y-84804196D01*
G37*
G36*
X152157187Y-84804196D02*
G01*
X152393953Y-84902268D01*
X152393955Y-84902269D01*
X152607039Y-85044647D01*
X152788253Y-85225861D01*
X152878283Y-85360600D01*
X152930632Y-85438947D01*
X153028704Y-85675713D01*
X153078700Y-85927061D01*
X153078700Y-86183339D01*
X153028704Y-86434687D01*
X152935892Y-86658755D01*
X152930631Y-86671455D01*
X152788253Y-86884539D01*
X152607039Y-87065753D01*
X152393955Y-87208131D01*
X152393954Y-87208132D01*
X152393953Y-87208132D01*
X152157187Y-87306204D01*
X151905839Y-87356200D01*
X151649561Y-87356200D01*
X151398213Y-87306204D01*
X151161447Y-87208132D01*
X151161446Y-87208132D01*
X151161445Y-87208131D01*
X150948361Y-87065753D01*
X150767147Y-86884539D01*
X150624769Y-86671455D01*
X150619508Y-86658755D01*
X150526696Y-86434687D01*
X150476700Y-86183339D01*
X150476700Y-85927061D01*
X150526696Y-85675713D01*
X150624768Y-85438947D01*
X150677118Y-85360600D01*
X150767147Y-85225861D01*
X150948361Y-85044647D01*
X151161445Y-84902269D01*
X151161447Y-84902268D01*
X151398213Y-84804196D01*
X151649561Y-84754200D01*
X151905839Y-84754200D01*
X152157187Y-84804196D01*
X152157187Y-84804196D01*
G37*
G36*
X157135587Y-84804196D02*
G01*
X157372353Y-84902268D01*
X157372355Y-84902269D01*
X157585439Y-85044647D01*
X157766653Y-85225861D01*
X157856683Y-85360600D01*
X157909032Y-85438947D01*
X158007104Y-85675713D01*
X158057100Y-85927061D01*
X158057100Y-86183339D01*
X158007104Y-86434687D01*
X157914292Y-86658755D01*
X157909031Y-86671455D01*
X157766653Y-86884539D01*
X157585439Y-87065753D01*
X157372355Y-87208131D01*
X157372354Y-87208132D01*
X157372353Y-87208132D01*
X157135587Y-87306204D01*
X156884239Y-87356200D01*
X156627961Y-87356200D01*
X156376613Y-87306204D01*
X156139847Y-87208132D01*
X156139846Y-87208132D01*
X156139845Y-87208131D01*
X155926761Y-87065753D01*
X155745547Y-86884539D01*
X155603169Y-86671455D01*
X155597908Y-86658755D01*
X155505096Y-86434687D01*
X155455100Y-86183339D01*
X155455100Y-85927061D01*
X155505096Y-85675713D01*
X155603168Y-85438947D01*
X155655518Y-85360600D01*
X155745547Y-85225861D01*
X155926761Y-85044647D01*
X156139845Y-84902269D01*
X156139847Y-84902268D01*
X156376613Y-84804196D01*
X156627961Y-84754200D01*
X156884239Y-84754200D01*
X157135587Y-84804196D01*
X157135587Y-84804196D01*
G37*
G36*
X142111487Y-84791496D02*
G01*
X142348253Y-84889568D01*
X142348255Y-84889569D01*
X142561339Y-85031947D01*
X142742553Y-85213161D01*
X142873881Y-85409707D01*
X142884932Y-85426247D01*
X142983004Y-85663013D01*
X143033000Y-85914361D01*
X143033000Y-86170639D01*
X142983004Y-86421987D01*
X142921678Y-86570040D01*
X142884931Y-86658755D01*
X142742553Y-86871839D01*
X142561339Y-87053053D01*
X142348255Y-87195431D01*
X142348254Y-87195432D01*
X142348253Y-87195432D01*
X142111487Y-87293504D01*
X141860139Y-87343500D01*
X141603861Y-87343500D01*
X141352513Y-87293504D01*
X141115747Y-87195432D01*
X141115746Y-87195432D01*
X141115745Y-87195431D01*
X140902661Y-87053053D01*
X140721447Y-86871839D01*
X140579069Y-86658755D01*
X140542322Y-86570040D01*
X140480996Y-86421987D01*
X140431000Y-86170639D01*
X140431000Y-85914361D01*
X140480996Y-85663013D01*
X140579068Y-85426247D01*
X140590120Y-85409707D01*
X140721447Y-85213161D01*
X140902661Y-85031947D01*
X141115745Y-84889569D01*
X141115747Y-84889568D01*
X141352513Y-84791496D01*
X141603861Y-84741500D01*
X141860139Y-84741500D01*
X142111487Y-84791496D01*
X142111487Y-84791496D01*
G37*
G36*
X109341256Y-80966698D02*
G01*
X109447579Y-80987847D01*
X109748042Y-81112303D01*
X110018451Y-81292985D01*
X110248415Y-81522949D01*
X110429097Y-81793358D01*
X110553553Y-82093821D01*
X110617000Y-82412791D01*
X110617000Y-82738009D01*
X110553553Y-83056979D01*
X110429097Y-83357442D01*
X110248415Y-83627851D01*
X110018451Y-83857815D01*
X109748042Y-84038497D01*
X109447579Y-84162953D01*
X109341256Y-84184102D01*
X109128611Y-84226400D01*
X108803389Y-84226400D01*
X108590744Y-84184102D01*
X108484421Y-84162953D01*
X108183958Y-84038497D01*
X107913549Y-83857815D01*
X107683585Y-83627851D01*
X107502903Y-83357442D01*
X107378447Y-83056979D01*
X107315000Y-82738009D01*
X107315000Y-82412791D01*
X107378447Y-82093821D01*
X107502903Y-81793358D01*
X107683585Y-81522949D01*
X107913549Y-81292985D01*
X108183958Y-81112303D01*
X108484421Y-80987847D01*
X108590744Y-80966698D01*
X108803389Y-80924400D01*
X109128611Y-80924400D01*
X109341256Y-80966698D01*
X109341256Y-80966698D01*
G37*
G36*
X163138456Y-80966698D02*
G01*
X163244779Y-80987847D01*
X163545242Y-81112303D01*
X163815651Y-81292985D01*
X164045615Y-81522949D01*
X164226297Y-81793358D01*
X164350753Y-82093821D01*
X164414200Y-82412791D01*
X164414200Y-82738009D01*
X164350753Y-83056979D01*
X164226297Y-83357442D01*
X164045615Y-83627851D01*
X163815651Y-83857815D01*
X163545242Y-84038497D01*
X163244779Y-84162953D01*
X163138456Y-84184102D01*
X162925811Y-84226400D01*
X162600589Y-84226400D01*
X162387944Y-84184102D01*
X162281621Y-84162953D01*
X161981158Y-84038497D01*
X161710749Y-83857815D01*
X161480785Y-83627851D01*
X161300103Y-83357442D01*
X161175647Y-83056979D01*
X161112200Y-82738009D01*
X161112200Y-82412791D01*
X161175647Y-82093821D01*
X161300103Y-81793358D01*
X161480785Y-81522949D01*
X161710749Y-81292985D01*
X161981158Y-81112303D01*
X162281621Y-80987847D01*
X162387944Y-80966698D01*
X162600589Y-80924400D01*
X162925811Y-80924400D01*
X163138456Y-80966698D01*
X163138456Y-80966698D01*
G37*
M02*
