G04 #@! TF.GenerationSoftware,KiCad,Pcbnew,5.1.2-f72e74a~84~ubuntu19.04.1*
G04 #@! TF.CreationDate,2019-05-07T16:21:10-05:00*
G04 #@! TF.ProjectId,Adapter-TE-52,41646170-7465-4722-9d54-452d35322e6b,rev?*
G04 #@! TF.SameCoordinates,Original*
G04 #@! TF.FileFunction,Legend,Bot*
G04 #@! TF.FilePolarity,Positive*
%FSLAX46Y46*%
G04 Gerber Fmt 4.6, Leading zero omitted, Abs format (unit mm)*
G04 Created by KiCad (PCBNEW 5.1.2-f72e74a~84~ubuntu19.04.1) date 2019-05-07 16:21:10*
%MOMM*%
%LPD*%
G04 APERTURE LIST*
%ADD10C,0.120000*%
%ADD11C,0.150000*%
G04 APERTURE END LIST*
D10*
X156768800Y-113868200D02*
X167513000Y-113893600D01*
X143840200Y-113817400D02*
X155371800Y-113842800D01*
D11*
X151509123Y-112631600D02*
X151604361Y-112583980D01*
X151747219Y-112583980D01*
X151890076Y-112631600D01*
X151985314Y-112726838D01*
X152032933Y-112822076D01*
X152080552Y-113012552D01*
X152080552Y-113155409D01*
X152032933Y-113345885D01*
X151985314Y-113441123D01*
X151890076Y-113536361D01*
X151747219Y-113583980D01*
X151651980Y-113583980D01*
X151509123Y-113536361D01*
X151461504Y-113488742D01*
X151461504Y-113155409D01*
X151651980Y-113155409D01*
X150461504Y-113583980D02*
X150794838Y-113107790D01*
X151032933Y-113583980D02*
X151032933Y-112583980D01*
X150651980Y-112583980D01*
X150556742Y-112631600D01*
X150509123Y-112679219D01*
X150461504Y-112774457D01*
X150461504Y-112917314D01*
X150509123Y-113012552D01*
X150556742Y-113060171D01*
X150651980Y-113107790D01*
X151032933Y-113107790D01*
X149842457Y-112583980D02*
X149651980Y-112583980D01*
X149556742Y-112631600D01*
X149461504Y-112726838D01*
X149413885Y-112917314D01*
X149413885Y-113250647D01*
X149461504Y-113441123D01*
X149556742Y-113536361D01*
X149651980Y-113583980D01*
X149842457Y-113583980D01*
X149937695Y-113536361D01*
X150032933Y-113441123D01*
X150080552Y-113250647D01*
X150080552Y-112917314D01*
X150032933Y-112726838D01*
X149937695Y-112631600D01*
X149842457Y-112583980D01*
X148985314Y-112583980D02*
X148985314Y-113393504D01*
X148937695Y-113488742D01*
X148890076Y-113536361D01*
X148794838Y-113583980D01*
X148604361Y-113583980D01*
X148509123Y-113536361D01*
X148461504Y-113488742D01*
X148413885Y-113393504D01*
X148413885Y-112583980D01*
X147937695Y-113583980D02*
X147937695Y-112583980D01*
X147366266Y-113583980D01*
X147366266Y-112583980D01*
X146890076Y-113583980D02*
X146890076Y-112583980D01*
X146651980Y-112583980D01*
X146509123Y-112631600D01*
X146413885Y-112726838D01*
X146366266Y-112822076D01*
X146318647Y-113012552D01*
X146318647Y-113155409D01*
X146366266Y-113345885D01*
X146413885Y-113441123D01*
X146509123Y-113536361D01*
X146651980Y-113583980D01*
X146890076Y-113583980D01*
X165212400Y-112983971D02*
X165069542Y-113031590D01*
X165021923Y-113079209D01*
X164974304Y-113174447D01*
X164974304Y-113317304D01*
X165021923Y-113412542D01*
X165069542Y-113460161D01*
X165164780Y-113507780D01*
X165545733Y-113507780D01*
X165545733Y-112507780D01*
X165212400Y-112507780D01*
X165117161Y-112555400D01*
X165069542Y-112603019D01*
X165021923Y-112698257D01*
X165021923Y-112793495D01*
X165069542Y-112888733D01*
X165117161Y-112936352D01*
X165212400Y-112983971D01*
X165545733Y-112983971D01*
X164593352Y-113222066D02*
X164117161Y-113222066D01*
X164688590Y-113507780D02*
X164355257Y-112507780D01*
X164021923Y-113507780D01*
X163831447Y-112507780D02*
X163260019Y-112507780D01*
X163545733Y-113507780D02*
X163545733Y-112507780D01*
X163069542Y-112507780D02*
X162498114Y-112507780D01*
X162783828Y-113507780D02*
X162783828Y-112507780D01*
X162164780Y-112983971D02*
X161831447Y-112983971D01*
X161688590Y-113507780D02*
X162164780Y-113507780D01*
X162164780Y-112507780D01*
X161688590Y-112507780D01*
X160688590Y-113507780D02*
X161021923Y-113031590D01*
X161260019Y-113507780D02*
X161260019Y-112507780D01*
X160879066Y-112507780D01*
X160783828Y-112555400D01*
X160736209Y-112603019D01*
X160688590Y-112698257D01*
X160688590Y-112841114D01*
X160736209Y-112936352D01*
X160783828Y-112983971D01*
X160879066Y-113031590D01*
X161260019Y-113031590D01*
X160069542Y-113031590D02*
X160069542Y-113507780D01*
X160402876Y-112507780D02*
X160069542Y-113031590D01*
X159736209Y-112507780D01*
X134138895Y-112898180D02*
X134472228Y-112421990D01*
X134710323Y-112898180D02*
X134710323Y-111898180D01*
X134329371Y-111898180D01*
X134234133Y-111945800D01*
X134186514Y-111993419D01*
X134138895Y-112088657D01*
X134138895Y-112231514D01*
X134186514Y-112326752D01*
X134234133Y-112374371D01*
X134329371Y-112421990D01*
X134710323Y-112421990D01*
X133376990Y-112374371D02*
X133710323Y-112374371D01*
X133710323Y-112898180D02*
X133710323Y-111898180D01*
X133234133Y-111898180D01*
X132853180Y-112517228D02*
X132091276Y-112517228D01*
X132056095Y-114320580D02*
X132389428Y-113844390D01*
X132627523Y-114320580D02*
X132627523Y-113320580D01*
X132246571Y-113320580D01*
X132151333Y-113368200D01*
X132103714Y-113415819D01*
X132056095Y-113511057D01*
X132056095Y-113653914D01*
X132103714Y-113749152D01*
X132151333Y-113796771D01*
X132246571Y-113844390D01*
X132627523Y-113844390D01*
X131294190Y-113796771D02*
X131627523Y-113796771D01*
X131627523Y-114320580D02*
X131627523Y-113320580D01*
X131151333Y-113320580D01*
X130770380Y-113939628D02*
X130008476Y-113939628D01*
X130389428Y-114320580D02*
X130389428Y-113558676D01*
X129262095Y-112745780D02*
X129738285Y-112745780D01*
X129738285Y-111745780D01*
X128595428Y-112221971D02*
X128928761Y-112221971D01*
X128928761Y-112745780D02*
X128928761Y-111745780D01*
X128452571Y-111745780D01*
X128071619Y-112364828D02*
X127309714Y-112364828D01*
X127052295Y-114015780D02*
X127528485Y-114015780D01*
X127528485Y-113015780D01*
X126385628Y-113491971D02*
X126718961Y-113491971D01*
X126718961Y-114015780D02*
X126718961Y-113015780D01*
X126242771Y-113015780D01*
X125861819Y-113634828D02*
X125099914Y-113634828D01*
X125480866Y-114015780D02*
X125480866Y-113253876D01*
X124583723Y-112720380D02*
X125059914Y-112720380D01*
X125059914Y-111720380D01*
X123678961Y-112720380D02*
X124012295Y-112244190D01*
X124250390Y-112720380D02*
X124250390Y-111720380D01*
X123869438Y-111720380D01*
X123774200Y-111768000D01*
X123726580Y-111815619D01*
X123678961Y-111910857D01*
X123678961Y-112053714D01*
X123726580Y-112148952D01*
X123774200Y-112196571D01*
X123869438Y-112244190D01*
X124250390Y-112244190D01*
X123250390Y-112339428D02*
X122488485Y-112339428D01*
X122869438Y-112720380D02*
X122869438Y-111958476D01*
X121865923Y-114091980D02*
X122342114Y-114091980D01*
X122342114Y-113091980D01*
X120961161Y-114091980D02*
X121294495Y-113615790D01*
X121532590Y-114091980D02*
X121532590Y-113091980D01*
X121151638Y-113091980D01*
X121056400Y-113139600D01*
X121008780Y-113187219D01*
X120961161Y-113282457D01*
X120961161Y-113425314D01*
X121008780Y-113520552D01*
X121056400Y-113568171D01*
X121151638Y-113615790D01*
X121532590Y-113615790D01*
X120532590Y-113711028D02*
X119770685Y-113711028D01*
X119529123Y-112491780D02*
X119862457Y-112015590D01*
X120100552Y-112491780D02*
X120100552Y-111491780D01*
X119719600Y-111491780D01*
X119624361Y-111539400D01*
X119576742Y-111587019D01*
X119529123Y-111682257D01*
X119529123Y-111825114D01*
X119576742Y-111920352D01*
X119624361Y-111967971D01*
X119719600Y-112015590D01*
X120100552Y-112015590D01*
X118529123Y-112491780D02*
X118862457Y-112015590D01*
X119100552Y-112491780D02*
X119100552Y-111491780D01*
X118719600Y-111491780D01*
X118624361Y-111539400D01*
X118576742Y-111587019D01*
X118529123Y-111682257D01*
X118529123Y-111825114D01*
X118576742Y-111920352D01*
X118624361Y-111967971D01*
X118719600Y-112015590D01*
X119100552Y-112015590D01*
X118100552Y-112110828D02*
X117338647Y-112110828D01*
X117719600Y-112491780D02*
X117719600Y-111729876D01*
X116811323Y-113914180D02*
X117144657Y-113437990D01*
X117382752Y-113914180D02*
X117382752Y-112914180D01*
X117001800Y-112914180D01*
X116906561Y-112961800D01*
X116858942Y-113009419D01*
X116811323Y-113104657D01*
X116811323Y-113247514D01*
X116858942Y-113342752D01*
X116906561Y-113390371D01*
X117001800Y-113437990D01*
X117382752Y-113437990D01*
X115811323Y-113914180D02*
X116144657Y-113437990D01*
X116382752Y-113914180D02*
X116382752Y-112914180D01*
X116001800Y-112914180D01*
X115906561Y-112961800D01*
X115858942Y-113009419D01*
X115811323Y-113104657D01*
X115811323Y-113247514D01*
X115858942Y-113342752D01*
X115906561Y-113390371D01*
X116001800Y-113437990D01*
X116382752Y-113437990D01*
X115382752Y-113533228D02*
X114620847Y-113533228D01*
X104538304Y-113793542D02*
X104585923Y-113841161D01*
X104728780Y-113888780D01*
X104824019Y-113888780D01*
X104966876Y-113841161D01*
X105062114Y-113745923D01*
X105109733Y-113650685D01*
X105157352Y-113460209D01*
X105157352Y-113317352D01*
X105109733Y-113126876D01*
X105062114Y-113031638D01*
X104966876Y-112936400D01*
X104824019Y-112888780D01*
X104728780Y-112888780D01*
X104585923Y-112936400D01*
X104538304Y-112984019D01*
X104157352Y-113603066D02*
X103681161Y-113603066D01*
X104252590Y-113888780D02*
X103919257Y-112888780D01*
X103585923Y-113888780D01*
X103252590Y-113888780D02*
X103252590Y-112888780D01*
X102681161Y-113888780D01*
X102681161Y-112888780D01*
X102204971Y-113507828D02*
X101443066Y-113507828D01*
X101824019Y-113888780D02*
X101824019Y-113126876D01*
X107129104Y-112802942D02*
X107176723Y-112850561D01*
X107319580Y-112898180D01*
X107414819Y-112898180D01*
X107557676Y-112850561D01*
X107652914Y-112755323D01*
X107700533Y-112660085D01*
X107748152Y-112469609D01*
X107748152Y-112326752D01*
X107700533Y-112136276D01*
X107652914Y-112041038D01*
X107557676Y-111945800D01*
X107414819Y-111898180D01*
X107319580Y-111898180D01*
X107176723Y-111945800D01*
X107129104Y-111993419D01*
X106748152Y-112612466D02*
X106271961Y-112612466D01*
X106843390Y-112898180D02*
X106510057Y-111898180D01*
X106176723Y-112898180D01*
X105843390Y-112898180D02*
X105843390Y-111898180D01*
X105271961Y-112898180D01*
X105271961Y-111898180D01*
X104795771Y-112517228D02*
X104033866Y-112517228D01*
X112332923Y-112701342D02*
X112380542Y-112748961D01*
X112523400Y-112796580D01*
X112618638Y-112796580D01*
X112761495Y-112748961D01*
X112856733Y-112653723D01*
X112904352Y-112558485D01*
X112951971Y-112368009D01*
X112951971Y-112225152D01*
X112904352Y-112034676D01*
X112856733Y-111939438D01*
X112761495Y-111844200D01*
X112618638Y-111796580D01*
X112523400Y-111796580D01*
X112380542Y-111844200D01*
X112332923Y-111891819D01*
X111951971Y-112510866D02*
X111475780Y-112510866D01*
X112047209Y-112796580D02*
X111713876Y-111796580D01*
X111380542Y-112796580D01*
X111047209Y-112796580D02*
X111047209Y-111796580D01*
X110713876Y-112510866D01*
X110380542Y-111796580D01*
X110380542Y-112796580D01*
X109904352Y-112415628D02*
X109142447Y-112415628D01*
X110148523Y-113971342D02*
X110196142Y-114018961D01*
X110339000Y-114066580D01*
X110434238Y-114066580D01*
X110577095Y-114018961D01*
X110672333Y-113923723D01*
X110719952Y-113828485D01*
X110767571Y-113638009D01*
X110767571Y-113495152D01*
X110719952Y-113304676D01*
X110672333Y-113209438D01*
X110577095Y-113114200D01*
X110434238Y-113066580D01*
X110339000Y-113066580D01*
X110196142Y-113114200D01*
X110148523Y-113161819D01*
X109767571Y-113780866D02*
X109291380Y-113780866D01*
X109862809Y-114066580D02*
X109529476Y-113066580D01*
X109196142Y-114066580D01*
X108862809Y-114066580D02*
X108862809Y-113066580D01*
X108529476Y-113780866D01*
X108196142Y-113066580D01*
X108196142Y-114066580D01*
X107719952Y-113685628D02*
X106958047Y-113685628D01*
X107339000Y-114066580D02*
X107339000Y-113304676D01*
X153998323Y-87968200D02*
X154093561Y-87920580D01*
X154236419Y-87920580D01*
X154379276Y-87968200D01*
X154474514Y-88063438D01*
X154522133Y-88158676D01*
X154569752Y-88349152D01*
X154569752Y-88492009D01*
X154522133Y-88682485D01*
X154474514Y-88777723D01*
X154379276Y-88872961D01*
X154236419Y-88920580D01*
X154141180Y-88920580D01*
X153998323Y-88872961D01*
X153950704Y-88825342D01*
X153950704Y-88492009D01*
X154141180Y-88492009D01*
X152950704Y-88920580D02*
X153284038Y-88444390D01*
X153522133Y-88920580D02*
X153522133Y-87920580D01*
X153141180Y-87920580D01*
X153045942Y-87968200D01*
X152998323Y-88015819D01*
X152950704Y-88111057D01*
X152950704Y-88253914D01*
X152998323Y-88349152D01*
X153045942Y-88396771D01*
X153141180Y-88444390D01*
X153522133Y-88444390D01*
X152331657Y-87920580D02*
X152141180Y-87920580D01*
X152045942Y-87968200D01*
X151950704Y-88063438D01*
X151903085Y-88253914D01*
X151903085Y-88587247D01*
X151950704Y-88777723D01*
X152045942Y-88872961D01*
X152141180Y-88920580D01*
X152331657Y-88920580D01*
X152426895Y-88872961D01*
X152522133Y-88777723D01*
X152569752Y-88587247D01*
X152569752Y-88253914D01*
X152522133Y-88063438D01*
X152426895Y-87968200D01*
X152331657Y-87920580D01*
X151474514Y-87920580D02*
X151474514Y-88730104D01*
X151426895Y-88825342D01*
X151379276Y-88872961D01*
X151284038Y-88920580D01*
X151093561Y-88920580D01*
X150998323Y-88872961D01*
X150950704Y-88825342D01*
X150903085Y-88730104D01*
X150903085Y-87920580D01*
X150426895Y-88920580D02*
X150426895Y-87920580D01*
X149855466Y-88920580D01*
X149855466Y-87920580D01*
X149379276Y-88920580D02*
X149379276Y-87920580D01*
X149141180Y-87920580D01*
X148998323Y-87968200D01*
X148903085Y-88063438D01*
X148855466Y-88158676D01*
X148807847Y-88349152D01*
X148807847Y-88492009D01*
X148855466Y-88682485D01*
X148903085Y-88777723D01*
X148998323Y-88872961D01*
X149141180Y-88920580D01*
X149379276Y-88920580D01*
X159218000Y-83799371D02*
X159075142Y-83846990D01*
X159027523Y-83894609D01*
X158979904Y-83989847D01*
X158979904Y-84132704D01*
X159027523Y-84227942D01*
X159075142Y-84275561D01*
X159170380Y-84323180D01*
X159551333Y-84323180D01*
X159551333Y-83323180D01*
X159218000Y-83323180D01*
X159122761Y-83370800D01*
X159075142Y-83418419D01*
X159027523Y-83513657D01*
X159027523Y-83608895D01*
X159075142Y-83704133D01*
X159122761Y-83751752D01*
X159218000Y-83799371D01*
X159551333Y-83799371D01*
X158598952Y-84037466D02*
X158122761Y-84037466D01*
X158694190Y-84323180D02*
X158360857Y-83323180D01*
X158027523Y-84323180D01*
X157837047Y-83323180D02*
X157265619Y-83323180D01*
X157551333Y-84323180D02*
X157551333Y-83323180D01*
X157075142Y-83323180D02*
X156503714Y-83323180D01*
X156789428Y-84323180D02*
X156789428Y-83323180D01*
X156170380Y-83799371D02*
X155837047Y-83799371D01*
X155694190Y-84323180D02*
X156170380Y-84323180D01*
X156170380Y-83323180D01*
X155694190Y-83323180D01*
X154694190Y-84323180D02*
X155027523Y-83846990D01*
X155265619Y-84323180D02*
X155265619Y-83323180D01*
X154884666Y-83323180D01*
X154789428Y-83370800D01*
X154741809Y-83418419D01*
X154694190Y-83513657D01*
X154694190Y-83656514D01*
X154741809Y-83751752D01*
X154789428Y-83799371D01*
X154884666Y-83846990D01*
X155265619Y-83846990D01*
X154075142Y-83846990D02*
X154075142Y-84323180D01*
X154408476Y-83323180D02*
X154075142Y-83846990D01*
X153741809Y-83323180D01*
X157273523Y-100071180D02*
X157749714Y-100071180D01*
X157749714Y-99071180D01*
X156368761Y-100071180D02*
X156702095Y-99594990D01*
X156940190Y-100071180D02*
X156940190Y-99071180D01*
X156559238Y-99071180D01*
X156464000Y-99118800D01*
X156416380Y-99166419D01*
X156368761Y-99261657D01*
X156368761Y-99404514D01*
X156416380Y-99499752D01*
X156464000Y-99547371D01*
X156559238Y-99594990D01*
X156940190Y-99594990D01*
X155940190Y-99690228D02*
X155178285Y-99690228D01*
X152198295Y-99918780D02*
X152674485Y-99918780D01*
X152674485Y-98918780D01*
X151531628Y-99394971D02*
X151864961Y-99394971D01*
X151864961Y-99918780D02*
X151864961Y-98918780D01*
X151388771Y-98918780D01*
X151007819Y-99537828D02*
X150245914Y-99537828D01*
X157044923Y-92222580D02*
X157521114Y-92222580D01*
X157521114Y-91222580D01*
X156140161Y-92222580D02*
X156473495Y-91746390D01*
X156711590Y-92222580D02*
X156711590Y-91222580D01*
X156330638Y-91222580D01*
X156235400Y-91270200D01*
X156187780Y-91317819D01*
X156140161Y-91413057D01*
X156140161Y-91555914D01*
X156187780Y-91651152D01*
X156235400Y-91698771D01*
X156330638Y-91746390D01*
X156711590Y-91746390D01*
X155711590Y-91841628D02*
X154949685Y-91841628D01*
X155330638Y-92222580D02*
X155330638Y-91460676D01*
X152071295Y-92349580D02*
X152547485Y-92349580D01*
X152547485Y-91349580D01*
X151404628Y-91825771D02*
X151737961Y-91825771D01*
X151737961Y-92349580D02*
X151737961Y-91349580D01*
X151261771Y-91349580D01*
X150880819Y-91968628D02*
X150118914Y-91968628D01*
X150499866Y-92349580D02*
X150499866Y-91587676D01*
X147092895Y-92222580D02*
X147426228Y-91746390D01*
X147664323Y-92222580D02*
X147664323Y-91222580D01*
X147283371Y-91222580D01*
X147188133Y-91270200D01*
X147140514Y-91317819D01*
X147092895Y-91413057D01*
X147092895Y-91555914D01*
X147140514Y-91651152D01*
X147188133Y-91698771D01*
X147283371Y-91746390D01*
X147664323Y-91746390D01*
X146330990Y-91698771D02*
X146664323Y-91698771D01*
X146664323Y-92222580D02*
X146664323Y-91222580D01*
X146188133Y-91222580D01*
X145807180Y-91841628D02*
X145045276Y-91841628D01*
X145426228Y-92222580D02*
X145426228Y-91460676D01*
X141855723Y-92171780D02*
X142189057Y-91695590D01*
X142427152Y-92171780D02*
X142427152Y-91171780D01*
X142046200Y-91171780D01*
X141950961Y-91219400D01*
X141903342Y-91267019D01*
X141855723Y-91362257D01*
X141855723Y-91505114D01*
X141903342Y-91600352D01*
X141950961Y-91647971D01*
X142046200Y-91695590D01*
X142427152Y-91695590D01*
X140855723Y-92171780D02*
X141189057Y-91695590D01*
X141427152Y-92171780D02*
X141427152Y-91171780D01*
X141046200Y-91171780D01*
X140950961Y-91219400D01*
X140903342Y-91267019D01*
X140855723Y-91362257D01*
X140855723Y-91505114D01*
X140903342Y-91600352D01*
X140950961Y-91647971D01*
X141046200Y-91695590D01*
X141427152Y-91695590D01*
X140427152Y-91790828D02*
X139665247Y-91790828D01*
X140046200Y-92171780D02*
X140046200Y-91409876D01*
X146762695Y-99918780D02*
X147096028Y-99442590D01*
X147334123Y-99918780D02*
X147334123Y-98918780D01*
X146953171Y-98918780D01*
X146857933Y-98966400D01*
X146810314Y-99014019D01*
X146762695Y-99109257D01*
X146762695Y-99252114D01*
X146810314Y-99347352D01*
X146857933Y-99394971D01*
X146953171Y-99442590D01*
X147334123Y-99442590D01*
X146000790Y-99394971D02*
X146334123Y-99394971D01*
X146334123Y-99918780D02*
X146334123Y-98918780D01*
X145857933Y-98918780D01*
X145476980Y-99537828D02*
X144715076Y-99537828D01*
X142008123Y-99969580D02*
X142341457Y-99493390D01*
X142579552Y-99969580D02*
X142579552Y-98969580D01*
X142198600Y-98969580D01*
X142103361Y-99017200D01*
X142055742Y-99064819D01*
X142008123Y-99160057D01*
X142008123Y-99302914D01*
X142055742Y-99398152D01*
X142103361Y-99445771D01*
X142198600Y-99493390D01*
X142579552Y-99493390D01*
X141008123Y-99969580D02*
X141341457Y-99493390D01*
X141579552Y-99969580D02*
X141579552Y-98969580D01*
X141198600Y-98969580D01*
X141103361Y-99017200D01*
X141055742Y-99064819D01*
X141008123Y-99160057D01*
X141008123Y-99302914D01*
X141055742Y-99398152D01*
X141103361Y-99445771D01*
X141198600Y-99493390D01*
X141579552Y-99493390D01*
X140579552Y-99588628D02*
X139817647Y-99588628D01*
X116803323Y-105411542D02*
X116850942Y-105459161D01*
X116993800Y-105506780D01*
X117089038Y-105506780D01*
X117231895Y-105459161D01*
X117327133Y-105363923D01*
X117374752Y-105268685D01*
X117422371Y-105078209D01*
X117422371Y-104935352D01*
X117374752Y-104744876D01*
X117327133Y-104649638D01*
X117231895Y-104554400D01*
X117089038Y-104506780D01*
X116993800Y-104506780D01*
X116850942Y-104554400D01*
X116803323Y-104602019D01*
X116422371Y-105221066D02*
X115946180Y-105221066D01*
X116517609Y-105506780D02*
X116184276Y-104506780D01*
X115850942Y-105506780D01*
X115517609Y-105506780D02*
X115517609Y-104506780D01*
X115184276Y-105221066D01*
X114850942Y-104506780D01*
X114850942Y-105506780D01*
X114374752Y-105125828D02*
X113612847Y-105125828D01*
X113653723Y-103938342D02*
X113701342Y-103985961D01*
X113844200Y-104033580D01*
X113939438Y-104033580D01*
X114082295Y-103985961D01*
X114177533Y-103890723D01*
X114225152Y-103795485D01*
X114272771Y-103605009D01*
X114272771Y-103462152D01*
X114225152Y-103271676D01*
X114177533Y-103176438D01*
X114082295Y-103081200D01*
X113939438Y-103033580D01*
X113844200Y-103033580D01*
X113701342Y-103081200D01*
X113653723Y-103128819D01*
X113272771Y-103747866D02*
X112796580Y-103747866D01*
X113368009Y-104033580D02*
X113034676Y-103033580D01*
X112701342Y-104033580D01*
X112368009Y-104033580D02*
X112368009Y-103033580D01*
X112034676Y-103747866D01*
X111701342Y-103033580D01*
X111701342Y-104033580D01*
X111225152Y-103652628D02*
X110463247Y-103652628D01*
X110844200Y-104033580D02*
X110844200Y-103271676D01*
X116730304Y-91416142D02*
X116777923Y-91463761D01*
X116920780Y-91511380D01*
X117016019Y-91511380D01*
X117158876Y-91463761D01*
X117254114Y-91368523D01*
X117301733Y-91273285D01*
X117349352Y-91082809D01*
X117349352Y-90939952D01*
X117301733Y-90749476D01*
X117254114Y-90654238D01*
X117158876Y-90559000D01*
X117016019Y-90511380D01*
X116920780Y-90511380D01*
X116777923Y-90559000D01*
X116730304Y-90606619D01*
X116349352Y-91225666D02*
X115873161Y-91225666D01*
X116444590Y-91511380D02*
X116111257Y-90511380D01*
X115777923Y-91511380D01*
X115444590Y-91511380D02*
X115444590Y-90511380D01*
X114873161Y-91511380D01*
X114873161Y-90511380D01*
X114396971Y-91130428D02*
X113635066Y-91130428D01*
X116882704Y-84380342D02*
X116930323Y-84427961D01*
X117073180Y-84475580D01*
X117168419Y-84475580D01*
X117311276Y-84427961D01*
X117406514Y-84332723D01*
X117454133Y-84237485D01*
X117501752Y-84047009D01*
X117501752Y-83904152D01*
X117454133Y-83713676D01*
X117406514Y-83618438D01*
X117311276Y-83523200D01*
X117168419Y-83475580D01*
X117073180Y-83475580D01*
X116930323Y-83523200D01*
X116882704Y-83570819D01*
X116501752Y-84189866D02*
X116025561Y-84189866D01*
X116596990Y-84475580D02*
X116263657Y-83475580D01*
X115930323Y-84475580D01*
X115596990Y-84475580D02*
X115596990Y-83475580D01*
X115025561Y-84475580D01*
X115025561Y-83475580D01*
X114549371Y-84094628D02*
X113787466Y-84094628D01*
X114168419Y-84475580D02*
X114168419Y-83713676D01*
D10*
X102492500Y-119511900D02*
X168652500Y-119511900D01*
X168652500Y-119511900D02*
X168652500Y-122171900D01*
X168652500Y-122171900D02*
X102492500Y-122171900D01*
X102492500Y-122171900D02*
X102492500Y-119511900D01*
X103442500Y-122171900D02*
X103442500Y-128171900D01*
X103442500Y-128171900D02*
X104202500Y-128171900D01*
X104202500Y-128171900D02*
X104202500Y-122171900D01*
X103502500Y-122171900D02*
X103502500Y-128171900D01*
X103622500Y-122171900D02*
X103622500Y-128171900D01*
X103742500Y-122171900D02*
X103742500Y-128171900D01*
X103862500Y-122171900D02*
X103862500Y-128171900D01*
X103982500Y-122171900D02*
X103982500Y-128171900D01*
X104102500Y-122171900D02*
X104102500Y-128171900D01*
X103442500Y-119114829D02*
X103442500Y-119511900D01*
X104202500Y-119114829D02*
X104202500Y-119511900D01*
X103442500Y-116641900D02*
X103442500Y-117028971D01*
X104202500Y-116641900D02*
X104202500Y-117028971D01*
X105092500Y-119511900D02*
X105092500Y-122171900D01*
X105982500Y-122171900D02*
X105982500Y-128171900D01*
X105982500Y-128171900D02*
X106742500Y-128171900D01*
X106742500Y-128171900D02*
X106742500Y-122171900D01*
X105982500Y-119114829D02*
X105982500Y-119511900D01*
X106742500Y-119114829D02*
X106742500Y-119511900D01*
X105982500Y-116574829D02*
X105982500Y-117028971D01*
X106742500Y-116574829D02*
X106742500Y-117028971D01*
X107632500Y-119511900D02*
X107632500Y-122171900D01*
X108522500Y-122171900D02*
X108522500Y-128171900D01*
X108522500Y-128171900D02*
X109282500Y-128171900D01*
X109282500Y-128171900D02*
X109282500Y-122171900D01*
X108522500Y-119114829D02*
X108522500Y-119511900D01*
X109282500Y-119114829D02*
X109282500Y-119511900D01*
X108522500Y-116574829D02*
X108522500Y-117028971D01*
X109282500Y-116574829D02*
X109282500Y-117028971D01*
X110172500Y-119511900D02*
X110172500Y-122171900D01*
X111062500Y-122171900D02*
X111062500Y-128171900D01*
X111062500Y-128171900D02*
X111822500Y-128171900D01*
X111822500Y-128171900D02*
X111822500Y-122171900D01*
X111062500Y-119114829D02*
X111062500Y-119511900D01*
X111822500Y-119114829D02*
X111822500Y-119511900D01*
X111062500Y-116574829D02*
X111062500Y-117028971D01*
X111822500Y-116574829D02*
X111822500Y-117028971D01*
X112712500Y-119511900D02*
X112712500Y-122171900D01*
X113602500Y-122171900D02*
X113602500Y-128171900D01*
X113602500Y-128171900D02*
X114362500Y-128171900D01*
X114362500Y-128171900D02*
X114362500Y-122171900D01*
X113602500Y-119114829D02*
X113602500Y-119511900D01*
X114362500Y-119114829D02*
X114362500Y-119511900D01*
X113602500Y-116574829D02*
X113602500Y-117028971D01*
X114362500Y-116574829D02*
X114362500Y-117028971D01*
X115252500Y-119511900D02*
X115252500Y-122171900D01*
X116142500Y-122171900D02*
X116142500Y-128171900D01*
X116142500Y-128171900D02*
X116902500Y-128171900D01*
X116902500Y-128171900D02*
X116902500Y-122171900D01*
X116142500Y-119114829D02*
X116142500Y-119511900D01*
X116902500Y-119114829D02*
X116902500Y-119511900D01*
X116142500Y-116574829D02*
X116142500Y-117028971D01*
X116902500Y-116574829D02*
X116902500Y-117028971D01*
X117792500Y-119511900D02*
X117792500Y-122171900D01*
X118682500Y-122171900D02*
X118682500Y-128171900D01*
X118682500Y-128171900D02*
X119442500Y-128171900D01*
X119442500Y-128171900D02*
X119442500Y-122171900D01*
X118682500Y-119114829D02*
X118682500Y-119511900D01*
X119442500Y-119114829D02*
X119442500Y-119511900D01*
X118682500Y-116574829D02*
X118682500Y-117028971D01*
X119442500Y-116574829D02*
X119442500Y-117028971D01*
X120332500Y-119511900D02*
X120332500Y-122171900D01*
X121222500Y-122171900D02*
X121222500Y-128171900D01*
X121222500Y-128171900D02*
X121982500Y-128171900D01*
X121982500Y-128171900D02*
X121982500Y-122171900D01*
X121222500Y-119114829D02*
X121222500Y-119511900D01*
X121982500Y-119114829D02*
X121982500Y-119511900D01*
X121222500Y-116574829D02*
X121222500Y-117028971D01*
X121982500Y-116574829D02*
X121982500Y-117028971D01*
X122872500Y-119511900D02*
X122872500Y-122171900D01*
X123762500Y-122171900D02*
X123762500Y-128171900D01*
X123762500Y-128171900D02*
X124522500Y-128171900D01*
X124522500Y-128171900D02*
X124522500Y-122171900D01*
X123762500Y-119114829D02*
X123762500Y-119511900D01*
X124522500Y-119114829D02*
X124522500Y-119511900D01*
X123762500Y-116574829D02*
X123762500Y-117028971D01*
X124522500Y-116574829D02*
X124522500Y-117028971D01*
X125412500Y-119511900D02*
X125412500Y-122171900D01*
X126302500Y-122171900D02*
X126302500Y-128171900D01*
X126302500Y-128171900D02*
X127062500Y-128171900D01*
X127062500Y-128171900D02*
X127062500Y-122171900D01*
X126302500Y-119114829D02*
X126302500Y-119511900D01*
X127062500Y-119114829D02*
X127062500Y-119511900D01*
X126302500Y-116574829D02*
X126302500Y-117028971D01*
X127062500Y-116574829D02*
X127062500Y-117028971D01*
X127952500Y-119511900D02*
X127952500Y-122171900D01*
X128842500Y-122171900D02*
X128842500Y-128171900D01*
X128842500Y-128171900D02*
X129602500Y-128171900D01*
X129602500Y-128171900D02*
X129602500Y-122171900D01*
X128842500Y-119114829D02*
X128842500Y-119511900D01*
X129602500Y-119114829D02*
X129602500Y-119511900D01*
X128842500Y-116574829D02*
X128842500Y-117028971D01*
X129602500Y-116574829D02*
X129602500Y-117028971D01*
X130492500Y-119511900D02*
X130492500Y-122171900D01*
X131382500Y-122171900D02*
X131382500Y-128171900D01*
X131382500Y-128171900D02*
X132142500Y-128171900D01*
X132142500Y-128171900D02*
X132142500Y-122171900D01*
X131382500Y-119114829D02*
X131382500Y-119511900D01*
X132142500Y-119114829D02*
X132142500Y-119511900D01*
X131382500Y-116574829D02*
X131382500Y-117028971D01*
X132142500Y-116574829D02*
X132142500Y-117028971D01*
X133032500Y-119511900D02*
X133032500Y-122171900D01*
X133922500Y-122171900D02*
X133922500Y-128171900D01*
X133922500Y-128171900D02*
X134682500Y-128171900D01*
X134682500Y-128171900D02*
X134682500Y-122171900D01*
X133922500Y-119114829D02*
X133922500Y-119511900D01*
X134682500Y-119114829D02*
X134682500Y-119511900D01*
X133922500Y-116574829D02*
X133922500Y-117028971D01*
X134682500Y-116574829D02*
X134682500Y-117028971D01*
X135572500Y-119511900D02*
X135572500Y-122171900D01*
X136462500Y-122171900D02*
X136462500Y-128171900D01*
X136462500Y-128171900D02*
X137222500Y-128171900D01*
X137222500Y-128171900D02*
X137222500Y-122171900D01*
X136462500Y-119114829D02*
X136462500Y-119511900D01*
X137222500Y-119114829D02*
X137222500Y-119511900D01*
X136462500Y-116574829D02*
X136462500Y-117028971D01*
X137222500Y-116574829D02*
X137222500Y-117028971D01*
X138112500Y-119511900D02*
X138112500Y-122171900D01*
X139002500Y-122171900D02*
X139002500Y-128171900D01*
X139002500Y-128171900D02*
X139762500Y-128171900D01*
X139762500Y-128171900D02*
X139762500Y-122171900D01*
X139002500Y-119114829D02*
X139002500Y-119511900D01*
X139762500Y-119114829D02*
X139762500Y-119511900D01*
X139002500Y-116574829D02*
X139002500Y-117028971D01*
X139762500Y-116574829D02*
X139762500Y-117028971D01*
X140652500Y-119511900D02*
X140652500Y-122171900D01*
X141542500Y-122171900D02*
X141542500Y-128171900D01*
X141542500Y-128171900D02*
X142302500Y-128171900D01*
X142302500Y-128171900D02*
X142302500Y-122171900D01*
X141542500Y-119114829D02*
X141542500Y-119511900D01*
X142302500Y-119114829D02*
X142302500Y-119511900D01*
X141542500Y-116574829D02*
X141542500Y-117028971D01*
X142302500Y-116574829D02*
X142302500Y-117028971D01*
X143192500Y-119511900D02*
X143192500Y-122171900D01*
X144082500Y-122171900D02*
X144082500Y-128171900D01*
X144082500Y-128171900D02*
X144842500Y-128171900D01*
X144842500Y-128171900D02*
X144842500Y-122171900D01*
X144082500Y-119114829D02*
X144082500Y-119511900D01*
X144842500Y-119114829D02*
X144842500Y-119511900D01*
X144082500Y-116574829D02*
X144082500Y-117028971D01*
X144842500Y-116574829D02*
X144842500Y-117028971D01*
X145732500Y-119511900D02*
X145732500Y-122171900D01*
X146622500Y-122171900D02*
X146622500Y-128171900D01*
X146622500Y-128171900D02*
X147382500Y-128171900D01*
X147382500Y-128171900D02*
X147382500Y-122171900D01*
X146622500Y-119114829D02*
X146622500Y-119511900D01*
X147382500Y-119114829D02*
X147382500Y-119511900D01*
X146622500Y-116574829D02*
X146622500Y-117028971D01*
X147382500Y-116574829D02*
X147382500Y-117028971D01*
X148272500Y-119511900D02*
X148272500Y-122171900D01*
X149162500Y-122171900D02*
X149162500Y-128171900D01*
X149162500Y-128171900D02*
X149922500Y-128171900D01*
X149922500Y-128171900D02*
X149922500Y-122171900D01*
X149162500Y-119114829D02*
X149162500Y-119511900D01*
X149922500Y-119114829D02*
X149922500Y-119511900D01*
X149162500Y-116574829D02*
X149162500Y-117028971D01*
X149922500Y-116574829D02*
X149922500Y-117028971D01*
X150812500Y-119511900D02*
X150812500Y-122171900D01*
X151702500Y-122171900D02*
X151702500Y-128171900D01*
X151702500Y-128171900D02*
X152462500Y-128171900D01*
X152462500Y-128171900D02*
X152462500Y-122171900D01*
X151702500Y-119114829D02*
X151702500Y-119511900D01*
X152462500Y-119114829D02*
X152462500Y-119511900D01*
X151702500Y-116574829D02*
X151702500Y-117028971D01*
X152462500Y-116574829D02*
X152462500Y-117028971D01*
X153352500Y-119511900D02*
X153352500Y-122171900D01*
X154242500Y-122171900D02*
X154242500Y-128171900D01*
X154242500Y-128171900D02*
X155002500Y-128171900D01*
X155002500Y-128171900D02*
X155002500Y-122171900D01*
X154242500Y-119114829D02*
X154242500Y-119511900D01*
X155002500Y-119114829D02*
X155002500Y-119511900D01*
X154242500Y-116574829D02*
X154242500Y-117028971D01*
X155002500Y-116574829D02*
X155002500Y-117028971D01*
X155892500Y-119511900D02*
X155892500Y-122171900D01*
X156782500Y-122171900D02*
X156782500Y-128171900D01*
X156782500Y-128171900D02*
X157542500Y-128171900D01*
X157542500Y-128171900D02*
X157542500Y-122171900D01*
X156782500Y-119114829D02*
X156782500Y-119511900D01*
X157542500Y-119114829D02*
X157542500Y-119511900D01*
X156782500Y-116574829D02*
X156782500Y-117028971D01*
X157542500Y-116574829D02*
X157542500Y-117028971D01*
X158432500Y-119511900D02*
X158432500Y-122171900D01*
X159322500Y-122171900D02*
X159322500Y-128171900D01*
X159322500Y-128171900D02*
X160082500Y-128171900D01*
X160082500Y-128171900D02*
X160082500Y-122171900D01*
X159322500Y-119114829D02*
X159322500Y-119511900D01*
X160082500Y-119114829D02*
X160082500Y-119511900D01*
X159322500Y-116574829D02*
X159322500Y-117028971D01*
X160082500Y-116574829D02*
X160082500Y-117028971D01*
X160972500Y-119511900D02*
X160972500Y-122171900D01*
X161862500Y-122171900D02*
X161862500Y-128171900D01*
X161862500Y-128171900D02*
X162622500Y-128171900D01*
X162622500Y-128171900D02*
X162622500Y-122171900D01*
X161862500Y-119114829D02*
X161862500Y-119511900D01*
X162622500Y-119114829D02*
X162622500Y-119511900D01*
X161862500Y-116574829D02*
X161862500Y-117028971D01*
X162622500Y-116574829D02*
X162622500Y-117028971D01*
X163512500Y-119511900D02*
X163512500Y-122171900D01*
X164402500Y-122171900D02*
X164402500Y-128171900D01*
X164402500Y-128171900D02*
X165162500Y-128171900D01*
X165162500Y-128171900D02*
X165162500Y-122171900D01*
X164402500Y-119114829D02*
X164402500Y-119511900D01*
X165162500Y-119114829D02*
X165162500Y-119511900D01*
X164402500Y-116574829D02*
X164402500Y-117028971D01*
X165162500Y-116574829D02*
X165162500Y-117028971D01*
X166052500Y-119511900D02*
X166052500Y-122171900D01*
X166942500Y-122171900D02*
X166942500Y-128171900D01*
X166942500Y-128171900D02*
X167702500Y-128171900D01*
X167702500Y-128171900D02*
X167702500Y-122171900D01*
X166942500Y-119114829D02*
X166942500Y-119511900D01*
X167702500Y-119114829D02*
X167702500Y-119511900D01*
X166942500Y-116574829D02*
X166942500Y-117028971D01*
X167702500Y-116574829D02*
X167702500Y-117028971D01*
X103822500Y-114261900D02*
X102552500Y-114261900D01*
X102552500Y-114261900D02*
X102552500Y-115531900D01*
D11*
X101004880Y-120424995D02*
X101814404Y-120424995D01*
X101909642Y-120472614D01*
X101957261Y-120520233D01*
X102004880Y-120615471D01*
X102004880Y-120805947D01*
X101957261Y-120901185D01*
X101909642Y-120948804D01*
X101814404Y-120996423D01*
X101004880Y-120996423D01*
X101100119Y-121424995D02*
X101052500Y-121472614D01*
X101004880Y-121567852D01*
X101004880Y-121805947D01*
X101052500Y-121901185D01*
X101100119Y-121948804D01*
X101195357Y-121996423D01*
X101290595Y-121996423D01*
X101433452Y-121948804D01*
X102004880Y-121377376D01*
X102004880Y-121996423D01*
M02*
