M48
; DRILL file {KiCad 5.1.2-f72e74a~84~ubuntu19.04.1} date Tue 07 May 2019 04:21:13 PM CDT
; FORMAT={-:-/ absolute / inch / decimal}
; #@! TF.CreationDate,2019-05-07T16:21:13-05:00
; #@! TF.GenerationSoftware,Kicad,Pcbnew,5.1.2-f72e74a~84~ubuntu19.04.1
; #@! TF.FileFunction,Plated,1,2,PTH
FMAT,2
INCH
T1C0.0394
T2C0.0512
T3C0.0591
T4C0.0598
T5C0.0984
T6C0.1220
%
G90
G05
T1
X4.0875Y-4.5485
X4.0875Y-4.6485
X4.1875Y-4.5485
X4.1875Y-4.6485
X4.2875Y-4.5485
X4.2875Y-4.6485
X4.3875Y-4.5485
X4.3875Y-4.6485
X4.4875Y-4.5485
X4.4875Y-4.6485
X4.5875Y-4.5485
X4.5875Y-4.6485
X4.6875Y-4.5485
X4.6875Y-4.6485
X4.7875Y-4.5485
X4.7875Y-4.6485
X4.8875Y-4.5485
X4.8875Y-4.6485
X4.9875Y-4.5485
X4.9875Y-4.6485
X5.0875Y-4.5485
X5.0875Y-4.6485
X5.1875Y-4.5485
X5.1875Y-4.6485
X5.2875Y-4.5485
X5.2875Y-4.6485
X5.3875Y-4.5485
X5.3875Y-4.6485
X5.4875Y-4.5485
X5.4875Y-4.6485
X5.5875Y-4.5485
X5.5875Y-4.6485
X5.6875Y-4.5485
X5.6875Y-4.6485
X5.7875Y-4.5485
X5.7875Y-4.6485
X5.8875Y-4.5485
X5.8875Y-4.6485
X5.9875Y-4.5485
X5.9875Y-4.6485
X6.0875Y-4.5485
X6.0875Y-4.6485
X6.1875Y-4.5485
X6.1875Y-4.6485
X6.2875Y-4.5485
X6.2875Y-4.6485
X6.3875Y-4.5485
X6.3875Y-4.6485
X6.4875Y-4.5485
X6.4875Y-4.6485
X6.5875Y-4.5485
X6.5875Y-4.6485
T2
X4.461Y-3.401
X4.461Y-3.501
X4.461Y-3.897
X4.461Y-3.997
X4.561Y-3.401
X4.561Y-3.501
X4.561Y-3.897
X4.561Y-3.997
X4.661Y-3.403
X4.661Y-3.503
X4.661Y-3.899
X4.661Y-3.999
X4.761Y-3.403
X4.761Y-3.503
X4.761Y-3.899
X4.761Y-3.999
X4.861Y-3.403
X4.861Y-3.503
X4.861Y-3.899
X4.861Y-3.999
X4.961Y-3.404
X4.961Y-3.504
X4.961Y-3.9
X4.961Y-4.0
X5.061Y-3.404
X5.061Y-3.504
X5.061Y-3.9
X5.061Y-4.0
X5.161Y-3.404
X5.161Y-3.504
X5.161Y-3.9
X5.161Y-4.0
X5.261Y-3.404
X5.261Y-3.504
X5.261Y-3.9
X5.261Y-4.0
X5.361Y-3.404
X5.361Y-3.504
X5.361Y-3.9
X5.361Y-4.0
T3
X4.7365Y-4.1905
T4
X5.58Y-3.3875
X5.58Y-3.7005
X5.581Y-4.0135
X5.7775Y-3.388
X5.7775Y-3.701
X5.7785Y-4.014
X5.9755Y-3.388
X5.9755Y-3.701
X5.9765Y-4.014
X6.1715Y-3.388
X6.1715Y-3.701
X6.1725Y-4.014
T5
X3.943Y-3.0435
X6.7005Y-3.0445
T6
X4.29Y-3.251
X6.408Y-3.251
T0
M30
