M48
; DRILL file {KiCad 5.1.2-f72e74a~84~ubuntu19.04.1} date Sun 28 Apr 2019 09:03:09 AM CDT
; FORMAT={-:-/ absolute / inch / decimal}
; #@! TF.CreationDate,2019-04-28T09:03:09-05:00
; #@! TF.GenerationSoftware,Kicad,Pcbnew,5.1.2-f72e74a~84~ubuntu19.04.1
; #@! TF.FileFunction,Plated,1,2,PTH
FMAT,2
INCH
T1C0.0138
T2C0.0157
T3C0.0236
T4C0.0276
T5C0.0300
T6C0.0315
T7C0.0394
T8C0.0472
T9C0.0492
T10C0.0512
%
G90
G05
T1
X4.448Y-4.628
X4.711Y-4.432
X4.723Y-4.824
X4.723Y-4.9445
X4.7495Y-4.8365
X4.753Y-4.957
X4.9552Y-4.079
X4.9965Y-2.548
X5.085Y-2.6615
X5.4015Y-3.19
X5.5012Y-3.277
X5.5265Y-3.288
X5.659Y-3.4125
X5.9957Y-2.5846
X6.011Y-2.6075
X6.234Y-2.482
X6.391Y-2.4285
X6.3925Y-2.4885
X6.4175Y-2.7955
X6.4615Y-2.498
X6.4665Y-2.764
X6.488Y-2.1665
X6.503Y-2.381
X6.5105Y-2.463
X6.523Y-2.228
X6.599Y-2.485
X6.6355Y-2.4545
X6.6715Y-2.3605
X6.7105Y-2.639
X6.7394Y-2.3606
T2
X2.878Y-3.406
X2.91Y-4.29
X2.968Y-4.556
X2.97Y-4.486
X3.074Y-3.837
X3.092Y-3.353
X3.235Y-3.429
X3.235Y-3.497
X3.467Y-5.133
X3.52Y-3.592
X3.559Y-3.549
X3.7555Y-3.73
X3.842Y-4.176
X4.163Y-3.9855
X4.189Y-3.8865
X4.231Y-3.961
X4.4715Y-4.0145
X4.4825Y-4.5585
X4.515Y-4.2345
X4.5654Y-4.2502
X4.629Y-3.6745
X4.6615Y-3.7
X4.684Y-3.4205
X4.7075Y-3.4535
X4.7295Y-3.9655
X4.7525Y-3.926
X4.7805Y-4.596
X4.7915Y-3.382
X4.842Y-2.526
X4.8515Y-3.7525
X4.906Y-4.0167
X4.927Y-3.544
X4.9374Y-4.0195
X5.0275Y-3.8505
X5.076Y-3.926
X5.24Y-4.2455
X5.2405Y-3.9489
X5.4415Y-3.193
X5.4735Y-3.354
X5.6095Y-3.368
X5.707Y-3.488
X5.7281Y-3.8324
X5.762Y-3.86
X5.8208Y-3.6472
X5.8425Y-3.557
X5.903Y-3.976
X5.9135Y-3.5725
X5.915Y-3.943
X5.925Y-4.492
X5.996Y-4.593
X6.1915Y-3.527
X6.381Y-4.382
X6.4205Y-4.4505
X6.6685Y-3.476
X6.78Y-3.451
X6.8165Y-2.433
T3
X3.998Y-3.781
X4.066Y-4.426
X4.159Y-4.123
X4.262Y-4.02
X4.263Y-4.2265
X4.365Y-4.125
X4.5597Y-4.1748
X4.581Y-3.785
X4.707Y-3.6485
X4.8005Y-4.1475
X4.85Y-3.714
X4.857Y-3.8494
X4.865Y-2.6675
X5.1611Y-2.8214
X5.278Y-2.752
X5.337Y-4.917
X5.834Y-4.929
X6.1545Y-2.735
X6.227Y-4.367
X6.4875Y-3.9265
X6.667Y-4.368
T4
X6.3213Y-2.0383
X6.3523Y-1.9903
X6.3843Y-2.0383
X6.4163Y-1.9913
X6.4473Y-2.0383
T5
X2.8125Y-3.299
X2.8125Y-3.378
X2.8125Y-3.4565
X2.8125Y-3.5355
X2.8125Y-3.614
X2.8125Y-3.693
X2.8125Y-3.7715
X2.8125Y-3.8505
X2.8125Y-3.929
X2.8125Y-4.008
X2.8125Y-4.0865
X2.8125Y-4.1655
X2.97Y-3.26
X2.97Y-3.3385
X2.97Y-3.4175
X2.97Y-3.496
X2.97Y-3.575
X2.97Y-3.6535
X2.97Y-3.7325
X2.97Y-3.811
X2.97Y-3.89
X2.97Y-3.9685
X2.97Y-4.0475
X2.97Y-4.126
X2.97Y-4.205
T6
X3.075Y-5.039
X3.075Y-5.1768
T7
X4.194Y-2.53
X4.259Y-2.619
X4.855Y-4.524
X5.005Y-4.749
X5.087Y-5.081
X5.112Y-4.298
X5.363Y-4.526
X5.5935Y-3.0849
X5.6605Y-3.583
X5.831Y-4.187
X5.912Y-2.902
X3.617Y-3.583
X3.617Y-3.683
X3.617Y-3.783
X3.617Y-3.883
X3.617Y-3.983
X5.77Y-3.691
X5.87Y-3.691
X5.97Y-3.691
X6.07Y-3.691
X3.243Y-5.424
X3.243Y-5.524
X3.343Y-5.424
X3.343Y-5.524
X3.443Y-5.424
X3.443Y-5.524
X3.543Y-5.424
X3.543Y-5.524
X3.643Y-5.424
X3.643Y-5.524
X3.743Y-5.424
X3.743Y-5.524
X3.843Y-5.424
X3.843Y-5.524
X3.943Y-5.424
X3.943Y-5.524
X4.043Y-5.424
X4.043Y-5.524
X4.143Y-5.424
X4.143Y-5.524
X4.243Y-5.424
X4.243Y-5.524
X4.343Y-5.424
X4.343Y-5.524
X4.443Y-5.424
X4.443Y-5.524
X4.543Y-5.424
X4.543Y-5.524
X4.643Y-5.424
X4.643Y-5.524
X4.743Y-5.424
X4.743Y-5.524
X4.843Y-5.424
X4.843Y-5.524
X4.943Y-5.424
X4.943Y-5.524
X5.043Y-5.424
X5.043Y-5.524
X5.143Y-5.424
X5.143Y-5.524
X5.243Y-5.424
X5.243Y-5.524
X5.343Y-5.424
X5.343Y-5.524
X5.443Y-5.424
X5.443Y-5.524
X5.543Y-5.424
X5.543Y-5.524
X5.643Y-5.424
X5.643Y-5.524
X5.743Y-5.424
X5.743Y-5.524
X5.08Y-3.59
X5.08Y-3.69
X5.18Y-3.59
X5.18Y-3.69
X5.28Y-3.59
X5.28Y-3.69
X5.38Y-3.59
X5.38Y-3.69
X5.48Y-3.59
X5.48Y-3.69
T8
X3.468Y-4.696
X3.468Y-4.8929
X3.874Y-1.908
X3.246Y-1.91
X4.189Y-1.908
X3.559Y-1.91
T9
X4.558Y-3.205
X4.981Y-3.1519
X4.982Y-3.388
X5.245Y-3.152
X5.8447Y-3.1375
X5.846Y-3.3705
X6.111Y-3.14
T4
G00X6.2403Y-1.8156
M15
G01X6.2403Y-1.8629
M16
G05
G00X6.5273Y-1.8156
M15
G01X6.5273Y-1.8629
M16
G05
T6
G00X3.801Y-2.0208
M15
G01X3.801Y-1.9932
M16
G05
G00X3.8602Y-1.813
M15
G01X3.8878Y-1.813
M16
G05
G00X3.8878Y-2.085
M15
G01X3.8602Y-2.085
M16
G05
G00X3.947Y-2.0208
M15
G01X3.947Y-1.9932
M16
G05
G00X3.173Y-2.0228
M15
G01X3.173Y-1.9952
M16
G05
G00X3.2322Y-1.815
M15
G01X3.2598Y-1.815
M16
G05
G00X3.2598Y-2.087
M15
G01X3.2322Y-2.087
M16
G05
G00X3.319Y-2.0228
M15
G01X3.319Y-1.9952
M16
G05
G00X4.116Y-2.0208
M15
G01X4.116Y-1.9932
M16
G05
G00X4.1752Y-1.813
M15
G01X4.2028Y-1.813
M16
G05
G00X4.2028Y-2.085
M15
G01X4.1752Y-2.085
M16
G05
G00X4.262Y-2.0208
M15
G01X4.262Y-1.9932
M16
G05
G00X3.486Y-2.0228
M15
G01X3.486Y-1.9952
M16
G05
G00X3.5452Y-1.815
M15
G01X3.5728Y-1.815
M16
G05
G00X3.5728Y-2.087
M15
G01X3.5452Y-2.087
M16
G05
G00X3.632Y-2.0228
M15
G01X3.632Y-1.9952
M16
G05
T7
G00X5.202Y-2.1505
M15
G01X5.202Y-2.2293
M16
G05
G00X5.4264Y-2.0718
M15
G01X5.3476Y-2.0718
M16
G05
G00X5.4264Y-2.308
M15
G01X5.3476Y-2.308
M16
G05
G00X6.3196Y-5.145
M15
G01X6.3984Y-5.145
M16
G05
G00X6.3196Y-5.3812
M15
G01X6.3984Y-5.3812
M16
G05
G00X6.544Y-5.3025
M15
G01X6.544Y-5.2237
M16
G05
G00X5.714Y-2.1507
M15
G01X5.714Y-2.2295
M16
G05
G00X5.9384Y-2.072
M15
G01X5.8596Y-2.072
M16
G05
G00X5.9384Y-2.3082
M15
G01X5.8596Y-2.3082
M16
G05
T10
G00X4.602Y-2.1746
M15
G01X4.602Y-2.1274
M16
G05
G00X4.7736Y-2.005
M15
G01X4.7264Y-2.005
M16
G05
G00X4.898Y-2.1274
M15
G01X4.898Y-2.1746
M16
G05
T0
M30
