M48
;DRILL file {KiCad 5.0.0-rc2-unknown-2cb65f9~65~ubuntu18.04.1} date Tue Jun  5 18:39:48 2018
;FORMAT={-:-/ absolute / inch / decimal}
FMAT,2
INCH,TZ
T1C0.0157
T2C0.0236
T3C0.0276
T4C0.0315
T5C0.0394
T6C0.0492
T7C0.0748
T8C0.0787
T9C0.1181
%
G90
G05
M72
T1
X3.185Y-3.7402
X3.3661Y-4.878
X3.3898Y-3.3622
X3.4213Y-3.4803
X3.4606Y-3.315
X3.622Y-3.5354
X3.7126Y-3.5354
X3.8228Y-4.7835
X3.8937Y-4.1063
X3.9055Y-4.7008
X3.9222Y-2.3012
X4.0246Y-2.2992
X4.0512Y-4.1063
X4.0591Y-4.3622
X4.0906Y-3.1457
X4.1024Y-4.5945
X4.1378Y-3.4252
X4.1722Y-2.0886
X4.1772Y-3.1457
X4.185Y-3.7165
X4.2205Y-3.4252
X4.315Y-3.7165
X4.315Y-4.1063
X4.3465Y-3.0157
X4.437Y-2.8465
X4.4567Y-4.1063
X4.5276Y-4.3898
X4.5472Y-3.4409
X4.5669Y-3.8976
X4.5709Y-3.5827
X4.7037Y-3.5462
X4.7047Y-4.1063
X4.7402Y-4.0472
X4.7677Y-3.7165
X4.7677Y-4.1063
X4.7717Y-3.8701
X4.8071Y-4.437
X4.8071Y-4.5669
X4.8898Y-3.4961
X4.9173Y-5.1575
X4.9314Y-3.5187
X4.9449Y-3.7756
X4.9606Y-3.5394
X4.9646Y-3.2953
X4.9961Y-3.311
X5.0394Y-5.2323
X5.0945Y-3.1142
X5.1024Y-3.5866
X5.1063Y-3.7165
X5.122Y-3.8701
X5.185Y-5.19
X5.2008Y-3.4213
X5.2283Y-5.2756
X5.2323Y-3.9291
X5.2402Y-3.3465
X5.2402Y-4.185
X5.2402Y-4.4921
X5.2402Y-4.5591
X5.2402Y-4.7638
X5.2402Y-5.0157
X5.2598Y-2.9961
X5.2638Y-3.0394
X5.3287Y-2.9695
X5.3425Y-2.2559
X5.415Y-5.275
X5.4213Y-2.3228
X5.4409Y-3.2283
X5.4409Y-3.4055
X5.4449Y-2.4068
X5.4882Y-2.3898
X5.4921Y-3.2874
X5.4921Y-3.4291
X5.4961Y-2.6535
X5.5079Y-2.4488
X5.5354Y-3.2008
X5.5512Y-2.3307
X5.5866Y-2.252
X5.622Y-2.0984
X5.6654Y-2.7441
X5.6693Y-3.7677
X5.6772Y-2.2992
X5.6811Y-2.122
X5.7126Y-2.5315
X5.7126Y-4.1299
X5.7904Y-3.3465
X5.8071Y-4.1732
X5.8268Y-3.7835
X5.8622Y-4.1693
X5.9016Y-3.4764
X5.9213Y-3.9252
X5.9646Y-4.0669
X6.0669Y-1.9961
X6.0984Y-2.2756
X6.1811Y-3.8307
X6.1811Y-3.999
X6.2161Y-2.0709
X6.2598Y-5.3228
X6.2677Y-2.1142
X6.2835Y-2.3189
X6.3031Y-2.7165
X6.3661Y-2.9173
X6.4016Y-2.7205
X6.437Y-4.3701
X6.437Y-4.4685
X6.437Y-4.5669
X6.4409Y-4.2677
X6.4488Y-2.8346
X6.4961Y-5.4449
X6.5354Y-2.748
X6.5354Y-5.1496
X6.5354Y-5.1969
X6.563Y-4.1339
X6.5866Y-4.689
X6.5945Y-3.8583
X6.5952Y-4.0544
X6.5984Y-2.685
X6.6142Y-5.5709
X6.6378Y-4.0236
X6.7126Y-4.7441
X6.752Y-3.9764
X6.7832Y-2.3737
X6.811Y-2.2244
X6.815Y-4.2087
X6.8425Y-4.1772
X6.9213Y-3.4567
X6.937Y-2.1929
X6.9488Y-5.6063
X6.9882Y-4.252
X6.9882Y-4.3504
X6.9882Y-4.4488
X6.9882Y-4.5472
X7.0157Y-2.4961
X7.0276Y-2.1299
X7.0276Y-4.685
X7.0433Y-4.9291
X7.2283Y-3.374
X7.2638Y-4.0551
X7.3228Y-2.3228
X7.3228Y-4.1535
X7.3386Y-4.4921
X7.3583Y-4.4606
X7.4606Y-2.9961
X7.4843Y-4.4843
X7.4843Y-4.5197
X7.5787Y-4.4488
X7.6614Y-5.0709
X7.6654Y-4.4488
X7.6693Y-4.9882
X7.687Y-4.3622
X7.6929Y-5.0236
X7.6969Y-4.6535
X7.6969Y-4.7402
X7.8071Y-4.6575
X7.8504Y-4.377
X7.8543Y-4.3425
X7.8622Y-4.2992
X7.8701Y-3.9252
X7.8772Y-4.662
X7.8898Y-4.4183
X7.9488Y-4.1614
X7.9606Y-4.6063
X7.9764Y-5.2283
X8.0315Y-4.563
X8.0394Y-4.9764
X8.0551Y-4.3307
X8.0787Y-4.5709
X8.0906Y-2.8583
X8.1063Y-4.8189
X8.1094Y-1.9563
X8.1299Y-4.4331
X8.1575Y-3.
X8.1772Y-5.4409
X8.189Y-5.1181
X8.189Y-5.6299
X8.2677Y-5.0394
X8.2913Y-4.7283
X8.311Y-4.9488
X8.4567Y-4.9449
X8.4764Y-5.4488
T2
X3.2047Y-5.0394
X3.2717Y-5.2244
X3.3327Y-2.3927
X3.5079Y-2.4744
X3.9606Y-3.3071
X4.1339Y-3.3622
X5.1299Y-4.1496
X5.1614Y-2.1969
X5.6457Y-4.252
X5.7167Y-5.4617
X6.315Y-2.2283
X6.5804Y-5.3694
X6.6772Y-2.2283
X7.1181Y-3.378
X7.1614Y-2.3189
X7.4921Y-4.8622
X7.5Y-4.7756
X7.5915Y-4.1713
X7.626Y-4.7008
X7.7805Y-4.0768
X8.0866Y-1.6811
X8.1024Y-4.1142
X8.2087Y-4.1102
X8.374Y-5.5669
X8.5433Y-5.563
T3
X6.0028Y-3.9606
X6.2126Y-3.9593
T4
X4.5276Y-5.1772
X4.5276Y-5.315
X6.695Y-3.0922
X6.695Y-3.23
X2.8472Y-2.49
X2.985Y-2.49
X2.7677Y-4.9272
X2.7677Y-5.065
X6.5748Y-1.9094
X6.7126Y-1.9094
T5
X3.4449Y-2.6024
X4.3937Y-2.5472
X4.7953Y-3.3228
X4.8898Y-3.3071
X4.9055Y-5.2165
X5.0472Y-3.3346
X5.0591Y-2.4094
X5.1181Y-3.4409
X5.1339Y-2.4252
X5.3556Y-3.732
X5.5551Y-1.9291
X5.8386Y-3.5079
X6.878Y-2.3425
X7.063Y-3.5866
X6.4213Y-3.9528
X6.5213Y-3.9528
X7.1457Y-5.2764
X7.1457Y-5.3764
X7.1457Y-5.4764
X7.1457Y-5.5764
X7.6772Y-2.9331
X7.815Y-2.9331
X7.6181Y-1.835
X7.815Y-1.835
X6.063Y-5.2937
X6.063Y-5.3937
X3.8606Y-5.6165
X3.9606Y-5.6165
X4.0606Y-5.6165
X3.6299Y-4.563
X3.7677Y-4.563
X3.7806Y-2.0793
X3.9774Y-2.0793
X4.8906Y-5.3543
X4.9406Y-5.5543
X4.9906Y-5.3543
X5.0406Y-5.5543
X5.0906Y-5.3543
X5.1406Y-5.5543
X5.1906Y-5.3543
X5.2406Y-5.5543
X5.2906Y-5.3543
X5.3406Y-5.5543
X5.3906Y-5.3543
X5.4406Y-5.5543
X5.4906Y-5.3543
X5.5406Y-5.5543
X5.5906Y-5.3543
X6.9079Y-3.9567
X7.0079Y-3.9567
X8.6929Y-4.5551
X8.6929Y-4.6551
X5.1181Y-1.9591
X5.1181Y-2.0591
X5.2181Y-1.9591
X5.2181Y-2.0591
X5.3181Y-1.9591
X5.3181Y-2.0591
X5.4181Y-1.9591
X5.4181Y-2.0591
X5.0425Y-2.6142
X5.0425Y-2.7142
X5.1425Y-2.6142
X5.1425Y-2.7142
X5.2425Y-2.6142
X5.2425Y-2.7142
X5.3425Y-2.6142
X5.3425Y-2.7142
X5.4425Y-2.6142
X5.4425Y-2.7142
X5.5425Y-2.6142
X5.5425Y-2.7142
T6
X3.1997Y-4.6473
X3.3306Y-2.1494
X3.4291Y-3.8937
X7.1081Y-2.945
X7.145Y-1.9
T7
X2.687Y-3.2913
X2.687Y-3.5157
X2.9114Y-3.2913
X2.9114Y-3.5157
X5.122Y-4.7323
X5.122Y-4.9567
X5.3465Y-4.7323
X5.3465Y-4.9567
X8.4134Y-3.1102
X8.4134Y-3.3346
X8.6378Y-3.1102
X8.6378Y-3.3346
T8
X2.687Y-3.7402
X2.687Y-3.9646
X2.9114Y-3.7402
X2.9114Y-3.9646
X5.5709Y-4.7323
X5.5709Y-4.9567
X5.7953Y-4.7323
X5.7953Y-4.9567
X8.4134Y-2.6614
X8.4134Y-2.8858
X8.6378Y-2.6614
X8.6378Y-2.8858
T9
X2.9114Y-3.0866
X2.9114Y-4.1693
X4.9173Y-4.7323
X6.Y-4.7323
X8.4134Y-2.4567
X8.4134Y-3.5394
T0
M30
