G04 #@! TF.GenerationSoftware,KiCad,Pcbnew,5.0.0-rc2-unknown-2cb65f9~65~ubuntu18.04.1*
G04 #@! TF.CreationDate,2018-06-05T18:41:42-05:00*
G04 #@! TF.ProjectId,open-dash-daughterboard,6F70656E2D646173682D646175676874,rev?*
G04 #@! TF.SameCoordinates,Original*
G04 #@! TF.FileFunction,Soldermask,Bot*
G04 #@! TF.FilePolarity,Negative*
%FSLAX46Y46*%
G04 Gerber Fmt 4.6, Leading zero omitted, Abs format (unit mm)*
G04 Created by KiCad (PCBNEW 5.0.0-rc2-unknown-2cb65f9~65~ubuntu18.04.1) date Tue Jun  5 18:41:42 2018*
%MOMM*%
%LPD*%
G01*
G04 APERTURE LIST*
%ADD10C,5.400000*%
%ADD11R,1.700000X1.700000*%
%ADD12O,2.100000X2.100000*%
%ADD13R,1.600000X1.600000*%
%ADD14C,2.000000*%
%ADD15C,2.400000*%
%ADD16R,2.000000X2.000000*%
%ADD17C,3.400000*%
%ADD18C,3.900000*%
%ADD19R,1.800000X1.800000*%
%ADD20O,2.200000X2.200000*%
G04 APERTURE END LIST*
D10*
G04 #@! TO.C,U15*
X68796000Y-140047000D03*
X221996000Y-140047000D03*
X221996000Y-45847000D03*
X68796000Y-45847000D03*
G04 #@! TD*
D11*
G04 #@! TO.C,AMF_Antenna1*
X220800000Y-118240000D03*
D12*
X220800000Y-115700000D03*
G04 #@! TD*
D13*
G04 #@! TO.C,C1*
X70300000Y-125150000D03*
D14*
X70300000Y-128650000D03*
G04 #@! TD*
G04 #@! TO.C,C2*
X170500000Y-48500000D03*
D13*
X167000000Y-48500000D03*
G04 #@! TD*
D14*
G04 #@! TO.C,C3*
X170053000Y-78542000D03*
D13*
X170053000Y-82042000D03*
G04 #@! TD*
D15*
G04 #@! TO.C,C5*
X96027000Y-52815000D03*
D16*
X101027000Y-52815000D03*
G04 #@! TD*
G04 #@! TO.C,C6*
X198501000Y-46609000D03*
D15*
X193501000Y-46609000D03*
G04 #@! TD*
D16*
G04 #@! TO.C,C7*
X198500000Y-74500000D03*
D15*
X195000000Y-74500000D03*
G04 #@! TD*
G04 #@! TO.C,C8*
X92200000Y-115900000D03*
D16*
X95700000Y-115900000D03*
G04 #@! TD*
D17*
G04 #@! TO.C,U7*
X68250000Y-89300000D03*
X68250000Y-100700000D03*
X68250000Y-83600000D03*
X68250000Y-95000000D03*
X73950000Y-83600000D03*
X73950000Y-89300000D03*
X73950000Y-95000000D03*
X73950000Y-100700000D03*
D18*
X73950000Y-78400000D03*
X73950000Y-105900000D03*
G04 #@! TD*
D19*
G04 #@! TO.C,U11*
X142000000Y-136000000D03*
D20*
X140730000Y-141080000D03*
X139460000Y-136000000D03*
X138190000Y-141080000D03*
X136920000Y-136000000D03*
X135650000Y-141080000D03*
X134380000Y-136000000D03*
X133110000Y-141080000D03*
X131840000Y-136000000D03*
X130570000Y-141080000D03*
X129300000Y-136000000D03*
X128030000Y-141080000D03*
X126760000Y-136000000D03*
X125490000Y-141080000D03*
X124220000Y-136000000D03*
G04 #@! TD*
D17*
G04 #@! TO.C,U16*
X219400000Y-79000000D03*
X219400000Y-67600000D03*
X219400000Y-84700000D03*
X219400000Y-73300000D03*
X213700000Y-84700000D03*
X213700000Y-79000000D03*
X213700000Y-73300000D03*
X213700000Y-67600000D03*
D18*
X213700000Y-89900000D03*
X213700000Y-62400000D03*
G04 #@! TD*
D13*
G04 #@! TO.C,C22*
X115000000Y-135000000D03*
D14*
X115000000Y-131500000D03*
G04 #@! TD*
D11*
G04 #@! TO.C,J4*
X128080000Y-68940000D03*
D12*
X128080000Y-66400000D03*
X130620000Y-68940000D03*
X130620000Y-66400000D03*
X133160000Y-68940000D03*
X133160000Y-66400000D03*
X135700000Y-68940000D03*
X135700000Y-66400000D03*
X138240000Y-68940000D03*
X138240000Y-66400000D03*
X140780000Y-68940000D03*
X140780000Y-66400000D03*
G04 #@! TD*
G04 #@! TO.C,P4*
X137620000Y-49760000D03*
X137620000Y-52300000D03*
X135080000Y-49760000D03*
X135080000Y-52300000D03*
X132540000Y-49760000D03*
X132540000Y-52300000D03*
X130000000Y-49760000D03*
D11*
X130000000Y-52300000D03*
G04 #@! TD*
D13*
G04 #@! TO.C,C4*
X75819000Y-63246000D03*
D14*
X72319000Y-63246000D03*
G04 #@! TD*
D17*
G04 #@! TO.C,U13*
X169900000Y-112800000D03*
G04 #@! TD*
D11*
G04 #@! TO.C,GPS_ANT1*
X178000000Y-100500000D03*
D12*
X175460000Y-100500000D03*
G04 #@! TD*
D11*
G04 #@! TO.C,RX_TX1*
X165640000Y-100400000D03*
D12*
X163100000Y-100400000D03*
G04 #@! TD*
D11*
G04 #@! TO.C,AUDIO_IN1*
X98060000Y-142660000D03*
D12*
X100600000Y-142660000D03*
X103140000Y-142660000D03*
G04 #@! TD*
D11*
G04 #@! TO.C,P1*
X181500000Y-134020000D03*
D12*
X181500000Y-136560000D03*
X181500000Y-139100000D03*
X181500000Y-141640000D03*
G04 #@! TD*
D11*
G04 #@! TO.C,P2*
X154000000Y-134460000D03*
D12*
X154000000Y-137000000D03*
G04 #@! TD*
D17*
G04 #@! TO.C,U14*
X135800000Y-125900000D03*
X147200000Y-125900000D03*
X130100000Y-125900000D03*
X141500000Y-125900000D03*
X130100000Y-120200000D03*
X135800000Y-120200000D03*
X141500000Y-120200000D03*
X147200000Y-120200000D03*
D18*
X124900000Y-120200000D03*
X152400000Y-120200000D03*
G04 #@! TD*
M02*
