G04 #@! TF.GenerationSoftware,KiCad,Pcbnew,5.1.2-f72e74a~84~ubuntu19.04.1*
G04 #@! TF.CreationDate,2019-05-11T10:55:16-05:00*
G04 #@! TF.ProjectId,open-dash-daughterboard,6f70656e-2d64-4617-9368-2d6461756768,rev?*
G04 #@! TF.SameCoordinates,Original*
G04 #@! TF.FileFunction,Soldermask,Bot*
G04 #@! TF.FilePolarity,Negative*
%FSLAX46Y46*%
G04 Gerber Fmt 4.6, Leading zero omitted, Abs format (unit mm)*
G04 Created by KiCad (PCBNEW 5.1.2-f72e74a~84~ubuntu19.04.1) date 2019-05-11 10:55:16*
%MOMM*%
%LPD*%
G04 APERTURE LIST*
%ADD10O,2.100000X2.100000*%
%ADD11R,2.100000X2.100000*%
%ADD12C,2.000000*%
%ADD13R,2.000000X2.000000*%
%ADD14C,5.400000*%
%ADD15C,0.100000*%
%ADD16C,3.400000*%
%ADD17C,1.700000*%
%ADD18O,2.900000X2.200000*%
%ADD19O,2.200000X2.900000*%
%ADD20C,1.924000*%
%ADD21O,1.400000X1.700000*%
%ADD22O,2.100000X3.300000*%
%ADD23O,2.900000X4.100000*%
%ADD24O,4.100000X2.900000*%
%ADD25R,2.800000X2.800000*%
%ADD26C,2.800000*%
G04 APERTURE END LIST*
D10*
X91155520Y-66537840D03*
D11*
X93695520Y-66537840D03*
D12*
X74244200Y-123667400D03*
D13*
X74244200Y-120167400D03*
D14*
X72034400Y-48793400D03*
X174459900Y-48780700D03*
X174409100Y-140792200D03*
X72021700Y-140804900D03*
D15*
G36*
X164141715Y-129190293D02*
G01*
X164224227Y-129202533D01*
X164305142Y-129222801D01*
X164383681Y-129250902D01*
X164459087Y-129286567D01*
X164530635Y-129329451D01*
X164597634Y-129379141D01*
X164659441Y-129435159D01*
X164715459Y-129496966D01*
X164765149Y-129563965D01*
X164808033Y-129635513D01*
X164843698Y-129710919D01*
X164871799Y-129789458D01*
X164892067Y-129870373D01*
X164904307Y-129952885D01*
X164908400Y-130036200D01*
X164908400Y-131736200D01*
X164904307Y-131819515D01*
X164892067Y-131902027D01*
X164871799Y-131982942D01*
X164843698Y-132061481D01*
X164808033Y-132136887D01*
X164765149Y-132208435D01*
X164715459Y-132275434D01*
X164659441Y-132337241D01*
X164597634Y-132393259D01*
X164530635Y-132442949D01*
X164459087Y-132485833D01*
X164383681Y-132521498D01*
X164305142Y-132549599D01*
X164224227Y-132569867D01*
X164141715Y-132582107D01*
X164058400Y-132586200D01*
X160858400Y-132586200D01*
X160775085Y-132582107D01*
X160692573Y-132569867D01*
X160611658Y-132549599D01*
X160533119Y-132521498D01*
X160457713Y-132485833D01*
X160386165Y-132442949D01*
X160319166Y-132393259D01*
X160257359Y-132337241D01*
X160201341Y-132275434D01*
X160151651Y-132208435D01*
X160108767Y-132136887D01*
X160073102Y-132061481D01*
X160045001Y-131982942D01*
X160024733Y-131902027D01*
X160012493Y-131819515D01*
X160008400Y-131736200D01*
X160008400Y-130036200D01*
X160012493Y-129952885D01*
X160024733Y-129870373D01*
X160045001Y-129789458D01*
X160073102Y-129710919D01*
X160108767Y-129635513D01*
X160151651Y-129563965D01*
X160201341Y-129496966D01*
X160257359Y-129435159D01*
X160319166Y-129379141D01*
X160386165Y-129329451D01*
X160457713Y-129286567D01*
X160533119Y-129250902D01*
X160611658Y-129222801D01*
X160692573Y-129202533D01*
X160775085Y-129190293D01*
X160858400Y-129186200D01*
X164058400Y-129186200D01*
X164141715Y-129190293D01*
X164141715Y-129190293D01*
G37*
D16*
X162458400Y-130886200D03*
D15*
G36*
X164141715Y-135190293D02*
G01*
X164224227Y-135202533D01*
X164305142Y-135222801D01*
X164383681Y-135250902D01*
X164459087Y-135286567D01*
X164530635Y-135329451D01*
X164597634Y-135379141D01*
X164659441Y-135435159D01*
X164715459Y-135496966D01*
X164765149Y-135563965D01*
X164808033Y-135635513D01*
X164843698Y-135710919D01*
X164871799Y-135789458D01*
X164892067Y-135870373D01*
X164904307Y-135952885D01*
X164908400Y-136036200D01*
X164908400Y-137736200D01*
X164904307Y-137819515D01*
X164892067Y-137902027D01*
X164871799Y-137982942D01*
X164843698Y-138061481D01*
X164808033Y-138136887D01*
X164765149Y-138208435D01*
X164715459Y-138275434D01*
X164659441Y-138337241D01*
X164597634Y-138393259D01*
X164530635Y-138442949D01*
X164459087Y-138485833D01*
X164383681Y-138521498D01*
X164305142Y-138549599D01*
X164224227Y-138569867D01*
X164141715Y-138582107D01*
X164058400Y-138586200D01*
X160858400Y-138586200D01*
X160775085Y-138582107D01*
X160692573Y-138569867D01*
X160611658Y-138549599D01*
X160533119Y-138521498D01*
X160457713Y-138485833D01*
X160386165Y-138442949D01*
X160319166Y-138393259D01*
X160257359Y-138337241D01*
X160201341Y-138275434D01*
X160151651Y-138208435D01*
X160108767Y-138136887D01*
X160073102Y-138061481D01*
X160045001Y-137982942D01*
X160024733Y-137902027D01*
X160012493Y-137819515D01*
X160008400Y-137736200D01*
X160008400Y-136036200D01*
X160012493Y-135952885D01*
X160024733Y-135870373D01*
X160045001Y-135789458D01*
X160073102Y-135710919D01*
X160108767Y-135635513D01*
X160151651Y-135563965D01*
X160201341Y-135496966D01*
X160257359Y-135435159D01*
X160319166Y-135379141D01*
X160386165Y-135329451D01*
X160457713Y-135286567D01*
X160533119Y-135250902D01*
X160611658Y-135222801D01*
X160692573Y-135202533D01*
X160775085Y-135190293D01*
X160858400Y-135186200D01*
X164058400Y-135186200D01*
X164141715Y-135190293D01*
X164141715Y-135190293D01*
G37*
D16*
X162458400Y-136886200D03*
D15*
G36*
X168091715Y-131440293D02*
G01*
X168174227Y-131452533D01*
X168255142Y-131472801D01*
X168333681Y-131500902D01*
X168409087Y-131536567D01*
X168480635Y-131579451D01*
X168547634Y-131629141D01*
X168609441Y-131685159D01*
X168665459Y-131746966D01*
X168715149Y-131813965D01*
X168758033Y-131885513D01*
X168793698Y-131960919D01*
X168821799Y-132039458D01*
X168842067Y-132120373D01*
X168854307Y-132202885D01*
X168858400Y-132286200D01*
X168858400Y-135486200D01*
X168854307Y-135569515D01*
X168842067Y-135652027D01*
X168821799Y-135732942D01*
X168793698Y-135811481D01*
X168758033Y-135886887D01*
X168715149Y-135958435D01*
X168665459Y-136025434D01*
X168609441Y-136087241D01*
X168547634Y-136143259D01*
X168480635Y-136192949D01*
X168409087Y-136235833D01*
X168333681Y-136271498D01*
X168255142Y-136299599D01*
X168174227Y-136319867D01*
X168091715Y-136332107D01*
X168008400Y-136336200D01*
X166308400Y-136336200D01*
X166225085Y-136332107D01*
X166142573Y-136319867D01*
X166061658Y-136299599D01*
X165983119Y-136271498D01*
X165907713Y-136235833D01*
X165836165Y-136192949D01*
X165769166Y-136143259D01*
X165707359Y-136087241D01*
X165651341Y-136025434D01*
X165601651Y-135958435D01*
X165558767Y-135886887D01*
X165523102Y-135811481D01*
X165495001Y-135732942D01*
X165474733Y-135652027D01*
X165462493Y-135569515D01*
X165458400Y-135486200D01*
X165458400Y-132286200D01*
X165462493Y-132202885D01*
X165474733Y-132120373D01*
X165495001Y-132039458D01*
X165523102Y-131960919D01*
X165558767Y-131885513D01*
X165601651Y-131813965D01*
X165651341Y-131746966D01*
X165707359Y-131685159D01*
X165769166Y-131629141D01*
X165836165Y-131579451D01*
X165907713Y-131536567D01*
X165983119Y-131500902D01*
X166061658Y-131472801D01*
X166142573Y-131452533D01*
X166225085Y-131440293D01*
X166308400Y-131436200D01*
X168008400Y-131436200D01*
X168091715Y-131440293D01*
X168091715Y-131440293D01*
G37*
D16*
X167158400Y-133886200D03*
D17*
X87909400Y-46951900D03*
X77901800Y-46951900D03*
X77901800Y-49961800D03*
X87909400Y-49961800D03*
D18*
X82905600Y-49961800D03*
D17*
X82905600Y-54965600D03*
D19*
X87909400Y-54965600D03*
X77901800Y-54965600D03*
X80403700Y-54965600D03*
X85407500Y-54965600D03*
D17*
X101371400Y-47002700D03*
X91363800Y-47002700D03*
X91363800Y-50012600D03*
X101371400Y-50012600D03*
D18*
X96367600Y-50012600D03*
D17*
X96367600Y-55016400D03*
D19*
X101371400Y-55016400D03*
X91363800Y-55016400D03*
X93865700Y-55016400D03*
X98869500Y-55016400D03*
D17*
X114808000Y-47053500D03*
X104800400Y-47053500D03*
X104800400Y-50063400D03*
X114808000Y-50063400D03*
D18*
X109804200Y-50063400D03*
D17*
X109804200Y-55067200D03*
D19*
X114808000Y-55067200D03*
X104800400Y-55067200D03*
X107302300Y-55067200D03*
X112306100Y-55067200D03*
D15*
G36*
X150553715Y-56803093D02*
G01*
X150636227Y-56815333D01*
X150717142Y-56835601D01*
X150795681Y-56863702D01*
X150871087Y-56899367D01*
X150942635Y-56942251D01*
X151009634Y-56991941D01*
X151071441Y-57047959D01*
X151127459Y-57109766D01*
X151177149Y-57176765D01*
X151220033Y-57248313D01*
X151255698Y-57323719D01*
X151283799Y-57402258D01*
X151304067Y-57483173D01*
X151316307Y-57565685D01*
X151320400Y-57649000D01*
X151320400Y-59349000D01*
X151316307Y-59432315D01*
X151304067Y-59514827D01*
X151283799Y-59595742D01*
X151255698Y-59674281D01*
X151220033Y-59749687D01*
X151177149Y-59821235D01*
X151127459Y-59888234D01*
X151071441Y-59950041D01*
X151009634Y-60006059D01*
X150942635Y-60055749D01*
X150871087Y-60098633D01*
X150795681Y-60134298D01*
X150717142Y-60162399D01*
X150636227Y-60182667D01*
X150553715Y-60194907D01*
X150470400Y-60199000D01*
X147270400Y-60199000D01*
X147187085Y-60194907D01*
X147104573Y-60182667D01*
X147023658Y-60162399D01*
X146945119Y-60134298D01*
X146869713Y-60098633D01*
X146798165Y-60055749D01*
X146731166Y-60006059D01*
X146669359Y-59950041D01*
X146613341Y-59888234D01*
X146563651Y-59821235D01*
X146520767Y-59749687D01*
X146485102Y-59674281D01*
X146457001Y-59595742D01*
X146436733Y-59514827D01*
X146424493Y-59432315D01*
X146420400Y-59349000D01*
X146420400Y-57649000D01*
X146424493Y-57565685D01*
X146436733Y-57483173D01*
X146457001Y-57402258D01*
X146485102Y-57323719D01*
X146520767Y-57248313D01*
X146563651Y-57176765D01*
X146613341Y-57109766D01*
X146669359Y-57047959D01*
X146731166Y-56991941D01*
X146798165Y-56942251D01*
X146869713Y-56899367D01*
X146945119Y-56863702D01*
X147023658Y-56835601D01*
X147104573Y-56815333D01*
X147187085Y-56803093D01*
X147270400Y-56799000D01*
X150470400Y-56799000D01*
X150553715Y-56803093D01*
X150553715Y-56803093D01*
G37*
D16*
X148870400Y-58499000D03*
D15*
G36*
X150553715Y-50803093D02*
G01*
X150636227Y-50815333D01*
X150717142Y-50835601D01*
X150795681Y-50863702D01*
X150871087Y-50899367D01*
X150942635Y-50942251D01*
X151009634Y-50991941D01*
X151071441Y-51047959D01*
X151127459Y-51109766D01*
X151177149Y-51176765D01*
X151220033Y-51248313D01*
X151255698Y-51323719D01*
X151283799Y-51402258D01*
X151304067Y-51483173D01*
X151316307Y-51565685D01*
X151320400Y-51649000D01*
X151320400Y-53349000D01*
X151316307Y-53432315D01*
X151304067Y-53514827D01*
X151283799Y-53595742D01*
X151255698Y-53674281D01*
X151220033Y-53749687D01*
X151177149Y-53821235D01*
X151127459Y-53888234D01*
X151071441Y-53950041D01*
X151009634Y-54006059D01*
X150942635Y-54055749D01*
X150871087Y-54098633D01*
X150795681Y-54134298D01*
X150717142Y-54162399D01*
X150636227Y-54182667D01*
X150553715Y-54194907D01*
X150470400Y-54199000D01*
X147270400Y-54199000D01*
X147187085Y-54194907D01*
X147104573Y-54182667D01*
X147023658Y-54162399D01*
X146945119Y-54134298D01*
X146869713Y-54098633D01*
X146798165Y-54055749D01*
X146731166Y-54006059D01*
X146669359Y-53950041D01*
X146613341Y-53888234D01*
X146563651Y-53821235D01*
X146520767Y-53749687D01*
X146485102Y-53674281D01*
X146457001Y-53595742D01*
X146436733Y-53514827D01*
X146424493Y-53432315D01*
X146420400Y-53349000D01*
X146420400Y-51649000D01*
X146424493Y-51565685D01*
X146436733Y-51483173D01*
X146457001Y-51402258D01*
X146485102Y-51323719D01*
X146520767Y-51248313D01*
X146563651Y-51176765D01*
X146613341Y-51109766D01*
X146669359Y-51047959D01*
X146731166Y-50991941D01*
X146798165Y-50942251D01*
X146869713Y-50899367D01*
X146945119Y-50863702D01*
X147023658Y-50835601D01*
X147104573Y-50815333D01*
X147187085Y-50803093D01*
X147270400Y-50799000D01*
X150470400Y-50799000D01*
X150553715Y-50803093D01*
X150553715Y-50803093D01*
G37*
D16*
X148870400Y-52499000D03*
D15*
G36*
X145103715Y-53053093D02*
G01*
X145186227Y-53065333D01*
X145267142Y-53085601D01*
X145345681Y-53113702D01*
X145421087Y-53149367D01*
X145492635Y-53192251D01*
X145559634Y-53241941D01*
X145621441Y-53297959D01*
X145677459Y-53359766D01*
X145727149Y-53426765D01*
X145770033Y-53498313D01*
X145805698Y-53573719D01*
X145833799Y-53652258D01*
X145854067Y-53733173D01*
X145866307Y-53815685D01*
X145870400Y-53899000D01*
X145870400Y-57099000D01*
X145866307Y-57182315D01*
X145854067Y-57264827D01*
X145833799Y-57345742D01*
X145805698Y-57424281D01*
X145770033Y-57499687D01*
X145727149Y-57571235D01*
X145677459Y-57638234D01*
X145621441Y-57700041D01*
X145559634Y-57756059D01*
X145492635Y-57805749D01*
X145421087Y-57848633D01*
X145345681Y-57884298D01*
X145267142Y-57912399D01*
X145186227Y-57932667D01*
X145103715Y-57944907D01*
X145020400Y-57949000D01*
X143320400Y-57949000D01*
X143237085Y-57944907D01*
X143154573Y-57932667D01*
X143073658Y-57912399D01*
X142995119Y-57884298D01*
X142919713Y-57848633D01*
X142848165Y-57805749D01*
X142781166Y-57756059D01*
X142719359Y-57700041D01*
X142663341Y-57638234D01*
X142613651Y-57571235D01*
X142570767Y-57499687D01*
X142535102Y-57424281D01*
X142507001Y-57345742D01*
X142486733Y-57264827D01*
X142474493Y-57182315D01*
X142470400Y-57099000D01*
X142470400Y-53899000D01*
X142474493Y-53815685D01*
X142486733Y-53733173D01*
X142507001Y-53652258D01*
X142535102Y-53573719D01*
X142570767Y-53498313D01*
X142613651Y-53426765D01*
X142663341Y-53359766D01*
X142719359Y-53297959D01*
X142781166Y-53241941D01*
X142848165Y-53192251D01*
X142919713Y-53149367D01*
X142995119Y-53113702D01*
X143073658Y-53085601D01*
X143154573Y-53065333D01*
X143237085Y-53053093D01*
X143320400Y-53049000D01*
X145020400Y-53049000D01*
X145103715Y-53053093D01*
X145103715Y-53053093D01*
G37*
D16*
X144170400Y-55499000D03*
D15*
G36*
X138640115Y-56780493D02*
G01*
X138722627Y-56792733D01*
X138803542Y-56813001D01*
X138882081Y-56841102D01*
X138957487Y-56876767D01*
X139029035Y-56919651D01*
X139096034Y-56969341D01*
X139157841Y-57025359D01*
X139213859Y-57087166D01*
X139263549Y-57154165D01*
X139306433Y-57225713D01*
X139342098Y-57301119D01*
X139370199Y-57379658D01*
X139390467Y-57460573D01*
X139402707Y-57543085D01*
X139406800Y-57626400D01*
X139406800Y-59326400D01*
X139402707Y-59409715D01*
X139390467Y-59492227D01*
X139370199Y-59573142D01*
X139342098Y-59651681D01*
X139306433Y-59727087D01*
X139263549Y-59798635D01*
X139213859Y-59865634D01*
X139157841Y-59927441D01*
X139096034Y-59983459D01*
X139029035Y-60033149D01*
X138957487Y-60076033D01*
X138882081Y-60111698D01*
X138803542Y-60139799D01*
X138722627Y-60160067D01*
X138640115Y-60172307D01*
X138556800Y-60176400D01*
X135356800Y-60176400D01*
X135273485Y-60172307D01*
X135190973Y-60160067D01*
X135110058Y-60139799D01*
X135031519Y-60111698D01*
X134956113Y-60076033D01*
X134884565Y-60033149D01*
X134817566Y-59983459D01*
X134755759Y-59927441D01*
X134699741Y-59865634D01*
X134650051Y-59798635D01*
X134607167Y-59727087D01*
X134571502Y-59651681D01*
X134543401Y-59573142D01*
X134523133Y-59492227D01*
X134510893Y-59409715D01*
X134506800Y-59326400D01*
X134506800Y-57626400D01*
X134510893Y-57543085D01*
X134523133Y-57460573D01*
X134543401Y-57379658D01*
X134571502Y-57301119D01*
X134607167Y-57225713D01*
X134650051Y-57154165D01*
X134699741Y-57087166D01*
X134755759Y-57025359D01*
X134817566Y-56969341D01*
X134884565Y-56919651D01*
X134956113Y-56876767D01*
X135031519Y-56841102D01*
X135110058Y-56813001D01*
X135190973Y-56792733D01*
X135273485Y-56780493D01*
X135356800Y-56776400D01*
X138556800Y-56776400D01*
X138640115Y-56780493D01*
X138640115Y-56780493D01*
G37*
D16*
X136956800Y-58476400D03*
D15*
G36*
X138640115Y-50780493D02*
G01*
X138722627Y-50792733D01*
X138803542Y-50813001D01*
X138882081Y-50841102D01*
X138957487Y-50876767D01*
X139029035Y-50919651D01*
X139096034Y-50969341D01*
X139157841Y-51025359D01*
X139213859Y-51087166D01*
X139263549Y-51154165D01*
X139306433Y-51225713D01*
X139342098Y-51301119D01*
X139370199Y-51379658D01*
X139390467Y-51460573D01*
X139402707Y-51543085D01*
X139406800Y-51626400D01*
X139406800Y-53326400D01*
X139402707Y-53409715D01*
X139390467Y-53492227D01*
X139370199Y-53573142D01*
X139342098Y-53651681D01*
X139306433Y-53727087D01*
X139263549Y-53798635D01*
X139213859Y-53865634D01*
X139157841Y-53927441D01*
X139096034Y-53983459D01*
X139029035Y-54033149D01*
X138957487Y-54076033D01*
X138882081Y-54111698D01*
X138803542Y-54139799D01*
X138722627Y-54160067D01*
X138640115Y-54172307D01*
X138556800Y-54176400D01*
X135356800Y-54176400D01*
X135273485Y-54172307D01*
X135190973Y-54160067D01*
X135110058Y-54139799D01*
X135031519Y-54111698D01*
X134956113Y-54076033D01*
X134884565Y-54033149D01*
X134817566Y-53983459D01*
X134755759Y-53927441D01*
X134699741Y-53865634D01*
X134650051Y-53798635D01*
X134607167Y-53727087D01*
X134571502Y-53651681D01*
X134543401Y-53573142D01*
X134523133Y-53492227D01*
X134510893Y-53409715D01*
X134506800Y-53326400D01*
X134506800Y-51626400D01*
X134510893Y-51543085D01*
X134523133Y-51460573D01*
X134543401Y-51379658D01*
X134571502Y-51301119D01*
X134607167Y-51225713D01*
X134650051Y-51154165D01*
X134699741Y-51087166D01*
X134755759Y-51025359D01*
X134817566Y-50969341D01*
X134884565Y-50919651D01*
X134956113Y-50876767D01*
X135031519Y-50841102D01*
X135110058Y-50813001D01*
X135190973Y-50792733D01*
X135273485Y-50780493D01*
X135356800Y-50776400D01*
X138556800Y-50776400D01*
X138640115Y-50780493D01*
X138640115Y-50780493D01*
G37*
D16*
X136956800Y-52476400D03*
D15*
G36*
X133190115Y-53030493D02*
G01*
X133272627Y-53042733D01*
X133353542Y-53063001D01*
X133432081Y-53091102D01*
X133507487Y-53126767D01*
X133579035Y-53169651D01*
X133646034Y-53219341D01*
X133707841Y-53275359D01*
X133763859Y-53337166D01*
X133813549Y-53404165D01*
X133856433Y-53475713D01*
X133892098Y-53551119D01*
X133920199Y-53629658D01*
X133940467Y-53710573D01*
X133952707Y-53793085D01*
X133956800Y-53876400D01*
X133956800Y-57076400D01*
X133952707Y-57159715D01*
X133940467Y-57242227D01*
X133920199Y-57323142D01*
X133892098Y-57401681D01*
X133856433Y-57477087D01*
X133813549Y-57548635D01*
X133763859Y-57615634D01*
X133707841Y-57677441D01*
X133646034Y-57733459D01*
X133579035Y-57783149D01*
X133507487Y-57826033D01*
X133432081Y-57861698D01*
X133353542Y-57889799D01*
X133272627Y-57910067D01*
X133190115Y-57922307D01*
X133106800Y-57926400D01*
X131406800Y-57926400D01*
X131323485Y-57922307D01*
X131240973Y-57910067D01*
X131160058Y-57889799D01*
X131081519Y-57861698D01*
X131006113Y-57826033D01*
X130934565Y-57783149D01*
X130867566Y-57733459D01*
X130805759Y-57677441D01*
X130749741Y-57615634D01*
X130700051Y-57548635D01*
X130657167Y-57477087D01*
X130621502Y-57401681D01*
X130593401Y-57323142D01*
X130573133Y-57242227D01*
X130560893Y-57159715D01*
X130556800Y-57076400D01*
X130556800Y-53876400D01*
X130560893Y-53793085D01*
X130573133Y-53710573D01*
X130593401Y-53629658D01*
X130621502Y-53551119D01*
X130657167Y-53475713D01*
X130700051Y-53404165D01*
X130749741Y-53337166D01*
X130805759Y-53275359D01*
X130867566Y-53219341D01*
X130934565Y-53169651D01*
X131006113Y-53126767D01*
X131081519Y-53091102D01*
X131160058Y-53063001D01*
X131240973Y-53042733D01*
X131323485Y-53030493D01*
X131406800Y-53026400D01*
X133106800Y-53026400D01*
X133190115Y-53030493D01*
X133190115Y-53030493D01*
G37*
D16*
X132256800Y-55476400D03*
D11*
X145872200Y-137769600D03*
D10*
X145872200Y-140309600D03*
X143332200Y-137769600D03*
X143332200Y-140309600D03*
X140792200Y-137769600D03*
X140792200Y-140309600D03*
X138252200Y-137769600D03*
X138252200Y-140309600D03*
X135712200Y-137769600D03*
X135712200Y-140309600D03*
X133172200Y-137769600D03*
X133172200Y-140309600D03*
X130632200Y-137769600D03*
X130632200Y-140309600D03*
X128092200Y-137769600D03*
X128092200Y-140309600D03*
X125552200Y-137769600D03*
X125552200Y-140309600D03*
X123012200Y-137769600D03*
X123012200Y-140309600D03*
X120472200Y-137769600D03*
X120472200Y-140309600D03*
X117932200Y-137769600D03*
X117932200Y-140309600D03*
X115392200Y-137769600D03*
X115392200Y-140309600D03*
X112852200Y-137769600D03*
X112852200Y-140309600D03*
X110312200Y-137769600D03*
X110312200Y-140309600D03*
X107772200Y-137769600D03*
X107772200Y-140309600D03*
X105232200Y-137769600D03*
X105232200Y-140309600D03*
X102692200Y-137769600D03*
X102692200Y-140309600D03*
X100152200Y-137769600D03*
X100152200Y-140309600D03*
X97612200Y-137769600D03*
X97612200Y-140309600D03*
X95072200Y-137769600D03*
X95072200Y-140309600D03*
X92532200Y-137769600D03*
X92532200Y-140309600D03*
X89992200Y-137769600D03*
X89992200Y-140309600D03*
X87452200Y-137769600D03*
X87452200Y-140309600D03*
X84912200Y-137769600D03*
X84912200Y-140309600D03*
X82372200Y-137769600D03*
X82372200Y-140309600D03*
X91871800Y-91008200D03*
X91871800Y-93548200D03*
X91871800Y-96088200D03*
X91871800Y-98628200D03*
D11*
X91871800Y-101168200D03*
D20*
X71437500Y-99796600D03*
X71437500Y-97802700D03*
X71437500Y-89801700D03*
X71437500Y-103797100D03*
X71437500Y-93802200D03*
X71437500Y-101803200D03*
X71437500Y-91795600D03*
X71437500Y-95796100D03*
X71437500Y-83794600D03*
X71437500Y-105803700D03*
X71437500Y-85801200D03*
X71437500Y-87795100D03*
X75438000Y-88798400D03*
X75438000Y-86804500D03*
X75438000Y-82804000D03*
X75438000Y-84797900D03*
X75438000Y-90805000D03*
X75438000Y-96799400D03*
X75438000Y-94805500D03*
X75438000Y-92798900D03*
X75438000Y-98806000D03*
X75438000Y-100799900D03*
X75438000Y-102806500D03*
X75438000Y-104800400D03*
X75438000Y-106807000D03*
D10*
X146558000Y-93751400D03*
X149098000Y-93751400D03*
X151638000Y-93751400D03*
D11*
X154178000Y-93751400D03*
D10*
X139192000Y-91186000D03*
X139192000Y-93726000D03*
X136652000Y-91186000D03*
X136652000Y-93726000D03*
X134112000Y-91186000D03*
X134112000Y-93726000D03*
X131572000Y-91186000D03*
X131572000Y-93726000D03*
X129032000Y-91186000D03*
D11*
X129032000Y-93726000D03*
D21*
X160561400Y-51771800D03*
X163761800Y-51771800D03*
X162974400Y-50578000D03*
X161348800Y-50552600D03*
X162161600Y-51771800D03*
D22*
X158504000Y-46717200D03*
X165793800Y-46717200D03*
D23*
X127101600Y-54686200D03*
X119583200Y-54686200D03*
D24*
X123342400Y-50977800D03*
D25*
X88087200Y-124278400D03*
D26*
X88087200Y-119278400D03*
M02*
