G04 #@! TF.GenerationSoftware,KiCad,Pcbnew,5.1.2-f72e74a~84~ubuntu19.04.1*
G04 #@! TF.CreationDate,2019-04-28T09:03:05-05:00*
G04 #@! TF.ProjectId,open-dash-daughterboard,6f70656e-2d64-4617-9368-2d6461756768,rev?*
G04 #@! TF.SameCoordinates,Original*
G04 #@! TF.FileFunction,Soldermask,Bot*
G04 #@! TF.FilePolarity,Negative*
%FSLAX46Y46*%
G04 Gerber Fmt 4.6, Leading zero omitted, Abs format (unit mm)*
G04 Created by KiCad (PCBNEW 5.1.2-f72e74a~84~ubuntu19.04.1) date 2019-04-28 09:03:05*
%MOMM*%
%LPD*%
G04 APERTURE LIST*
%ADD10C,5.400000*%
%ADD11C,0.100000*%
%ADD12C,3.900000*%
%ADD13C,3.400000*%
%ADD14R,3.900000X3.900000*%
%ADD15R,2.100000X2.100000*%
%ADD16O,2.100000X2.100000*%
%ADD17C,1.924000*%
%ADD18O,2.900000X2.200000*%
%ADD19C,2.200000*%
%ADD20O,2.200000X2.900000*%
%ADD21O,1.400000X1.700000*%
%ADD22O,2.100000X3.300000*%
%ADD23O,2.900000X4.100000*%
%ADD24O,4.100000X2.900000*%
%ADD25C,2.000000*%
%ADD26R,2.000000X2.000000*%
%ADD27R,2.800000X2.800000*%
%ADD28C,2.800000*%
G04 APERTURE END LIST*
D10*
X72440800Y-48310800D03*
X172389800Y-48310800D03*
X172389800Y-138328400D03*
X72440800Y-138328400D03*
D11*
G36*
X167289167Y-131737695D02*
G01*
X167383813Y-131751734D01*
X167476628Y-131774983D01*
X167566716Y-131807217D01*
X167653212Y-131848127D01*
X167735281Y-131897317D01*
X167812133Y-131954315D01*
X167883029Y-132018571D01*
X167947285Y-132089467D01*
X168004283Y-132166319D01*
X168053473Y-132248388D01*
X168094383Y-132334884D01*
X168126617Y-132424972D01*
X168149866Y-132517787D01*
X168163905Y-132612433D01*
X168168600Y-132708000D01*
X168168600Y-134658000D01*
X168163905Y-134753567D01*
X168149866Y-134848213D01*
X168126617Y-134941028D01*
X168094383Y-135031116D01*
X168053473Y-135117612D01*
X168004283Y-135199681D01*
X167947285Y-135276533D01*
X167883029Y-135347429D01*
X167812133Y-135411685D01*
X167735281Y-135468683D01*
X167653212Y-135517873D01*
X167566716Y-135558783D01*
X167476628Y-135591017D01*
X167383813Y-135614266D01*
X167289167Y-135628305D01*
X167193600Y-135633000D01*
X165243600Y-135633000D01*
X165148033Y-135628305D01*
X165053387Y-135614266D01*
X164960572Y-135591017D01*
X164870484Y-135558783D01*
X164783988Y-135517873D01*
X164701919Y-135468683D01*
X164625067Y-135411685D01*
X164554171Y-135347429D01*
X164489915Y-135276533D01*
X164432917Y-135199681D01*
X164383727Y-135117612D01*
X164342817Y-135031116D01*
X164310583Y-134941028D01*
X164287334Y-134848213D01*
X164273295Y-134753567D01*
X164268600Y-134658000D01*
X164268600Y-132708000D01*
X164273295Y-132612433D01*
X164287334Y-132517787D01*
X164310583Y-132424972D01*
X164342817Y-132334884D01*
X164383727Y-132248388D01*
X164432917Y-132166319D01*
X164489915Y-132089467D01*
X164554171Y-132018571D01*
X164625067Y-131954315D01*
X164701919Y-131897317D01*
X164783988Y-131848127D01*
X164870484Y-131807217D01*
X164960572Y-131774983D01*
X165053387Y-131751734D01*
X165148033Y-131737695D01*
X165243600Y-131733000D01*
X167193600Y-131733000D01*
X167289167Y-131737695D01*
X167289167Y-131737695D01*
G37*
D12*
X166218600Y-133683000D03*
D11*
G36*
X162701915Y-134987093D02*
G01*
X162784427Y-134999333D01*
X162865342Y-135019601D01*
X162943881Y-135047702D01*
X163019287Y-135083367D01*
X163090835Y-135126251D01*
X163157834Y-135175941D01*
X163219641Y-135231959D01*
X163275659Y-135293766D01*
X163325349Y-135360765D01*
X163368233Y-135432313D01*
X163403898Y-135507719D01*
X163431999Y-135586258D01*
X163452267Y-135667173D01*
X163464507Y-135749685D01*
X163468600Y-135833000D01*
X163468600Y-137533000D01*
X163464507Y-137616315D01*
X163452267Y-137698827D01*
X163431999Y-137779742D01*
X163403898Y-137858281D01*
X163368233Y-137933687D01*
X163325349Y-138005235D01*
X163275659Y-138072234D01*
X163219641Y-138134041D01*
X163157834Y-138190059D01*
X163090835Y-138239749D01*
X163019287Y-138282633D01*
X162943881Y-138318298D01*
X162865342Y-138346399D01*
X162784427Y-138366667D01*
X162701915Y-138378907D01*
X162618600Y-138383000D01*
X160418600Y-138383000D01*
X160335285Y-138378907D01*
X160252773Y-138366667D01*
X160171858Y-138346399D01*
X160093319Y-138318298D01*
X160017913Y-138282633D01*
X159946365Y-138239749D01*
X159879366Y-138190059D01*
X159817559Y-138134041D01*
X159761541Y-138072234D01*
X159711851Y-138005235D01*
X159668967Y-137933687D01*
X159633302Y-137858281D01*
X159605201Y-137779742D01*
X159584933Y-137698827D01*
X159572693Y-137616315D01*
X159568600Y-137533000D01*
X159568600Y-135833000D01*
X159572693Y-135749685D01*
X159584933Y-135667173D01*
X159605201Y-135586258D01*
X159633302Y-135507719D01*
X159668967Y-135432313D01*
X159711851Y-135360765D01*
X159761541Y-135293766D01*
X159817559Y-135231959D01*
X159879366Y-135175941D01*
X159946365Y-135126251D01*
X160017913Y-135083367D01*
X160093319Y-135047702D01*
X160171858Y-135019601D01*
X160252773Y-134999333D01*
X160335285Y-134987093D01*
X160418600Y-134983000D01*
X162618600Y-134983000D01*
X162701915Y-134987093D01*
X162701915Y-134987093D01*
G37*
D13*
X161518600Y-136683000D03*
D14*
X161518600Y-130683000D03*
D15*
X145872200Y-137769600D03*
D16*
X145872200Y-140309600D03*
X143332200Y-137769600D03*
X143332200Y-140309600D03*
X140792200Y-137769600D03*
X140792200Y-140309600D03*
X138252200Y-137769600D03*
X138252200Y-140309600D03*
X135712200Y-137769600D03*
X135712200Y-140309600D03*
X133172200Y-137769600D03*
X133172200Y-140309600D03*
X130632200Y-137769600D03*
X130632200Y-140309600D03*
X128092200Y-137769600D03*
X128092200Y-140309600D03*
X125552200Y-137769600D03*
X125552200Y-140309600D03*
X123012200Y-137769600D03*
X123012200Y-140309600D03*
X120472200Y-137769600D03*
X120472200Y-140309600D03*
X117932200Y-137769600D03*
X117932200Y-140309600D03*
X115392200Y-137769600D03*
X115392200Y-140309600D03*
X112852200Y-137769600D03*
X112852200Y-140309600D03*
X110312200Y-137769600D03*
X110312200Y-140309600D03*
X107772200Y-137769600D03*
X107772200Y-140309600D03*
X105232200Y-137769600D03*
X105232200Y-140309600D03*
X102692200Y-137769600D03*
X102692200Y-140309600D03*
X100152200Y-137769600D03*
X100152200Y-140309600D03*
X97612200Y-137769600D03*
X97612200Y-140309600D03*
X95072200Y-137769600D03*
X95072200Y-140309600D03*
X92532200Y-137769600D03*
X92532200Y-140309600D03*
X89992200Y-137769600D03*
X89992200Y-140309600D03*
X87452200Y-137769600D03*
X87452200Y-140309600D03*
X84912200Y-137769600D03*
X84912200Y-140309600D03*
X82372200Y-137769600D03*
X82372200Y-140309600D03*
X91871800Y-91008200D03*
X91871800Y-93548200D03*
X91871800Y-96088200D03*
X91871800Y-98628200D03*
D15*
X91871800Y-101168200D03*
D17*
X71437500Y-99796600D03*
X71437500Y-97802700D03*
X71437500Y-89801700D03*
X71437500Y-103797100D03*
X71437500Y-93802200D03*
X71437500Y-101803200D03*
X71437500Y-91795600D03*
X71437500Y-95796100D03*
X71437500Y-83794600D03*
X71437500Y-105803700D03*
X71437500Y-85801200D03*
X71437500Y-87795100D03*
X75438000Y-88798400D03*
X75438000Y-86804500D03*
X75438000Y-82804000D03*
X75438000Y-84797900D03*
X75438000Y-90805000D03*
X75438000Y-96799400D03*
X75438000Y-94805500D03*
X75438000Y-92798900D03*
X75438000Y-98806000D03*
X75438000Y-100799900D03*
X75438000Y-102806500D03*
X75438000Y-104800400D03*
X75438000Y-106807000D03*
D16*
X146558000Y-93751400D03*
X149098000Y-93751400D03*
X151638000Y-93751400D03*
D15*
X154178000Y-93751400D03*
D18*
X82448400Y-46101000D03*
D19*
X82448400Y-48514000D03*
D20*
X80594200Y-51028600D03*
X84302600Y-51028600D03*
D18*
X82448400Y-53009800D03*
X90398600Y-46101000D03*
D19*
X90398600Y-48514000D03*
D20*
X88544400Y-51028600D03*
X92252800Y-51028600D03*
D18*
X90398600Y-53009800D03*
D16*
X139192000Y-91186000D03*
X139192000Y-93726000D03*
X136652000Y-91186000D03*
X136652000Y-93726000D03*
X134112000Y-91186000D03*
X134112000Y-93726000D03*
X131572000Y-91186000D03*
X131572000Y-93726000D03*
X129032000Y-91186000D03*
D15*
X129032000Y-93726000D03*
D11*
G36*
X146205167Y-53683495D02*
G01*
X146299813Y-53697534D01*
X146392628Y-53720783D01*
X146482716Y-53753017D01*
X146569212Y-53793927D01*
X146651281Y-53843117D01*
X146728133Y-53900115D01*
X146799029Y-53964371D01*
X146863285Y-54035267D01*
X146920283Y-54112119D01*
X146969473Y-54194188D01*
X147010383Y-54280684D01*
X147042617Y-54370772D01*
X147065866Y-54463587D01*
X147079905Y-54558233D01*
X147084600Y-54653800D01*
X147084600Y-56603800D01*
X147079905Y-56699367D01*
X147065866Y-56794013D01*
X147042617Y-56886828D01*
X147010383Y-56976916D01*
X146969473Y-57063412D01*
X146920283Y-57145481D01*
X146863285Y-57222333D01*
X146799029Y-57293229D01*
X146728133Y-57357485D01*
X146651281Y-57414483D01*
X146569212Y-57463673D01*
X146482716Y-57504583D01*
X146392628Y-57536817D01*
X146299813Y-57560066D01*
X146205167Y-57574105D01*
X146109600Y-57578800D01*
X144159600Y-57578800D01*
X144064033Y-57574105D01*
X143969387Y-57560066D01*
X143876572Y-57536817D01*
X143786484Y-57504583D01*
X143699988Y-57463673D01*
X143617919Y-57414483D01*
X143541067Y-57357485D01*
X143470171Y-57293229D01*
X143405915Y-57222333D01*
X143348917Y-57145481D01*
X143299727Y-57063412D01*
X143258817Y-56976916D01*
X143226583Y-56886828D01*
X143203334Y-56794013D01*
X143189295Y-56699367D01*
X143184600Y-56603800D01*
X143184600Y-54653800D01*
X143189295Y-54558233D01*
X143203334Y-54463587D01*
X143226583Y-54370772D01*
X143258817Y-54280684D01*
X143299727Y-54194188D01*
X143348917Y-54112119D01*
X143405915Y-54035267D01*
X143470171Y-53964371D01*
X143541067Y-53900115D01*
X143617919Y-53843117D01*
X143699988Y-53793927D01*
X143786484Y-53753017D01*
X143876572Y-53720783D01*
X143969387Y-53697534D01*
X144064033Y-53683495D01*
X144159600Y-53678800D01*
X146109600Y-53678800D01*
X146205167Y-53683495D01*
X146205167Y-53683495D01*
G37*
D12*
X145134600Y-55628800D03*
D11*
G36*
X151017915Y-50932893D02*
G01*
X151100427Y-50945133D01*
X151181342Y-50965401D01*
X151259881Y-50993502D01*
X151335287Y-51029167D01*
X151406835Y-51072051D01*
X151473834Y-51121741D01*
X151535641Y-51177759D01*
X151591659Y-51239566D01*
X151641349Y-51306565D01*
X151684233Y-51378113D01*
X151719898Y-51453519D01*
X151747999Y-51532058D01*
X151768267Y-51612973D01*
X151780507Y-51695485D01*
X151784600Y-51778800D01*
X151784600Y-53478800D01*
X151780507Y-53562115D01*
X151768267Y-53644627D01*
X151747999Y-53725542D01*
X151719898Y-53804081D01*
X151684233Y-53879487D01*
X151641349Y-53951035D01*
X151591659Y-54018034D01*
X151535641Y-54079841D01*
X151473834Y-54135859D01*
X151406835Y-54185549D01*
X151335287Y-54228433D01*
X151259881Y-54264098D01*
X151181342Y-54292199D01*
X151100427Y-54312467D01*
X151017915Y-54324707D01*
X150934600Y-54328800D01*
X148734600Y-54328800D01*
X148651285Y-54324707D01*
X148568773Y-54312467D01*
X148487858Y-54292199D01*
X148409319Y-54264098D01*
X148333913Y-54228433D01*
X148262365Y-54185549D01*
X148195366Y-54135859D01*
X148133559Y-54079841D01*
X148077541Y-54018034D01*
X148027851Y-53951035D01*
X147984967Y-53879487D01*
X147949302Y-53804081D01*
X147921201Y-53725542D01*
X147900933Y-53644627D01*
X147888693Y-53562115D01*
X147884600Y-53478800D01*
X147884600Y-51778800D01*
X147888693Y-51695485D01*
X147900933Y-51612973D01*
X147921201Y-51532058D01*
X147949302Y-51453519D01*
X147984967Y-51378113D01*
X148027851Y-51306565D01*
X148077541Y-51239566D01*
X148133559Y-51177759D01*
X148195366Y-51121741D01*
X148262365Y-51072051D01*
X148333913Y-51029167D01*
X148409319Y-50993502D01*
X148487858Y-50965401D01*
X148568773Y-50945133D01*
X148651285Y-50932893D01*
X148734600Y-50928800D01*
X150934600Y-50928800D01*
X151017915Y-50932893D01*
X151017915Y-50932893D01*
G37*
D13*
X149834600Y-52628800D03*
D14*
X149834600Y-58628800D03*
D11*
G36*
X133200367Y-53677895D02*
G01*
X133295013Y-53691934D01*
X133387828Y-53715183D01*
X133477916Y-53747417D01*
X133564412Y-53788327D01*
X133646481Y-53837517D01*
X133723333Y-53894515D01*
X133794229Y-53958771D01*
X133858485Y-54029667D01*
X133915483Y-54106519D01*
X133964673Y-54188588D01*
X134005583Y-54275084D01*
X134037817Y-54365172D01*
X134061066Y-54457987D01*
X134075105Y-54552633D01*
X134079800Y-54648200D01*
X134079800Y-56598200D01*
X134075105Y-56693767D01*
X134061066Y-56788413D01*
X134037817Y-56881228D01*
X134005583Y-56971316D01*
X133964673Y-57057812D01*
X133915483Y-57139881D01*
X133858485Y-57216733D01*
X133794229Y-57287629D01*
X133723333Y-57351885D01*
X133646481Y-57408883D01*
X133564412Y-57458073D01*
X133477916Y-57498983D01*
X133387828Y-57531217D01*
X133295013Y-57554466D01*
X133200367Y-57568505D01*
X133104800Y-57573200D01*
X131154800Y-57573200D01*
X131059233Y-57568505D01*
X130964587Y-57554466D01*
X130871772Y-57531217D01*
X130781684Y-57498983D01*
X130695188Y-57458073D01*
X130613119Y-57408883D01*
X130536267Y-57351885D01*
X130465371Y-57287629D01*
X130401115Y-57216733D01*
X130344117Y-57139881D01*
X130294927Y-57057812D01*
X130254017Y-56971316D01*
X130221783Y-56881228D01*
X130198534Y-56788413D01*
X130184495Y-56693767D01*
X130179800Y-56598200D01*
X130179800Y-54648200D01*
X130184495Y-54552633D01*
X130198534Y-54457987D01*
X130221783Y-54365172D01*
X130254017Y-54275084D01*
X130294927Y-54188588D01*
X130344117Y-54106519D01*
X130401115Y-54029667D01*
X130465371Y-53958771D01*
X130536267Y-53894515D01*
X130613119Y-53837517D01*
X130695188Y-53788327D01*
X130781684Y-53747417D01*
X130871772Y-53715183D01*
X130964587Y-53691934D01*
X131059233Y-53677895D01*
X131154800Y-53673200D01*
X133104800Y-53673200D01*
X133200367Y-53677895D01*
X133200367Y-53677895D01*
G37*
D12*
X132129800Y-55623200D03*
D11*
G36*
X138013115Y-50927293D02*
G01*
X138095627Y-50939533D01*
X138176542Y-50959801D01*
X138255081Y-50987902D01*
X138330487Y-51023567D01*
X138402035Y-51066451D01*
X138469034Y-51116141D01*
X138530841Y-51172159D01*
X138586859Y-51233966D01*
X138636549Y-51300965D01*
X138679433Y-51372513D01*
X138715098Y-51447919D01*
X138743199Y-51526458D01*
X138763467Y-51607373D01*
X138775707Y-51689885D01*
X138779800Y-51773200D01*
X138779800Y-53473200D01*
X138775707Y-53556515D01*
X138763467Y-53639027D01*
X138743199Y-53719942D01*
X138715098Y-53798481D01*
X138679433Y-53873887D01*
X138636549Y-53945435D01*
X138586859Y-54012434D01*
X138530841Y-54074241D01*
X138469034Y-54130259D01*
X138402035Y-54179949D01*
X138330487Y-54222833D01*
X138255081Y-54258498D01*
X138176542Y-54286599D01*
X138095627Y-54306867D01*
X138013115Y-54319107D01*
X137929800Y-54323200D01*
X135729800Y-54323200D01*
X135646485Y-54319107D01*
X135563973Y-54306867D01*
X135483058Y-54286599D01*
X135404519Y-54258498D01*
X135329113Y-54222833D01*
X135257565Y-54179949D01*
X135190566Y-54130259D01*
X135128759Y-54074241D01*
X135072741Y-54012434D01*
X135023051Y-53945435D01*
X134980167Y-53873887D01*
X134944502Y-53798481D01*
X134916401Y-53719942D01*
X134896133Y-53639027D01*
X134883893Y-53556515D01*
X134879800Y-53473200D01*
X134879800Y-51773200D01*
X134883893Y-51689885D01*
X134896133Y-51607373D01*
X134916401Y-51526458D01*
X134944502Y-51447919D01*
X134980167Y-51372513D01*
X135023051Y-51300965D01*
X135072741Y-51233966D01*
X135128759Y-51172159D01*
X135190566Y-51116141D01*
X135257565Y-51066451D01*
X135329113Y-51023567D01*
X135404519Y-50987902D01*
X135483058Y-50959801D01*
X135563973Y-50939533D01*
X135646485Y-50927293D01*
X135729800Y-50923200D01*
X137929800Y-50923200D01*
X138013115Y-50927293D01*
X138013115Y-50927293D01*
G37*
D13*
X136829800Y-52623200D03*
D14*
X136829800Y-58623200D03*
D21*
X160561400Y-51771800D03*
X163761800Y-51771800D03*
X162974400Y-50578000D03*
X161348800Y-50552600D03*
X162161600Y-51771800D03*
D22*
X158504000Y-46717200D03*
X165793800Y-46717200D03*
D18*
X98399600Y-46050200D03*
D19*
X98399600Y-48463200D03*
D20*
X96545400Y-50977800D03*
X100253800Y-50977800D03*
D18*
X98399600Y-52959000D03*
X106400600Y-46050200D03*
D19*
X106400600Y-48463200D03*
D20*
X104546400Y-50977800D03*
X108254800Y-50977800D03*
D18*
X106400600Y-52959000D03*
D23*
X124409200Y-54635400D03*
X116890800Y-54635400D03*
D24*
X120650000Y-50927000D03*
D25*
X78105000Y-131490600D03*
D26*
X78105000Y-127990600D03*
D27*
X88087200Y-124278400D03*
D28*
X88087200Y-119278400D03*
M02*
